<svg xmlns="http://www.w3.org/2000/svg" width="1021" height="243" viewBox="0 0 572.61 136.14" shape-rendering="geometricPrecision" text-rendering="geometricPrecision" image-rendering="optimizeQuality" fill-rule="evenodd" clip-rule="evenodd"><defs><style>.fil2,.fil3{fill:#102c63;fill-rule:nonzero}.fil3{fill:#f08519}</style></defs><g id="Layer_x0020_4"><g id="_1679396235936"><path d="M69.04 3.86c35.71 0 64.67 28.96 64.67 64.67 0 35.72-28.96 64.68-64.67 64.68-35.72 0-64.68-28.96-64.68-64.68 0-35.71 28.96-64.67 64.68-64.67z" fill="#102c63"/><path d="M69.04 12.06c24.88 0 46 16.1 53.52 38.45h-20.54c-6.38-11.66-18.76-19.56-32.98-19.56-17.49 0-32.2 11.95-36.39 28.13h92.06c.52 3.07.8 6.23.8 9.45 0 31.19-25.29 56.48-56.47 56.48-24.88 0-46.01-16.1-53.53-38.45h20.54c4.92 8.98 13.39 15.73 23.53 18.36V77.99H13.36c-.52-3.07-.8-6.23-.8-9.46 0-31.18 25.29-56.47 56.48-56.47zm9.45 92.86c13.16-3.41 23.52-13.77 26.93-26.93H78.49v26.93z" fill="#fff"/><path class="fil2" d="M148.71 59.49l12.71-1.26c.77 4.25 2.3 7.36 4.63 9.36 2.33 2 5.47 2.99 9.42 2.99 4.17 0 7.33-.88 9.45-2.66 2.12-1.77 3.18-3.84 3.18-6.22 0-1.53-.45-2.82-1.33-3.9-.89-1.07-2.45-2-4.68-2.78-1.51-.54-4.97-1.48-10.38-2.83-6.96-1.74-11.84-3.87-14.65-6.41-3.95-3.56-5.92-7.91-5.92-13.03 0-3.29.93-6.39 2.78-9.26 1.87-2.87 4.54-5.04 8.04-6.55 3.5-1.5 7.71-2.25 12.67-2.25 8.06 0 14.15 1.79 18.22 5.38 4.09 3.59 6.22 8.37 6.43 14.36l-13.07.45c-.56-3.33-1.74-5.72-3.56-7.18s-4.55-2.19-8.19-2.19c-3.76 0-6.7.78-8.82 2.34-1.37 1.01-2.06 2.35-2.06 4.03 0 1.53.65 2.84 1.94 3.92 1.64 1.4 5.62 2.84 11.95 4.34 6.32 1.49 10.99 3.05 14.01 4.64 3.04 1.61 5.41 3.79 7.13 6.57 1.71 2.78 2.57 6.21 2.57 10.28 0 3.69-1.03 7.16-3.08 10.39-2.06 3.24-4.96 5.64-8.72 7.2-3.76 1.58-8.44 2.36-14.05 2.36-8.16 0-14.42-1.88-18.79-5.65-4.38-3.75-6.98-9.24-7.83-16.44z"/><path id="1" class="fil2" d="M270.41 80.41h-14.08l-5.57-14.7h-25.89l-5.36 14.7h-13.83l25.06-64.55h13.81l25.86 64.55zm-23.89-25.6l-8.97-23.89-8.71 23.89h17.68z"/><path id="2" class="fil2" d="M273.94 59.49l12.71-1.26c.77 4.25 2.3 7.36 4.63 9.36 2.33 2 5.47 2.99 9.42 2.99 4.18 0 7.33-.88 9.45-2.66 2.12-1.77 3.19-3.84 3.19-6.22 0-1.53-.45-2.82-1.34-3.9-.89-1.07-2.45-2-4.67-2.78-1.52-.54-4.98-1.48-10.39-2.83-6.95-1.74-11.83-3.87-14.64-6.41-3.96-3.56-5.92-7.91-5.92-13.03 0-3.29.93-6.39 2.78-9.26 1.86-2.87 4.53-5.04 8.03-6.55 3.5-1.5 7.71-2.25 12.67-2.25 8.07 0 14.15 1.79 18.23 5.38s6.22 8.37 6.43 14.36l-13.08.45c-.55-3.33-1.74-5.72-3.56-7.18-1.81-1.46-4.55-2.19-8.19-2.19-3.75 0-6.7.78-8.81 2.34-1.37 1.01-2.06 2.35-2.06 4.03 0 1.53.64 2.84 1.93 3.92 1.64 1.4 5.62 2.84 11.95 4.34 6.33 1.49 11 3.05 14.02 4.64 3.03 1.61 5.41 3.79 7.12 6.57 1.71 2.78 2.57 6.21 2.57 10.28 0 3.69-1.02 7.16-3.08 10.39-2.06 3.24-4.96 5.64-8.72 7.2-3.75 1.58-8.44 2.36-14.04 2.36-8.16 0-14.43-1.88-18.8-5.65-4.37-3.75-6.97-9.24-7.83-16.44z"/><path id="3" class="fil3" d="M352.01 80.41V26.77H332.9V15.86h51.21v10.91h-19.03v53.64z"/><path id="4" class="fil3" d="M399.31 80.41h-12.35V33.62h11.45v6.64c1.97-3.14 3.74-5.2 5.32-6.17 1.58-.98 3.36-1.46 5.36-1.46 2.83 0 5.55.78 8.16 2.33l-3.83 10.79c-2.09-1.36-4.03-2.03-5.82-2.03-1.74 0-3.21.48-4.41 1.43-1.2.96-2.15 2.67-2.84 5.16-.69 2.5-1.04 7.73-1.04 15.68v14.42z"/><path id="5" class="fil3" d="M431.78 48.05l-11.18-1.99c1.26-4.57 3.44-7.95 6.52-10.14 3.08-2.19 7.66-3.29 13.73-3.29 5.52 0 9.64.65 12.34 1.95 2.69 1.31 4.6 2.96 5.69 4.98 1.1 2.01 1.66 5.69 1.66 11.07l-.18 14.42c0 4.11.19 7.14.58 9.09.39 1.96 1.13 4.05 2.21 6.27h-12.26c-.31-.81-.72-2.01-1.19-3.61-.19-.73-.34-1.21-.43-1.44-2.1 2.07-4.36 3.62-6.76 4.66-2.41 1.04-4.96 1.56-7.68 1.56-4.79 0-8.58-1.31-11.34-3.92-2.77-2.6-4.15-5.91-4.15-9.9 0-2.63.63-4.99 1.89-7.06 1.26-2.06 3.02-3.65 5.31-4.75 2.26-1.1 5.54-2.06 9.82-2.89 5.77-1.08 9.78-2.1 12.01-3.03v-1.25c0-2.4-.59-4.12-1.76-5.15-1.19-1.02-3.41-1.53-6.67-1.53-2.21 0-3.92.43-5.16 1.32-1.24.87-2.23 2.42-3 4.63zm16.59 10c-1.58.53-4.09 1.16-7.53 1.9-3.43.73-5.68 1.45-6.73 2.14-1.61 1.16-2.42 2.6-2.42 4.36 0 1.74.65 3.23 1.94 4.49 1.29 1.27 2.93 1.9 4.93 1.9 2.22 0 4.35-.74 6.38-2.2 1.49-1.12 2.48-2.48 2.95-4.1.31-1.05.48-3.06.48-6.02v-2.47z"/><path id="6" class="fil3" d="M515.63 80.41h-11.44v-6.87c-1.91 2.68-4.18 4.68-6.78 6.03-2.6 1.34-5.23 2.01-7.87 2.01-5.4 0-10.01-2.16-13.86-6.5-3.83-4.35-5.75-10.39-5.75-18.16 0-7.93 1.86-13.97 5.6-18.1 3.74-4.13 8.46-6.19 14.17-6.19 5.23 0 9.77 2.18 13.58 6.52V15.86h12.35v64.55zm-32.99-24.3c0 5.01.69 8.63 2.06 10.87 2 3.24 4.78 4.86 8.35 4.86 2.84 0 5.26-1.21 7.24-3.65 2-2.43 2.99-6.05 2.99-10.89 0-5.39-.96-9.27-2.9-11.64-1.93-2.38-4.4-3.56-7.42-3.56-2.93 0-5.38 1.17-7.36 3.51-1.97 2.35-2.96 5.85-2.96 10.5z"/><path id="7" class="fil3" d="M554.83 65.62l12.36 2.08c-1.58 4.52-4.09 7.96-7.5 10.34-3.43 2.35-7.71 3.54-12.83 3.54-8.13 0-14.16-2.66-18.05-7.98-3.08-4.26-4.63-9.64-4.63-16.15 0-7.75 2.03-13.84 6.07-18.22 4.04-4.41 9.17-6.6 15.36-6.6 6.94 0 12.42 2.3 16.45 6.9 4.01 4.59 5.94 11.64 5.76 21.14h-30.93c.09 3.66 1.09 6.52 2.99 8.56 1.9 2.04 4.27 3.07 7.1 3.07 1.93 0 3.56-.53 4.86-1.58 1.33-1.05 2.32-2.75 2.99-5.1zm.73-12.53c-.09-3.59-1.01-6.32-2.77-8.18-1.76-1.88-3.89-2.81-6.41-2.81-2.69 0-4.92.99-6.68 2.96-1.75 1.96-2.61 4.65-2.58 8.03h18.44z"/><path id="8" class="fil2" d="M147.13 114.7l2.12-.2-.02.56c0 .63.14 1.2.42 1.72.29.51.76.91 1.42 1.19.66.29 1.44.43 2.35.43 1.29 0 2.27-.28 2.95-.85.68-.57 1.01-1.21 1.01-1.94 0-.51-.18-.98-.53-1.39-.37-.42-1.37-.97-3-1.68-1.27-.55-2.13-.97-2.6-1.26-.72-.48-1.25-1-1.6-1.56-.34-.56-.51-1.2-.51-1.92 0-.82.23-1.58.68-2.24.45-.67 1.12-1.18 1.99-1.53.88-.35 1.87-.53 2.97-.53 1.31 0 2.42.22 3.32.66.9.44 1.56 1.02 1.96 1.76.41.73.61 1.43.61 2.1v.33l-2.09.16c0-.46-.04-.81-.12-1.07-.15-.44-.37-.82-.68-1.13-.31-.31-.73-.56-1.27-.75-.53-.18-1.14-.28-1.8-.28-1.17 0-2.08.26-2.73.79-.5.41-.75.95-.75 1.62 0 .39.1.75.31 1.06.2.31.57.62 1.11.92.38.22 1.28.64 2.71 1.27 1.15.51 1.95.92 2.39 1.21.58.39 1.04.86 1.35 1.41.31.56.47 1.18.47 1.89 0 .87-.27 1.67-.8 2.41-.53.74-1.27 1.31-2.2 1.71-.94.41-2.01.61-3.22.61-1.83 0-3.32-.4-4.48-1.19-1.15-.79-1.73-2.23-1.74-4.29z"/><path id="9" class="fil2" d="M169.32 117.79c-1.4 1.58-2.84 2.37-4.31 2.37-.9 0-1.63-.26-2.19-.77-.55-.52-.83-1.15-.83-1.89 0-.5.14-1.34.41-2.53l1.53-6.76h2.01l-1.7 7.57c-.15.63-.22 1.13-.22 1.48 0 .4.14.71.41.94.27.22.67.33 1.2.33.57 0 1.12-.13 1.66-.4a4.41 4.41 0 0 0 1.4-1.1c.39-.45.71-1 .96-1.63.16-.39.35-1.1.56-2.1l1.12-5.09h1.98l-2.59 11.7h-1.84l.44-2.12z"/><path id="10" class="fil2" d="M172.94 124.39l3.38-16.18h1.84l-.34 1.64c.68-.71 1.29-1.2 1.83-1.48a3.79 3.79 0 0 1 1.72-.41c1.11 0 2.04.41 2.77 1.22s1.1 1.97 1.1 3.47c0 1.22-.2 2.33-.61 3.33-.4.99-.89 1.8-1.48 2.41-.59.61-1.19 1.05-1.79 1.34-.6.28-1.22.43-1.85.43-1.41 0-2.5-.72-3.27-2.15l-1.32 6.38h-1.98zm3.92-9.25c0 .87.07 1.47.19 1.8.18.48.49.86.91 1.15.42.3.9.44 1.46.44 1.14 0 2.07-.64 2.78-1.93.71-1.28 1.06-2.6 1.06-3.94 0-.99-.24-1.75-.71-2.29-.48-.54-1.07-.81-1.78-.81-.5 0-.97.14-1.41.41-.44.26-.84.66-1.21 1.2-.37.53-.68 1.18-.92 1.95s-.37 1.45-.37 2.02z"/><path id="11" class="fil2" d="M185.47 124.39l3.38-16.18h1.84l-.34 1.64c.68-.71 1.3-1.2 1.84-1.48.53-.27 1.11-.41 1.71-.41 1.11 0 2.04.41 2.78 1.22.73.81 1.1 1.97 1.1 3.47 0 1.22-.21 2.33-.61 3.33-.4.99-.9 1.8-1.49 2.41-.59.61-1.18 1.05-1.79 1.34-.6.28-1.22.43-1.85.43-1.4 0-2.49-.72-3.27-2.15l-1.32 6.38h-1.98zm3.93-9.25c0 .87.06 1.47.18 1.8.19.48.49.86.91 1.15.42.3.91.44 1.46.44 1.15 0 2.07-.64 2.78-1.93.71-1.28 1.06-2.6 1.06-3.94 0-.99-.23-1.75-.71-2.29-.47-.54-1.06-.81-1.77-.81-.51 0-.98.14-1.42.41-.43.26-.83.66-1.21 1.2-.37.53-.68 1.18-.92 1.95s-.36 1.45-.36 2.02z"/><path id="12" class="fil2" d="M199.29 115.46c0-2.27.67-4.16 2.01-5.65 1.11-1.23 2.56-1.85 4.36-1.85 1.4 0 2.54.44 3.4 1.32.86.88 1.29 2.07 1.29 3.56 0 1.34-.27 2.59-.81 3.74-.54 1.15-1.32 2.04-2.31 2.65-1.01.62-2.06.93-3.17.93-.91 0-1.73-.2-2.48-.59-.74-.38-1.31-.94-1.7-1.65-.4-.71-.59-1.52-.59-2.46zm1.98-.19c0 1.1.27 1.93.8 2.5.53.57 1.2.85 2.02.85.43 0 .86-.08 1.27-.26.42-.17.81-.43 1.17-.78.37-.35.68-.76.93-1.21.25-.45.46-.93.61-1.45.23-.73.35-1.42.35-2.09 0-1.06-.27-1.88-.8-2.46-.54-.58-1.21-.87-2.02-.87-.63 0-1.2.15-1.72.44-.52.3-.98.73-1.4 1.31-.42.57-.72 1.23-.91 1.99-.2.76-.3 1.44-.3 2.03z"/><path id="13" class="fil2" d="M211.48 119.91l2.44-11.7h1.77l-.5 2.39c.61-.89 1.2-1.56 1.78-1.99.57-.43 1.16-.65 1.76-.65.4 0 .89.15 1.46.43l-.81 1.85c-.34-.26-.72-.38-1.13-.38-.7 0-1.42.39-2.15 1.17-.74.77-1.32 2.17-1.75 4.19l-.97 4.69h-1.9z"/><path id="14" class="fil2" d="M223.62 118.29l-.33 1.63c-.47.13-.94.19-1.38.19-.8 0-1.42-.19-1.89-.59-.35-.29-.53-.69-.53-1.2 0-.25.1-.85.29-1.77l1.42-6.81h-1.58l.32-1.53h1.57l.61-2.86 2.28-1.38-.9 4.24h1.96l-.34 1.53h-1.94l-1.35 6.48c-.17.82-.25 1.31-.25 1.47 0 .24.06.42.2.54.14.13.36.19.66.19.44 0 .84-.04 1.18-.13z"/><path id="15" class="fil2" d="M231.71 119.91l3.38-16.14h5.15c.94 0 1.63.04 2.08.11.74.13 1.37.35 1.88.66.51.31.9.74 1.18 1.28.28.54.42 1.13.42 1.78 0 .89-.24 1.67-.74 2.35-.49.67-1.24 1.18-2.25 1.54.88.28 1.54.71 1.98 1.29.43.58.65 1.25.65 2.02 0 .89-.26 1.74-.78 2.55a5.26 5.26 0 0 1-2.08 1.89c-.86.45-1.81.67-2.87.67h-8zm4.08-9.24h3.43c1.64 0 2.82-.25 3.52-.75.7-.5 1.05-1.23 1.05-2.19 0-.46-.11-.85-.33-1.18a1.98 1.98 0 0 0-.89-.73c-.38-.15-1.08-.22-2.12-.22h-3.6l-1.06 5.07zm-1.55 7.41h3.81c1.01 0 1.69-.03 2.04-.09.71-.13 1.28-.32 1.72-.61.45-.28.79-.65 1.04-1.12.26-.46.38-.95.38-1.45 0-.76-.24-1.33-.72-1.73-.49-.39-1.43-.59-2.82-.59h-4.28l-1.17 5.59z"/><path id="16" class="fil2" d="M245.78 124.41l.11-1.88c.41.11.81.17 1.2.17.41 0 .73-.09.99-.27.32-.24.67-.7 1.05-1.36l.64-1.14-1.94-11.72h1.96l.88 5.88c.17 1.16.32 2.32.45 3.49l5.23-9.37h2.06l-7.45 13.23c-.71 1.29-1.35 2.15-1.91 2.57-.55.42-1.2.63-1.92.63-.46 0-.91-.08-1.35-.23z"/><path id="17" class="fil2" d="M264.27 119.91l3.39-16.14h5.14c.94 0 1.63.04 2.08.11.74.13 1.37.35 1.88.66.51.31.9.74 1.18 1.28.28.54.42 1.13.42 1.78 0 .89-.24 1.67-.74 2.35-.48.67-1.24 1.18-2.25 1.54.88.28 1.54.71 1.98 1.29.43.58.65 1.25.65 2.02 0 .89-.26 1.74-.78 2.55a5.26 5.26 0 0 1-2.08 1.89c-.86.45-1.81.67-2.87.67h-8zm4.08-9.24h3.43c1.64 0 2.82-.25 3.52-.75.7-.5 1.05-1.23 1.05-2.19 0-.46-.11-.85-.33-1.18a1.98 1.98 0 0 0-.89-.73c-.38-.15-1.08-.22-2.12-.22h-3.6l-1.06 5.07zm-1.55 7.41h3.81c1.01 0 1.69-.03 2.04-.09.71-.13 1.29-.32 1.72-.61.45-.28.79-.65 1.05-1.12.25-.46.37-.95.37-1.45 0-.76-.24-1.33-.72-1.73-.49-.39-1.43-.59-2.82-.59h-4.28l-1.17 5.59z"/><path id="18" class="fil2" d="M281.97 106.03l.47-2.26h1.98l-.48 2.26h-1.97zm-2.91 13.88l2.45-11.7h1.98l-2.45 11.7h-1.98z"/><path id="19" class="fil2" d="M284.09 119.91l2.45-11.7h1.81l-.42 2.05c.8-.8 1.54-1.38 2.23-1.75.69-.36 1.39-.55 2.11-.55.96 0 1.71.26 2.26.78.54.51.81 1.2.81 2.06 0 .44-.1 1.12-.3 2.05l-1.58 7.06h-1.98l1.64-7.4c.16-.72.24-1.25.24-1.59 0-.39-.13-.71-.4-.95-.28-.24-.67-.36-1.19-.36-1.04 0-1.97.36-2.78 1.1-.81.73-1.41 1.98-1.79 3.76l-1.13 5.44h-1.98z"/><path id="20" class="fil2" d="M304.51 118.45c-.69.6-1.36 1.03-1.99 1.3-.64.27-1.32.41-2.05.41-1.08 0-1.95-.32-2.61-.95-.66-.64-.99-1.45-.99-2.43 0-.66.15-1.23.45-1.74.29-.5.69-.9 1.18-1.2.49-.31 1.09-.52 1.8-.66.45-.09 1.31-.15 2.56-.21 1.25-.05 2.16-.18 2.7-.39.15-.54.23-1 .23-1.36 0-.46-.17-.82-.5-1.09-.47-.36-1.15-.54-2.04-.54-.84 0-1.52.18-2.06.55-.53.37-.92.9-1.17 1.59l-2-.18c.41-1.16 1.06-2.05 1.95-2.66.89-.62 2.01-.93 3.37-.93 1.44 0 2.58.35 3.43 1.04.64.51.96 1.18.96 2 0 .62-.09 1.34-.27 2.17l-.64 2.9c-.2.92-.31 1.67-.31 2.25 0 .37.08.9.24 1.59h-2.01c-.11-.39-.19-.87-.23-1.46zm.75-4.47c-.29.11-.59.2-.91.25-.32.06-.86.13-1.6.19-1.16.1-1.98.23-2.46.39-.47.16-.83.41-1.07.76-.25.34-.37.72-.37 1.14 0 .56.19 1.02.58 1.37.38.36.93.54 1.65.54.66 0 1.29-.17 1.9-.52.61-.35 1.09-.83 1.45-1.46.35-.62.63-1.51.83-2.66z"/><path id="21" class="fil2" d="M309.18 119.91l2.43-11.7h1.78l-.51 2.39c.61-.89 1.2-1.56 1.78-1.99.58-.43 1.17-.65 1.77-.65.39 0 .88.15 1.46.43l-.81 1.85c-.35-.26-.73-.38-1.14-.38-.7 0-1.41.39-2.15 1.17-.74.77-1.32 2.17-1.74 4.19l-.98 4.69h-1.89z"/><path id="22" class="fil2" d="M315.92 124.41l.11-1.88c.41.11.81.17 1.2.17.41 0 .73-.09.98-.27.33-.24.68-.7 1.06-1.36l.64-1.14-1.94-11.72h1.96l.88 5.88c.17 1.16.32 2.32.45 3.49l5.22-9.37h2.07l-7.45 13.23c-.71 1.29-1.35 2.15-1.91 2.57-.55.42-1.2.63-1.92.63-.46 0-.91-.08-1.35-.23z"/><path id="23" class="fil2" d="M326.82 119.91l.47-2.26h2.26l-.49 2.26z"/><path id="24" class="fil2" d="M340.59 115.65l2 .2c-.5 1.46-1.21 2.54-2.13 3.25-.92.7-1.97 1.06-3.15 1.06-1.27 0-2.3-.41-3.09-1.24-.79-.82-1.18-1.96-1.18-3.43 0-1.28.25-2.53.75-3.76.51-1.23 1.24-2.17 2.18-2.8.95-.65 2.02-.97 3.23-.97 1.26 0 2.25.36 2.99 1.07.73.71 1.1 1.64 1.1 2.81l-1.96.14c-.01-.74-.22-1.33-.65-1.74-.42-.42-.98-.63-1.67-.63-.8 0-1.49.25-2.08.76-.59.5-1.05 1.27-1.39 2.3-.33 1.03-.5 2.02-.5 2.97 0 .99.22 1.74.66 2.24.44.5.99.74 1.63.74.65 0 1.27-.24 1.86-.73.59-.49 1.06-1.24 1.4-2.24z"/><path id="25" class="fil2" d="M344.15 115.46c0-2.27.67-4.16 2.01-5.65 1.11-1.23 2.56-1.85 4.36-1.85 1.4 0 2.54.44 3.4 1.32.86.88 1.29 2.07 1.29 3.56 0 1.34-.27 2.59-.81 3.74-.54 1.15-1.32 2.04-2.32 2.65-1 .62-2.05.93-3.16.93-.91 0-1.74-.2-2.48-.59-.75-.38-1.31-.94-1.7-1.65-.4-.71-.59-1.52-.59-2.46zm1.98-.19c0 1.1.27 1.93.8 2.5.52.57 1.2.85 2.02.85.43 0 .85-.08 1.27-.26.42-.17.81-.43 1.17-.78.37-.35.67-.76.92-1.21.26-.45.47-.93.62-1.45.23-.73.34-1.42.34-2.09 0-1.06-.26-1.88-.8-2.46-.53-.58-1.21-.87-2.02-.87-.63 0-1.2.15-1.71.44-.52.3-.99.73-1.4 1.31-.42.57-.72 1.23-.92 1.99-.19.76-.29 1.44-.29 2.03z"/><path id="26" class="fil2" d="M356.32 119.91l2.45-11.7h1.98l-.41 1.94c.74-.83 1.41-1.4 1.99-1.71.58-.32 1.22-.48 1.9-.48.73 0 1.34.2 1.82.58.49.39.81.92.97 1.61.59-.73 1.22-1.28 1.88-1.64.65-.37 1.35-.55 2.07-.55.98 0 1.71.23 2.2.7.49.46.73 1.1.73 1.94 0 .36-.08.95-.26 1.78l-1.59 7.53h-1.98l1.61-7.72c.14-.63.21-1.08.21-1.35 0-.38-.12-.68-.36-.9-.24-.22-.59-.33-1.03-.33-.6 0-1.2.18-1.82.54a3.8 3.8 0 0 0-1.44 1.4c-.34.59-.64 1.48-.9 2.69l-1.19 5.67h-1.98l1.65-7.88c.12-.54.18-.92.18-1.15 0-.38-.12-.69-.36-.92-.24-.23-.55-.35-.93-.35-.57 0-1.16.18-1.78.54-.62.36-1.13.86-1.52 1.5-.39.63-.71 1.55-.96 2.73l-1.15 5.53h-1.98z"/><path fill="none" d="M0 0h572.61v136.14H0z"/></g></g></svg>