<svg xmlns="http://www.w3.org/2000/svg" width="1049" height="249" viewBox="0 0 636.03 151.21" shape-rendering="geometricPrecision" text-rendering="geometricPrecision" image-rendering="optimizeQuality" fill-rule="evenodd" clip-rule="evenodd"><defs><style>.fil2,.fil3{fill:#f08519;fill-rule:nonzero}.fil2{fill:#fafcff}</style></defs><g id="Layer_x0020_4"><g id="_1679428987536"><path d="M76.68 4.29c39.67 0 71.84 32.17 71.84 71.83 0 39.67-32.17 71.84-71.84 71.84S4.85 115.79 4.85 76.12c0-39.66 32.16-71.83 71.83-71.83z" fill="#102c63"/><path d="M76.68 13.4c27.64 0 51.1 17.88 59.46 42.7h-22.82c-7.09-12.94-20.84-21.73-36.64-21.73-19.42 0-35.75 13.28-40.41 31.25h102.26c.57 3.42.88 6.92.88 10.5 0 34.64-28.09 62.73-62.73 62.73-27.63 0-51.09-17.88-59.45-42.7h22.81c5.47 9.97 14.88 17.47 26.14 20.39V86.63H14.84c-.58-3.42-.88-6.92-.88-10.51 0-34.63 28.09-62.72 62.72-62.72zm10.51 103.14c14.61-3.79 26.12-15.3 29.91-29.91H87.19v29.91z" fill="#fff"/><path class="fil2" d="M165.18 66.08l14.12-1.4c.85 4.73 2.55 8.18 5.14 10.4 2.59 2.22 6.07 3.32 10.46 3.32 4.64 0 8.15-.98 10.5-2.95 2.35-1.97 3.54-4.28 3.54-6.91 0-1.71-.5-3.14-1.49-4.34-.98-1.19-2.72-2.22-5.19-3.09-1.68-.6-5.52-1.64-11.53-3.14-7.73-1.93-13.15-4.3-16.27-7.12-4.39-3.96-6.58-8.78-6.58-14.47 0-3.66 1.04-7.1 3.09-10.28 2.07-3.19 5.04-5.61 8.93-7.28 3.89-1.67 8.56-2.5 14.07-2.5 8.96 0 15.72 1.98 20.24 5.97 4.54 3.99 6.91 9.3 7.15 15.96l-14.52.5c-.62-3.71-1.94-6.36-3.96-7.98s-5.06-2.44-9.1-2.44c-4.17 0-7.44.87-9.79 2.61-1.52 1.11-2.29 2.6-2.29 4.47 0 1.7.72 3.15 2.15 4.35 1.82 1.56 6.25 3.16 13.27 4.83 7.03 1.65 12.22 3.39 15.57 5.15 3.38 1.79 6.01 4.21 7.91 7.3 1.91 3.09 2.86 6.89 2.86 11.41 0 4.11-1.14 7.96-3.42 11.55-2.29 3.59-5.51 6.26-9.68 8-4.18 1.75-9.38 2.62-15.61 2.62-9.06 0-16.02-2.09-20.88-6.28-4.85-4.17-7.74-10.26-8.69-18.26z"/><path id="1" class="fil2" d="M300.36 89.32h-15.63l-6.2-16.33h-28.75l-5.96 16.33h-15.35l27.83-71.7h15.34l28.72 71.7zm-26.53-28.44l-9.97-26.54-9.68 26.54h19.65z"/><path id="2" class="fil2" d="M304.29 66.08l14.11-1.4c.86 4.73 2.56 8.18 5.15 10.4 2.58 2.22 6.07 3.32 10.46 3.32 4.64 0 8.14-.98 10.5-2.95 2.35-1.97 3.53-4.28 3.53-6.91 0-1.71-.5-3.14-1.48-4.34-.99-1.19-2.72-2.22-5.19-3.09-1.69-.6-5.53-1.64-11.53-3.14-7.73-1.93-13.15-4.3-16.28-7.12-4.39-3.96-6.57-8.78-6.57-14.47 0-3.66 1.03-7.1 3.09-10.28 2.07-3.19 5.04-5.61 8.93-7.28 3.88-1.67 8.56-2.5 14.06-2.5 8.97 0 15.73 1.98 20.25 5.97 4.54 3.99 6.91 9.3 7.14 15.96l-14.52.5c-.62-3.71-1.93-6.36-3.95-7.98-2.02-1.62-5.06-2.44-9.1-2.44-4.17 0-7.44.87-9.8 2.61-1.51 1.11-2.28 2.6-2.28 4.47 0 1.7.72 3.15 2.15 4.35 1.82 1.56 6.24 3.16 13.27 4.83 7.02 1.65 12.22 3.39 15.57 5.15 3.37 1.79 6.01 4.21 7.91 7.3 1.9 3.09 2.85 6.89 2.85 11.41 0 4.11-1.13 7.96-3.42 11.55-2.28 3.59-5.5 6.26-9.68 8-4.17 1.75-9.38 2.62-15.6 2.62-9.06 0-16.02-2.09-20.88-6.28-4.86-4.17-7.74-10.26-8.69-18.26z"/><path id="3" class="fil3" d="M391 89.32V29.73h-21.23V17.62h56.88v12.11h-21.13v59.59z"/><path id="4" class="fil3" d="M443.54 89.32h-13.72V37.34h12.72v7.38c2.19-3.49 4.16-5.77 5.91-6.86 1.75-1.08 3.74-1.62 5.96-1.62 3.13 0 6.15.87 9.06 2.59l-4.26 11.98c-2.32-1.5-4.47-2.25-6.46-2.25-1.93 0-3.57.53-4.9 1.59-1.34 1.06-2.39 2.97-3.16 5.74-.76 2.77-1.15 8.57-1.15 17.4v16.03z"/><path id="5" class="fil3" d="M479.61 53.37l-12.42-2.21c1.4-5.07 3.82-8.83 7.24-11.26 3.42-2.44 8.51-3.66 15.26-3.66 6.12 0 10.7.72 13.7 2.17 2.99 1.45 5.11 3.29 6.32 5.53 1.22 2.23 1.84 6.32 1.84 12.3l-.2 16.02c0 4.56.22 7.93.65 10.1.44 2.17 1.25 4.49 2.45 6.96h-13.61c-.35-.91-.81-2.24-1.32-4.01-.22-.82-.39-1.35-.49-1.6-2.33 2.3-4.84 4.02-7.51 5.17-2.67 1.15-5.5 1.74-8.53 1.74-5.32 0-9.52-1.46-12.6-4.36-3.07-2.89-4.6-6.56-4.6-11 0-2.92.7-5.54 2.1-7.84 1.4-2.29 3.36-4.06 5.89-5.28 2.52-1.21 6.16-2.28 10.92-3.2 6.41-1.2 10.86-2.34 13.33-3.37v-1.39c0-2.67-.65-4.57-1.95-5.72-1.32-1.14-3.79-1.7-7.41-1.7-2.45 0-4.36.48-5.73 1.47-1.38.96-2.48 2.68-3.33 5.14zm18.42 11.11c-1.75.59-4.54 1.29-8.36 2.1-3.8.82-6.31 1.62-7.48 2.39-1.78 1.29-2.68 2.89-2.68 4.84 0 1.94.71 3.59 2.15 4.99 1.44 1.4 3.25 2.1 5.47 2.1 2.47 0 4.84-.81 7.1-2.43 1.65-1.25 2.75-2.76 3.27-4.56.35-1.17.53-3.4.53-6.69v-2.74z"/><path id="6" class="fil3" d="M572.75 89.32h-12.72v-7.63c-2.12 2.97-4.64 5.19-7.52 6.69-2.89 1.49-5.81 2.24-8.75 2.24-5.99 0-11.11-2.41-15.39-7.23-4.25-4.82-6.39-11.53-6.39-20.16 0-8.81 2.07-15.52 6.23-20.11 4.15-4.59 9.39-6.88 15.73-6.88 5.81 0 10.85 2.42 15.09 7.25V17.62h13.72v71.7zM536.1 62.33c0 5.56.77 9.58 2.29 12.07 2.22 3.6 5.3 5.4 9.28 5.4 3.15 0 5.84-1.35 8.04-4.05 2.22-2.71 3.32-6.73 3.32-12.1 0-5.99-1.07-10.3-3.22-12.94-2.15-2.63-4.89-3.95-8.24-3.95-3.26 0-5.98 1.3-8.18 3.9-2.19 2.61-3.29 6.49-3.29 11.67z"/><path id="7" class="fil3" d="M616.29 72.89l13.72 2.31c-1.75 5.02-4.54 8.84-8.33 11.48-3.8 2.62-8.56 3.94-14.25 3.94-9.03 0-15.72-2.96-20.04-8.87-3.42-4.73-5.14-10.71-5.14-17.94 0-8.61 2.25-15.37 6.74-20.24 4.49-4.89 10.18-7.33 17.06-7.33 7.71 0 13.8 2.56 18.27 7.66 4.46 5.11 6.59 12.94 6.39 23.49h-34.34c.1 4.07 1.2 7.24 3.32 9.51 2.1 2.27 4.74 3.4 7.87 3.4 2.16 0 3.96-.58 5.41-1.75 1.47-1.17 2.57-3.05 3.32-5.66zm.8-13.92c-.1-3.98-1.11-7.02-3.07-9.09-1.95-2.09-4.32-3.12-7.12-3.12-2.99 0-5.46 1.1-7.41 3.28-1.96 2.19-2.91 5.18-2.87 8.93h20.47z"/><path id="8" class="fil2" d="M163.43 127.41l2.35-.23-.02.63c0 .69.15 1.33.47 1.9.32.57.84 1.02 1.57 1.33.74.32 1.61.47 2.62.47 1.43 0 2.52-.31 3.27-.94.75-.63 1.13-1.35 1.13-2.16 0-.56-.2-1.08-.6-1.54-.41-.46-1.52-1.08-3.33-1.86-1.41-.61-2.37-1.08-2.88-1.4-.81-.53-1.4-1.11-1.78-1.73a4.06 4.06 0 0 1-.58-2.14c0-.91.26-1.75.76-2.49.51-.74 1.25-1.31 2.22-1.7.97-.39 2.07-.58 3.29-.58 1.46 0 2.69.24 3.69.73 1.01.49 1.73 1.14 2.18 1.95.46.81.68 1.59.68 2.33v.37l-2.33.18c0-.51-.04-.9-.13-1.19a3.21 3.21 0 0 0-.75-1.26c-.35-.34-.81-.61-1.41-.82-.6-.21-1.27-.32-2.01-.32-1.3 0-2.3.3-3.03.88-.55.46-.83 1.05-.83 1.79 0 .45.12.84.35 1.19.22.35.63.69 1.23 1.02.42.24 1.42.71 3 1.41 1.29.57 2.17 1.02 2.66 1.34.65.44 1.15.96 1.5 1.57.35.62.53 1.31.53 2.1 0 .97-.3 1.86-.89 2.68-.59.82-1.41 1.45-2.45 1.9-1.04.45-2.23.67-3.58.67-2.03 0-3.68-.44-4.97-1.32-1.28-.88-1.92-2.47-1.93-4.76z"/><path id="9" class="fil2" d="M188.07 130.84c-1.55 1.75-3.15 2.63-4.78 2.63-1 0-1.81-.29-2.43-.86-.62-.57-.93-1.27-.93-2.1 0-.54.16-1.48.46-2.81l1.7-7.5h2.23l-1.89 8.41c-.16.7-.24 1.25-.24 1.64 0 .44.15.79.45 1.04.3.25.75.37 1.34.37.63 0 1.24-.15 1.84-.45.6-.3 1.12-.7 1.55-1.21.44-.51.79-1.11 1.07-1.81.18-.44.39-1.22.63-2.34l1.23-5.65h2.2l-2.87 12.99h-2.05l.49-2.35z"/><path id="10" class="fil2" d="M192.09 138.17l3.76-17.97h2.04l-.37 1.82c.75-.79 1.43-1.34 2.03-1.64.6-.31 1.24-.46 1.91-.46 1.24 0 2.26.45 3.08 1.35.81.9 1.22 2.19 1.22 3.86 0 1.35-.22 2.58-.67 3.69-.45 1.11-1 2.01-1.66 2.68-.65.68-1.31 1.17-1.98 1.49-.67.32-1.36.48-2.06.48-1.56 0-2.77-.8-3.63-2.38l-1.47 7.08h-2.2zm4.36-10.28c0 .97.08 1.64.21 2.01.21.53.55.95 1.01 1.28.47.32 1.01.48 1.62.48 1.27 0 2.3-.71 3.09-2.14.79-1.43 1.18-2.89 1.18-4.38 0-1.09-.26-1.94-.79-2.54-.53-.6-1.18-.9-1.97-.9-.57 0-1.09.15-1.57.45-.49.29-.93.74-1.34 1.33-.42.59-.76 1.32-1.03 2.18-.27.85-.41 1.6-.41 2.23z"/><path id="11" class="fil2" d="M206.02 138.17l3.75-17.97h2.05l-.38 1.82c.76-.79 1.44-1.34 2.04-1.64a4.04 4.04 0 0 1 1.9-.46c1.24 0 2.27.45 3.08 1.35.82.9 1.23 2.19 1.23 3.86 0 1.35-.23 2.58-.68 3.69-.45 1.11-1 2.01-1.65 2.68-.66.68-1.32 1.17-1.99 1.49-.67.32-1.35.48-2.06.48-1.56 0-2.77-.8-3.63-2.38l-1.46 7.08h-2.2zm4.36-10.28c0 .97.07 1.64.21 2.01.2.53.54.95 1 1.28.47.32 1.01.48 1.62.48 1.28 0 2.31-.71 3.1-2.14.78-1.43 1.17-2.89 1.17-4.38 0-1.09-.26-1.94-.79-2.54-.53-.6-1.18-.9-1.97-.9-.56 0-1.08.15-1.57.45-.48.29-.93.74-1.34 1.33-.41.59-.76 1.32-1.03 2.18-.27.85-.4 1.6-.4 2.23z"/><path id="12" class="fil2" d="M221.37 128.26c0-2.53.74-4.63 2.23-6.29 1.24-1.36 2.85-2.05 4.84-2.05 1.56 0 2.82.49 3.78 1.47.96.97 1.44 2.29 1.44 3.95 0 1.49-.3 2.87-.91 4.15-.6 1.29-1.46 2.27-2.57 2.95-1.11.68-2.28 1.03-3.51 1.03-1.01 0-1.93-.22-2.75-.65a4.477 4.477 0 0 1-1.9-1.83c-.44-.79-.65-1.7-.65-2.73zm2.2-.22c0 1.22.3 2.15.89 2.78.58.63 1.33.94 2.24.94.48 0 .95-.09 1.41-.28.47-.2.91-.48 1.31-.88.4-.39.74-.83 1.02-1.33.29-.51.52-1.04.69-1.62.25-.81.38-1.58.38-2.32 0-1.18-.3-2.09-.89-2.73-.6-.65-1.35-.97-2.25-.97-.69 0-1.33.16-1.9.49-.58.33-1.09.81-1.56 1.45-.46.63-.8 1.37-1.01 2.22-.22.84-.33 1.59-.33 2.25z"/><path id="13" class="fil2" d="M234.92 133.19l2.7-12.99h1.97l-.56 2.66c.68-1 1.33-1.74 1.98-2.22.64-.48 1.29-.72 1.96-.72.44 0 .98.16 1.62.48l-.9 2.05c-.38-.28-.81-.42-1.26-.42-.78 0-1.57.43-2.39 1.29-.82.87-1.47 2.42-1.94 4.66l-1.08 5.21h-2.1z"/><path id="14" class="fil2" d="M248.4 131.4l-.37 1.81c-.53.14-1.04.21-1.54.21-.88 0-1.57-.22-2.09-.65-.39-.33-.59-.78-.59-1.34 0-.28.11-.94.32-1.97l1.57-7.56h-1.75l.35-1.7h1.76l.67-3.18 2.53-1.53-1 4.71h2.18l-.38 1.7h-2.15l-1.5 7.19c-.19.91-.28 1.46-.28 1.64 0 .26.07.46.22.6.15.14.4.21.74.21.49 0 .93-.05 1.31-.14z"/><path id="15" class="fil2" d="M257.39 133.19l3.75-17.92h5.71c1.05 0 1.82.04 2.32.12.82.14 1.52.38 2.08.73.57.34 1.01.82 1.32 1.42.31.6.46 1.26.46 1.98 0 .99-.27 1.86-.81 2.61-.55.75-1.38 1.31-2.5 1.71.97.31 1.7.79 2.19 1.44.48.64.72 1.38.72 2.24 0 .99-.29 1.93-.87 2.83-.58.91-1.34 1.61-2.3 2.1-.95.49-2.02.74-3.19.74h-8.88zm4.52-10.26h3.82c1.82 0 3.13-.28 3.91-.84.78-.55 1.16-1.36 1.16-2.43 0-.5-.12-.94-.37-1.31-.25-.37-.58-.64-.99-.8-.42-.17-1.2-.26-2.34-.26h-4.01l-1.18 5.64zm-1.72 8.23h4.24c1.12 0 1.87-.03 2.26-.11.79-.13 1.43-.35 1.92-.66.49-.32.87-.73 1.15-1.25.28-.51.42-1.05.42-1.62 0-.83-.27-1.47-.81-1.91-.53-.44-1.58-.65-3.12-.65h-4.76l-1.3 6.2z"/><path id="16" class="fil2" d="M273.01 138.19l.12-2.09c.46.13.9.2 1.34.2.45 0 .81-.1 1.09-.31.36-.27.75-.77 1.18-1.51l.71-1.26-2.16-13.02h2.17l.98 6.53c.2 1.29.36 2.58.5 3.87l5.81-10.4h2.29l-8.27 14.69c-.8 1.44-1.51 2.39-2.12 2.86-.62.46-1.34.7-2.14.7-.51 0-1.01-.09-1.5-.26z"/><path id="17" class="fil2" d="M293.56 133.19l3.75-17.92h5.71c1.05 0 1.82.04 2.32.12.82.14 1.52.38 2.08.73.57.34 1.01.82 1.31 1.42.32.6.47 1.26.47 1.98 0 .99-.27 1.86-.82 2.61-.54.75-1.37 1.31-2.49 1.71.97.31 1.7.79 2.19 1.44.48.64.72 1.38.72 2.24 0 .99-.29 1.93-.87 2.83-.58.91-1.34 1.61-2.3 2.1-.95.49-2.02.74-3.2.74h-8.87zm4.52-10.26h3.82c1.82 0 3.13-.28 3.91-.84.78-.55 1.16-1.36 1.16-2.43 0-.5-.12-.94-.37-1.31-.25-.37-.58-.64-.99-.8-.42-.17-1.2-.26-2.34-.26h-4.01l-1.18 5.64zm-1.72 8.23h4.23c1.13 0 1.88-.03 2.27-.11.79-.13 1.43-.35 1.92-.66.49-.32.87-.73 1.15-1.25.28-.51.42-1.05.42-1.62 0-.83-.27-1.47-.81-1.91-.53-.44-1.58-.65-3.12-.65h-4.76l-1.3 6.2z"/><path id="18" class="fil2" d="M313.21 117.77l.52-2.5h2.2l-.52 2.5h-2.2zm-3.23 15.42l2.72-12.99h2.2l-2.72 12.99h-2.2z"/><path id="19" class="fil2" d="M315.56 133.19l2.73-12.99h2.01l-.46 2.27c.88-.89 1.7-1.53 2.47-1.94.77-.4 1.55-.61 2.35-.61 1.06 0 1.89.29 2.5.86.6.57.91 1.34.91 2.3 0 .48-.11 1.23-.34 2.27l-1.76 7.84h-2.19l1.82-8.21c.18-.81.27-1.39.27-1.78 0-.43-.15-.78-.45-1.04-.31-.28-.75-.41-1.32-.41-1.16 0-2.18.41-3.09 1.22-.9.81-1.57 2.21-1.99 4.18l-1.26 6.04h-2.2z"/><path id="20" class="fil2" d="M338.25 131.58c-.77.66-1.51 1.14-2.21 1.44-.71.3-1.47.45-2.28.45-1.2 0-2.16-.35-2.9-1.06-.73-.7-1.1-1.6-1.1-2.7 0-.72.17-1.36.5-1.92.33-.56.77-1 1.31-1.34.55-.34 1.21-.58 2.01-.73.5-.1 1.44-.17 2.84-.23 1.39-.06 2.39-.21 3-.44.17-.6.26-1.1.26-1.5 0-.52-.19-.92-.57-1.21-.51-.41-1.26-.61-2.26-.61-.93 0-1.69.2-2.29.61-.59.42-1.02 1-1.29 1.76l-2.23-.2c.45-1.28 1.18-2.27 2.17-2.95.98-.68 2.23-1.03 3.74-1.03 1.6 0 2.87.39 3.81 1.15.71.57 1.07 1.32 1.07 2.22 0 .7-.1 1.5-.3 2.41l-.71 3.23c-.23 1.02-.34 1.86-.34 2.5 0 .41.09.99.26 1.76h-2.23c-.12-.42-.21-.96-.26-1.61zm.83-4.97c-.31.12-.65.21-1 .28-.36.06-.96.13-1.79.21-1.29.11-2.19.25-2.72.43-.53.17-.93.45-1.2.84-.27.38-.4.8-.4 1.27 0 .62.21 1.13.64 1.52.42.4 1.03.6 1.83.6.73 0 1.44-.19 2.11-.58a4.22 4.22 0 0 0 1.61-1.61c.39-.7.7-1.68.92-2.96z"/><path id="21" class="fil2" d="M343.44 133.19l2.7-12.99h1.97l-.56 2.66c.68-1 1.34-1.74 1.98-2.22.64-.48 1.29-.72 1.96-.72.44 0 .98.16 1.62.48l-.9 2.05c-.38-.28-.81-.42-1.26-.42-.78 0-1.57.43-2.39 1.29-.82.87-1.47 2.42-1.94 4.66l-1.08 5.21h-2.1z"/><path id="22" class="fil2" d="M350.92 138.19l.13-2.09c.46.13.9.2 1.33.2.45 0 .82-.1 1.09-.31.36-.27.76-.77 1.18-1.51l.71-1.26-2.16-13.02h2.18l.97 6.53c.2 1.29.37 2.58.5 3.87l5.81-10.4h2.29l-8.27 14.69c-.79 1.44-1.5 2.39-2.12 2.86-.62.46-1.33.7-2.14.7-.51 0-1.01-.09-1.5-.26z"/><path id="23" class="fil2" d="M363.03 133.19l.53-2.5h2.5l-.54 2.5z"/><path id="24" class="fil2" d="M378.32 128.46l2.23.22c-.55 1.62-1.34 2.83-2.37 3.61a5.595 5.595 0 0 1-3.49 1.18c-1.41 0-2.56-.46-3.44-1.37-.87-.91-1.31-2.18-1.31-3.82 0-1.41.28-2.8.84-4.17.56-1.37 1.37-2.41 2.42-3.12 1.05-.71 2.25-1.07 3.59-1.07 1.39 0 2.5.4 3.32 1.18.81.79 1.22 1.83 1.22 3.13l-2.18.15c-.01-.82-.25-1.47-.72-1.93-.46-.47-1.09-.7-1.85-.7-.89 0-1.66.28-2.32.84-.65.56-1.16 1.41-1.53 2.56-.38 1.14-.56 2.24-.56 3.3 0 1.1.24 1.93.73 2.48.49.56 1.09.83 1.81.83s1.41-.27 2.07-.81c.65-.55 1.17-1.38 1.54-2.49z"/><path id="25" class="fil2" d="M382.28 128.26c0-2.53.75-4.63 2.24-6.29 1.23-1.36 2.84-2.05 4.84-2.05 1.56 0 2.82.49 3.78 1.47.95.97 1.43 2.29 1.43 3.95 0 1.49-.3 2.87-.9 4.15-.61 1.29-1.46 2.27-2.57 2.95-1.12.68-2.29 1.03-3.52 1.03-1.01 0-1.92-.22-2.75-.65a4.477 4.477 0 0 1-1.9-1.83c-.43-.79-.65-1.7-.65-2.73zm2.2-.22c0 1.22.3 2.15.89 2.78.59.63 1.34.94 2.25.94.47 0 .94-.09 1.41-.28.46-.2.9-.48 1.3-.88.4-.39.74-.83 1.02-1.33.29-.51.52-1.04.69-1.62.25-.81.38-1.58.38-2.32 0-1.18-.3-2.09-.89-2.73-.6-.65-1.34-.97-2.25-.97-.69 0-1.33.16-1.9.49-.57.33-1.09.81-1.55 1.45-.47.63-.81 1.37-1.02 2.22-.22.84-.33 1.59-.33 2.25z"/><path id="26" class="fil2" d="M395.8 133.19l2.72-12.99h2.2l-.45 2.15c.82-.92 1.56-1.55 2.21-1.9.65-.35 1.35-.53 2.11-.53.81 0 1.48.22 2.03.65.54.42.89 1.02 1.07 1.79.66-.82 1.35-1.43 2.09-1.83.73-.41 1.49-.61 2.3-.61 1.09 0 1.9.26 2.44.77.55.51.82 1.23.82 2.16 0 .4-.1 1.06-.29 1.98l-1.78 8.36h-2.2l1.8-8.57c.16-.7.23-1.2.23-1.5 0-.43-.13-.76-.4-1-.27-.25-.65-.37-1.14-.37-.67 0-1.34.2-2.03.6-.69.39-1.22.92-1.6 1.56-.38.65-.71 1.64-1 2.98l-1.32 6.3h-2.2l1.84-8.75c.13-.6.19-1.02.19-1.27 0-.43-.13-.77-.39-1.03-.27-.26-.62-.39-1.04-.39-.63 0-1.29.2-1.97.6-.7.4-1.26.95-1.69 1.66-.43.71-.79 1.73-1.06 3.04l-1.29 6.14h-2.2z"/><path fill="none" d="M0 0h636.03v151.21H0z"/></g></g></svg>