<svg xmlns="http://www.w3.org/2000/svg" width="1142" height="321" viewBox="0 0 313.47 88" shape-rendering="geometricPrecision" text-rendering="geometricPrecision" image-rendering="optimizeQuality" fill-rule="evenodd" clip-rule="evenodd"><defs><style>.fil0,.fil1{fill:#f08519;fill-rule:nonzero}.fil0{fill:#fefefe}</style></defs><g id="Layer_x0020_4"><g id="_1679461326432"><path class="fil0" d="M1.98 36.72l9.39-.94c.56 3.17 1.7 5.48 3.41 6.97 1.72 1.48 4.04 2.22 6.96 2.22 3.08 0 5.41-.66 6.98-1.98 1.56-1.32 2.35-2.86 2.35-4.62 0-1.14-.33-2.1-.99-2.91-.65-.79-1.81-1.49-3.45-2.07-1.12-.4-3.67-1.09-7.66-2.1-5.14-1.29-8.74-2.88-10.82-4.77-2.92-2.65-4.37-5.88-4.37-9.69 0-2.45.69-4.75 2.05-6.88 1.38-2.14 3.35-3.76 5.94-4.87 2.58-1.12 5.69-1.68 9.35-1.68 5.96 0 10.45 1.33 13.46 4 3.01 2.67 4.59 6.22 4.74 10.68l-9.65.34c-.41-2.48-1.29-4.26-2.63-5.34-1.34-1.09-3.36-1.63-6.04-1.63-2.78 0-4.95.58-6.51 1.74-1.01.75-1.52 1.74-1.52 2.99 0 1.14.47 2.12 1.43 2.92 1.21 1.04 4.15 2.11 8.82 3.23 4.67 1.11 8.12 2.27 10.35 3.45 2.24 1.2 3.99 2.82 5.25 4.89 1.27 2.06 1.9 4.61 1.9 7.64 0 2.75-.75 5.33-2.27 7.73-1.52 2.41-3.66 4.19-6.44 5.36-2.77 1.17-6.23 1.75-10.37 1.75-6.02 0-10.65-1.4-13.88-4.2-3.23-2.79-5.14-6.87-5.78-12.23z"/><path id="1" class="fil0" d="M91.84 52.28h-10.4l-4.11-10.93H58.21l-3.96 10.93h-10.2l18.5-48.01h10.2l19.09 48.01zM74.2 33.24l-6.62-17.77-6.44 17.77H74.2z"/><path id="2" class="fil0" d="M94.44 36.72l9.39-.94c.56 3.17 1.7 5.48 3.42 6.97 1.72 1.48 4.03 2.22 6.95 2.22 3.08 0 5.41-.66 6.98-1.98 1.56-1.32 2.35-2.86 2.35-4.62 0-1.14-.33-2.1-.99-2.91-.65-.79-1.81-1.49-3.45-2.07-1.12-.4-3.67-1.09-7.66-2.1-5.14-1.29-8.74-2.88-10.82-4.77-2.92-2.65-4.37-5.88-4.37-9.69 0-2.45.69-4.75 2.05-6.88 1.38-2.14 3.35-3.76 5.94-4.87 2.58-1.12 5.69-1.68 9.35-1.68 5.96 0 10.45 1.33 13.46 4 3.01 2.67 4.59 6.22 4.74 10.68l-9.65.34c-.41-2.48-1.28-4.26-2.63-5.34-1.34-1.09-3.36-1.63-6.04-1.63-2.78 0-4.95.58-6.51 1.74-1.01.75-1.52 1.74-1.52 2.99 0 1.14.47 2.12 1.43 2.92 1.21 1.04 4.15 2.11 8.82 3.23 4.67 1.11 8.12 2.27 10.35 3.45 2.24 1.2 3.99 2.82 5.25 4.89 1.27 2.06 1.9 4.61 1.9 7.64 0 2.75-.75 5.33-2.27 7.73-1.52 2.41-3.66 4.19-6.44 5.36-2.77 1.17-6.23 1.75-10.37 1.75-6.02 0-10.65-1.4-13.88-4.2-3.22-2.79-5.14-6.87-5.78-12.23z"/><path id="3" class="fil1" d="M152.08 52.28v-39.9h-14.11V4.27h37.81v8.11h-14.04v39.9z"/><path id="4" class="fil1" d="M187.01 52.28h-9.12v-34.8h8.45v4.94c1.45-2.34 2.76-3.87 3.93-4.59 1.16-.73 2.48-1.09 3.96-1.09 2.08 0 4.09.58 6.02 1.73l-2.83 8.03c-1.54-1.01-2.97-1.51-4.29-1.51-1.29 0-2.38.36-3.26 1.06-.89.72-1.59 1.99-2.1 3.85-.51 1.85-.76 5.74-.76 11.65v10.73z"/><path id="5" class="fil1" d="M210.98 28.21l-8.26-1.48c.94-3.39 2.54-5.91 4.82-7.54 2.27-1.63 5.66-2.45 10.14-2.45 4.07 0 7.11.48 9.1 1.46 1.99.97 3.4 2.2 4.21 3.69.81 1.5 1.22 4.24 1.22 8.24l-.13 10.73c0 3.05.14 5.31.43 6.76.29 1.45.83 3.01 1.63 4.66h-9.05c-.24-.6-.54-1.5-.88-2.68-.14-.55-.25-.91-.32-1.08-1.55 1.55-3.22 2.7-4.99 3.47-1.78.77-3.66 1.16-5.67 1.16-3.54 0-6.34-.97-8.38-2.92-2.04-1.93-3.06-4.39-3.06-7.36 0-1.96.47-3.71 1.4-5.25.93-1.53 2.23-2.72 3.92-3.53 1.67-.82 4.09-1.53 7.25-2.15 4.26-.8 7.22-1.56 8.86-2.26v-.92c0-1.79-.43-3.07-1.29-3.84-.88-.76-2.52-1.14-4.93-1.14-1.63 0-2.89.33-3.8.99-.93.64-1.66 1.8-2.22 3.44zm12.24 7.44c-1.16.39-3.01.86-5.55 1.41-2.53.55-4.2 1.08-4.97 1.6-1.19.86-1.79 1.93-1.79 3.24 0 1.29.48 2.4 1.43 3.34.96.94 2.16 1.41 3.64 1.41 1.64 0 3.22-.55 4.71-1.63 1.1-.84 1.83-1.85 2.18-3.06.23-.78.35-2.28.35-4.48v-1.83z"/><path id="6" class="fil1" d="M272.89 52.28h-8.46v-5.11c-1.4 1.99-3.08 3.48-5 4.48-1.92 1-3.86 1.5-5.81 1.5-3.98 0-7.39-1.61-10.23-4.84-2.83-3.23-4.25-7.72-4.25-13.5 0-5.9 1.38-10.39 4.14-13.46 2.76-3.08 6.25-4.61 10.46-4.61 3.86 0 7.21 1.62 10.03 4.85V4.27h9.12v48.01zm-24.36-18.07c0 3.72.51 6.41 1.52 8.08 1.47 2.41 3.52 3.62 6.16 3.62 2.1 0 3.89-.91 5.35-2.72 1.48-1.81 2.21-4.5 2.21-8.1 0-4.01-.71-6.89-2.14-8.66-1.43-1.76-3.25-2.65-5.48-2.65-2.17 0-3.97.87-5.44 2.62-1.45 1.74-2.18 4.34-2.18 7.81z"/><path id="7" class="fil1" d="M301.83 41.28l9.12 1.54c-1.17 3.37-3.02 5.93-5.54 7.69-2.53 1.76-5.69 2.64-9.47 2.64-6 0-10.45-1.98-13.32-5.93-2.28-3.18-3.42-7.18-3.42-12.02 0-5.76 1.5-10.29 4.48-13.55 2.98-3.28 6.77-4.91 11.34-4.91 5.12 0 9.17 1.71 12.14 5.13 2.97 3.42 4.39 8.66 4.25 15.73h-22.83c.07 2.72.8 4.85 2.21 6.36 1.4 1.52 3.15 2.28 5.24 2.28 1.43 0 2.63-.39 3.59-1.17.98-.78 1.71-2.04 2.21-3.79zm.53-9.32c-.06-2.67-.74-4.7-2.04-6.09-1.3-1.39-2.87-2.09-4.74-2.09-1.98 0-3.62.74-4.92 2.2-1.3 1.47-1.93 3.47-1.91 5.98h13.61z"/><path id="8" class="fil0" d="M.82 77.79l1.56-.15-.01.42c0 .46.1.88.31 1.27.21.38.56.68 1.05.89.49.21 1.06.32 1.73.32.95 0 1.68-.21 2.18-.64.5-.42.75-.9.75-1.44 0-.38-.13-.72-.4-1.03-.27-.31-1.01-.72-2.21-1.25-.94-.41-1.58-.72-1.92-.94-.53-.35-.93-.74-1.18-1.16-.25-.41-.38-.89-.38-1.43 0-.61.17-1.17.5-1.66.34-.5.83-.88 1.48-1.14.64-.26 1.37-.39 2.18-.39.98 0 1.79.16 2.46.48.66.33 1.15.77 1.45 1.31.3.55.45 1.07.45 1.56v.25l-1.55.12c0-.34-.03-.6-.09-.79-.11-.34-.27-.62-.5-.85-.23-.23-.54-.41-.93-.55-.4-.14-.84-.21-1.34-.21-.86 0-1.53.2-2.01.59-.37.3-.55.7-.55 1.2 0 .29.07.56.22.79.15.23.43.46.82.69.28.16.95.47 2 .94.86.38 1.44.68 1.77.9.43.29.76.64.99 1.05.24.41.35.88.35 1.4 0 .65-.19 1.25-.58 1.8-.4.55-.94.97-1.63 1.27-.7.3-1.49.45-2.38.45-1.35 0-2.45-.3-3.3-.89-.86-.58-1.29-1.65-1.29-3.18z"/><path id="9" class="fil0" d="M17.2 80.09c-1.03 1.17-2.1 1.75-3.18 1.75-.67 0-1.2-.19-1.61-.57-.41-.38-.62-.85-.62-1.4 0-.37.1-1 .3-1.89l1.14-5.02h1.47l-1.25 5.63c-.11.47-.16.84-.16 1.1 0 .3.1.53.3.7.2.16.5.25.89.25.42 0 .83-.1 1.23-.31.4-.2.74-.47 1.03-.81.29-.34.52-.74.7-1.21.12-.3.27-.82.42-1.57l.82-3.78h1.47l-1.91 8.7h-1.36l.32-1.57z"/><path id="10" class="fil0" d="M19.87 84.99l2.5-12.03h1.36l-.25 1.22c.5-.53.95-.9 1.35-1.1.4-.2.82-.31 1.27-.31.82 0 1.5.31 2.05.91.54.6.81 1.46.81 2.58 0 .91-.15 1.73-.45 2.47-.3.75-.66 1.34-1.1 1.8-.43.45-.87.78-1.32.99-.44.22-.9.32-1.37.32-1.03 0-1.84-.53-2.41-1.59l-.97 4.74h-1.47zm2.9-6.88c0 .65.05 1.1.14 1.34a1.84 1.84 0 0 0 1.75 1.19c.84 0 1.53-.48 2.05-1.44.52-.96.78-1.93.78-2.93 0-.73-.17-1.3-.52-1.7-.35-.4-.79-.61-1.31-.61-.38 0-.72.11-1.04.3-.33.2-.62.5-.9.9-.27.39-.5.88-.68 1.45-.18.58-.27 1.08-.27 1.5z"/><path id="11" class="fil0" d="M29.13 84.99l2.49-12.03h1.36l-.25 1.22c.51-.53.96-.9 1.36-1.1.39-.2.82-.31 1.26-.31.83 0 1.51.31 2.05.91.54.6.81 1.46.81 2.58 0 .91-.15 1.73-.45 2.47-.29.75-.66 1.34-1.09 1.8-.44.45-.88.78-1.32.99-.45.22-.91.32-1.37.32-1.04 0-1.84-.53-2.41-1.59l-.98 4.74h-1.46zm2.9-6.88c0 .65.04 1.1.14 1.34a1.818 1.818 0 0 0 1.74 1.19c.85 0 1.53-.48 2.06-1.44.52-.96.78-1.93.78-2.93 0-.73-.18-1.3-.53-1.7-.35-.4-.78-.61-1.31-.61-.37 0-.72.11-1.04.3-.32.2-.62.5-.89.9-.28.39-.5.88-.68 1.45-.18.58-.27 1.08-.27 1.5z"/><path id="12" class="fil0" d="M39.33 78.35c0-1.69.5-3.09 1.49-4.2.82-.92 1.89-1.38 3.21-1.38 1.04 0 1.88.33 2.52.99.63.65.95 1.53.95 2.64 0 1-.2 1.93-.6 2.78-.4.86-.97 1.52-1.71 1.98-.74.45-1.52.68-2.33.68-.67 0-1.29-.14-1.83-.43-.56-.29-.97-.7-1.26-1.23-.29-.52-.44-1.13-.44-1.83zm1.47-.14c0 .82.19 1.44.58 1.86.39.42.89.63 1.5.63.31 0 .63-.06.94-.19.31-.13.59-.32.86-.58.27-.27.5-.56.68-.9.19-.34.34-.7.46-1.08.17-.54.25-1.06.25-1.56 0-.78-.2-1.39-.59-1.82-.4-.44-.89-.66-1.49-.66-.47 0-.89.12-1.27.34-.38.22-.72.54-1.03.97-.31.42-.53.92-.68 1.48-.14.56-.21 1.07-.21 1.51z"/><path id="13" class="fil0" d="M48.34 81.66l1.79-8.7h1.32l-.38 1.78c.45-.67.89-1.16 1.31-1.48.43-.33.86-.49 1.31-.49.29 0 .65.11 1.08.32l-.6 1.38c-.26-.19-.54-.29-.84-.29-.51 0-1.04.29-1.59.87-.54.58-.97 1.62-1.29 3.12l-.72 3.49h-1.39z"/><path id="14" class="fil0" d="M57.3 80.46l-.24 1.21c-.36.09-.7.14-1.03.14-.58 0-1.05-.15-1.39-.44-.26-.21-.39-.51-.39-.89 0-.19.07-.63.21-1.32l1.05-5.06h-1.17l.24-1.14h1.16l.45-2.13 1.68-1.02-.66 3.15h1.44l-.25 1.14h-1.43l-1 4.81c-.12.61-.18.98-.18 1.1 0 .18.05.31.15.4.1.1.26.14.49.14.32 0 .61-.03.87-.09z"/><path id="15" class="fil0" d="M63.27 81.66l2.5-12h3.8c.69 0 1.2.02 1.53.08.55.09 1.01.25 1.39.49.38.23.67.55.87.95.21.4.31.84.31 1.33 0 .66-.18 1.24-.54 1.74-.36.5-.92.88-1.66 1.15.65.21 1.13.53 1.45.96.33.43.49.93.49 1.5 0 .66-.19 1.29-.58 1.9-.39.61-.9 1.08-1.53 1.4-.64.33-1.34.5-2.13.5h-5.9zm3.01-6.87h2.54c1.21 0 2.08-.19 2.6-.56.51-.37.77-.92.77-1.63 0-.34-.08-.63-.24-.88a1.51 1.51 0 0 0-.66-.54c-.28-.11-.8-.17-1.56-.17h-2.66l-.79 3.78zm-1.14 5.51h2.81c.75 0 1.25-.02 1.51-.07.52-.09.95-.24 1.27-.45.33-.21.58-.49.77-.83.18-.35.28-.71.28-1.08 0-.57-.18-.99-.54-1.29-.36-.29-1.05-.44-2.08-.44H66l-.86 4.16z"/><path id="16" class="fil0" d="M73.66 85.01l.08-1.4c.3.08.6.13.89.13.3 0 .54-.07.72-.21.24-.18.5-.51.79-1.01l.47-.84-1.44-8.72h1.45l.65 4.37c.13.87.24 1.73.33 2.59l3.86-6.96h1.52l-5.49 9.84c-.53.96-1.01 1.6-1.42 1.91-.41.31-.88.47-1.42.47-.34 0-.67-.06-.99-.17z"/><path id="17" class="fil0" d="M87.31 81.66l2.5-12h3.8c.69 0 1.2.02 1.54.08.54.09 1.01.25 1.38.49.38.23.67.55.87.95.21.4.31.84.31 1.33 0 .66-.18 1.24-.54 1.74-.36.5-.91.88-1.66 1.15.65.21 1.13.53 1.46.96.32.43.48.93.48 1.5 0 .66-.19 1.29-.58 1.9-.38.61-.89 1.08-1.53 1.4-.63.33-1.34.5-2.12.5h-5.91zm3.01-6.87h2.54c1.21 0 2.08-.19 2.6-.56.52-.37.77-.92.77-1.63 0-.34-.08-.63-.24-.88a1.51 1.51 0 0 0-.66-.54c-.28-.11-.8-.17-1.56-.17h-2.66l-.79 3.78zm-1.14 5.51h2.81c.75 0 1.25-.02 1.51-.07.52-.09.95-.24 1.27-.45.33-.21.58-.49.77-.83.19-.35.28-.71.28-1.08 0-.57-.18-.99-.54-1.29-.36-.29-1.05-.44-2.07-.44h-3.17l-.86 4.16z"/><path id="18" class="fil0" d="M100.38 71.33l.35-1.67h1.46l-.35 1.67h-1.46zm-2.15 10.33l1.81-8.7h1.46l-1.81 8.7h-1.46z"/><path id="19" class="fil0" d="M101.94 81.66l1.81-8.7h1.34l-.31 1.52c.59-.59 1.14-1.03 1.65-1.3s1.02-.41 1.56-.41c.7 0 1.26.2 1.66.58.4.38.61.89.61 1.54 0 .32-.08.82-.23 1.52l-1.17 5.25h-1.46l1.21-5.5c.12-.54.18-.93.18-1.19 0-.29-.1-.52-.3-.7-.2-.18-.49-.27-.87-.27-.77 0-1.45.27-2.06.81-.6.55-1.04 1.48-1.32 2.8l-.83 4.05h-1.47z"/><path id="20" class="fil0" d="M117.02 80.58c-.51.44-1 .76-1.47.96-.47.2-.97.3-1.51.3-.8 0-1.44-.23-1.93-.7-.48-.47-.73-1.08-.73-1.81 0-.49.11-.91.33-1.29.22-.37.51-.67.87-.9.37-.22.81-.38 1.34-.48.33-.07.96-.12 1.88-.16.93-.04 1.6-.14 2-.29.11-.41.17-.74.17-1.01 0-.34-.12-.61-.37-.81-.35-.27-.85-.41-1.51-.41-.62 0-1.12.14-1.52.42-.39.27-.68.67-.86 1.17l-1.48-.13c.3-.86.78-1.52 1.44-1.98.66-.46 1.49-.69 2.49-.69 1.06 0 1.91.26 2.53.77.47.39.71.88.71 1.49 0 .47-.06 1-.2 1.61l-.47 2.16c-.15.69-.23 1.25-.23 1.68 0 .27.06.67.18 1.18h-1.49c-.08-.29-.13-.64-.17-1.08zm.55-3.33c-.2.08-.43.15-.66.19-.24.04-.64.09-1.19.14-.86.07-1.46.17-1.81.29-.35.12-.62.3-.8.56-.18.26-.26.54-.26.85 0 .42.14.76.42 1.02.29.27.69.4 1.22.4.49 0 .95-.13 1.4-.38.45-.26.81-.62 1.07-1.09.26-.46.47-1.12.61-1.98z"/><path id="21" class="fil0" d="M120.47 81.66l1.8-8.7h1.31l-.37 1.78c.45-.67.88-1.16 1.31-1.48.42-.33.86-.49 1.3-.49.29 0 .65.11 1.08.32l-.6 1.38c-.25-.19-.53-.29-.84-.29-.51 0-1.04.29-1.58.87-.55.58-.98 1.62-1.29 3.12l-.72 3.49h-1.4z"/><path id="22" class="fil0" d="M125.45 85.01l.08-1.4c.3.08.6.13.89.13.3 0 .54-.07.72-.21.24-.18.5-.51.78-1.01l.48-.84-1.44-8.72h1.45l.65 4.37c.13.87.24 1.73.33 2.59l3.86-6.96h1.52l-5.5 9.84c-.52.96-1 1.6-1.41 1.91-.41.31-.88.47-1.42.47-.34 0-.67-.06-.99-.17z"/><path id="23" class="fil0" d="M133.5 81.66l.35-1.68h1.66l-.36 1.68z"/><path id="24" class="fil0" d="M143.66 78.49l1.48.15c-.37 1.09-.89 1.89-1.57 2.42-.68.52-1.46.78-2.33.78-.94 0-1.7-.3-2.28-.91-.58-.61-.87-1.46-.87-2.56 0-.95.18-1.88.56-2.79.37-.92.91-1.62 1.6-2.09.7-.48 1.5-.72 2.39-.72.93 0 1.66.27 2.2.8.54.52.82 1.22.82 2.09l-1.45.1c-.01-.55-.16-.98-.48-1.3-.31-.31-.72-.46-1.23-.46a2.3 2.3 0 0 0-1.54.56c-.43.38-.78.95-1.02 1.71-.25.77-.37 1.51-.37 2.21 0 .74.16 1.3.48 1.67.33.37.73.55 1.21.55s.93-.18 1.37-.54c.44-.37.78-.92 1.03-1.67z"/><path id="25" class="fil0" d="M146.29 78.35c0-1.69.5-3.09 1.49-4.2.81-.92 1.88-1.38 3.21-1.38 1.04 0 1.88.33 2.51.99.64.65.96 1.53.96 2.64 0 1-.2 1.93-.6 2.78-.4.86-.97 1.52-1.71 1.98-.74.45-1.52.68-2.34.68-.67 0-1.28-.14-1.83-.43s-.97-.7-1.26-1.23c-.29-.52-.43-1.13-.43-1.83zm1.46-.14c0 .82.2 1.44.59 1.86.39.42.89.63 1.5.63.31 0 .63-.06.93-.19.31-.13.6-.32.87-.58.27-.27.5-.56.68-.9.19-.34.34-.7.46-1.08.16-.54.25-1.06.25-1.56 0-.78-.2-1.39-.59-1.82-.4-.44-.9-.66-1.49-.66-.47 0-.89.12-1.27.34-.38.22-.73.54-1.03.97-.31.42-.54.92-.68 1.48-.14.56-.22 1.07-.22 1.51z"/><path id="26" class="fil0" d="M155.28 81.66l1.81-8.7h1.46l-.3 1.44c.54-.62 1.03-1.04 1.46-1.27.44-.24.9-.36 1.41-.36.54 0 .99.15 1.35.43.36.29.59.69.71 1.2.44-.54.9-.95 1.38-1.22.49-.27 1-.41 1.54-.41.72 0 1.26.18 1.62.52.36.34.54.82.54 1.44 0 .27-.06.71-.19 1.33l-1.18 5.6h-1.46l1.19-5.74c.11-.47.16-.8.16-1.01 0-.28-.09-.5-.27-.67-.18-.16-.43-.24-.76-.24-.44 0-.89.13-1.35.4-.45.26-.81.61-1.06 1.05-.25.43-.48 1.09-.67 1.99l-.87 4.22h-1.46l1.22-5.86c.08-.4.13-.68.13-.85 0-.29-.09-.52-.27-.69-.17-.17-.4-.26-.69-.26-.41 0-.85.13-1.31.4-.46.27-.83.64-1.12 1.11-.29.48-.52 1.16-.71 2.04l-.85 4.11h-1.46z"/><path fill="none" d="M0 0h313.47v88H0z"/></g></g></svg>