<svg xmlns="http://www.w3.org/2000/svg" width="1142" height="314" viewBox="0 0 314.75 86.68" shape-rendering="geometricPrecision" text-rendering="geometricPrecision" image-rendering="optimizeQuality" fill-rule="evenodd" clip-rule="evenodd"><defs><style>.fil0,.fil1{fill:#102c63;fill-rule:nonzero}.fil1{fill:#f08519}</style></defs><g id="Layer_x0020_4"><g id="_1679431934720"><path class="fil0" d="M2.41 36.19l9.43-.94c.56 3.18 1.7 5.5 3.43 6.99 1.72 1.49 4.05 2.24 6.98 2.24 3.1 0 5.44-.67 7.01-1.99 1.57-1.32 2.36-2.87 2.36-4.65 0-1.14-.34-2.11-.99-2.91-.66-.8-1.82-1.5-3.47-2.08-1.12-.4-3.68-1.1-7.69-2.11-5.16-1.3-8.78-2.89-10.86-4.79-2.93-2.66-4.39-5.9-4.39-9.73 0-2.46.69-4.77 2.06-6.91 1.38-2.14 3.36-3.77 5.96-4.89 2.59-1.13 5.71-1.69 9.39-1.69 5.98 0 10.49 1.34 13.51 4.02 3.03 2.68 4.61 6.25 4.77 10.73l-9.7.33c-.41-2.49-1.29-4.27-2.63-5.36-1.35-1.09-3.38-1.64-6.08-1.64-2.78 0-4.96.59-6.53 1.75-1.02.75-1.53 1.75-1.53 3.01 0 1.14.48 2.12 1.44 2.93 1.21 1.04 4.16 2.12 8.85 3.24 4.69 1.11 8.16 2.28 10.39 3.47 2.25 1.2 4.01 2.83 5.28 4.9 1.27 2.08 1.91 4.64 1.91 7.68 0 2.76-.76 5.35-2.28 7.76-1.53 2.41-3.68 4.21-6.47 5.38-2.78 1.18-6.25 1.76-10.41 1.76-6.05 0-10.69-1.4-13.93-4.22-3.25-2.81-5.17-6.9-5.81-12.28z"/><path id="1" class="fil0" d="M92.63 51.81H82.2l-4.13-10.97h-19.2L54.9 51.81H44.65l18.58-48.2h10.24l19.16 48.2zM74.92 32.69l-6.64-17.84-6.47 17.84h13.11z"/><path id="2" class="fil0" d="M95.25 36.19l9.43-.94c.56 3.18 1.7 5.5 3.43 6.99 1.72 1.49 4.05 2.24 6.98 2.24 3.1 0 5.44-.67 7.01-1.99 1.57-1.32 2.36-2.87 2.36-4.65 0-1.14-.34-2.11-.99-2.91-.66-.8-1.82-1.5-3.47-2.08-1.12-.4-3.68-1.1-7.69-2.11-5.16-1.3-8.78-2.89-10.86-4.79-2.93-2.66-4.39-5.9-4.39-9.73 0-2.46.69-4.77 2.06-6.91 1.38-2.14 3.36-3.77 5.96-4.89 2.59-1.13 5.71-1.69 9.39-1.69 5.98 0 10.49 1.34 13.51 4.02 3.03 2.68 4.61 6.25 4.76 10.73l-9.69.33c-.41-2.49-1.29-4.27-2.64-5.36-1.34-1.09-3.37-1.64-6.07-1.64-2.78 0-4.96.59-6.53 1.75-1.02.75-1.53 1.75-1.53 3.01 0 1.14.48 2.12 1.44 2.93 1.21 1.04 4.16 2.12 8.85 3.24 4.69 1.11 8.15 2.28 10.39 3.47 2.25 1.2 4.01 2.83 5.28 4.9 1.27 2.08 1.91 4.64 1.91 7.68 0 2.76-.76 5.35-2.29 7.76-1.52 2.41-3.67 4.21-6.46 5.38-2.78 1.18-6.26 1.76-10.41 1.76-6.05 0-10.69-1.4-13.93-4.22-3.25-2.81-5.17-6.9-5.81-12.28z"/><path id="3" class="fil1" d="M153.13 51.81V11.76h-14.17V3.61h37.96v8.15h-14.1v40.05z"/><path id="4" class="fil1" d="M188.19 51.81h-9.15V16.87h8.48v4.96c1.46-2.34 2.78-3.88 3.95-4.61 1.17-.73 2.49-1.09 3.97-1.09 2.1 0 4.11.58 6.05 1.74l-2.84 8.06c-1.55-1.01-2.98-1.52-4.31-1.52-1.29 0-2.38.36-3.27 1.07-.9.72-1.6 2-2.11 3.86-.51 1.86-.77 5.77-.77 11.7v10.77z"/><path id="5" class="fil1" d="M212.26 27.64l-8.29-1.48c.94-3.41 2.56-5.93 4.84-7.57 2.28-1.64 5.68-2.46 10.18-2.46 4.09 0 7.14.48 9.14 1.46 2 .98 3.41 2.21 4.23 3.71.81 1.51 1.22 4.26 1.22 8.27l-.13 10.78c0 3.06.14 5.33.43 6.78.29 1.46.84 3.02 1.64 4.68h-9.09c-.23-.6-.53-1.5-.88-2.69-.14-.55-.26-.91-.32-1.08-1.56 1.55-3.23 2.71-5.02 3.48-1.78.78-3.67 1.17-5.69 1.17-3.55 0-6.36-.98-8.41-2.93-2.05-1.94-3.07-4.41-3.07-7.39 0-1.97.47-3.73 1.4-5.28a9.124 9.124 0 0 1 3.93-3.54c1.69-.82 4.11-1.54 7.29-2.16 4.28-.81 7.25-1.57 8.9-2.27v-.93c0-1.79-.44-3.07-1.3-3.85-.88-.76-2.53-1.14-4.95-1.14-1.64 0-2.91.33-3.82.99-.93.65-1.66 1.8-2.23 3.45zm12.3 7.48c-1.17.39-3.03.86-5.58 1.41-2.54.55-4.21 1.09-4.99 1.61-1.19.86-1.79 1.94-1.79 3.25 0 1.3.47 2.41 1.43 3.35.96.95 2.17 1.42 3.66 1.42 1.64 0 3.23-.55 4.73-1.64 1.1-.84 1.84-1.85 2.18-3.06.24-.79.36-2.29.36-4.5v-1.84z"/><path id="6" class="fil1" d="M274.43 51.81h-8.49v-5.12c-1.42 1.99-3.1 3.49-5.03 4.5-1.92.99-3.87 1.5-5.83 1.5-4 0-7.42-1.62-10.27-4.86-2.84-3.24-4.27-7.75-4.27-13.55 0-5.93 1.38-10.44 4.16-13.53 2.77-3.08 6.27-4.62 10.5-4.62 3.88 0 7.24 1.63 10.07 4.87V3.61h9.16v48.2zm-24.46-18.14c0 3.74.51 6.44 1.52 8.11 1.48 2.43 3.54 3.64 6.19 3.64 2.11 0 3.9-.91 5.37-2.73 1.48-1.82 2.22-4.52 2.22-8.13 0-4.03-.71-6.93-2.15-8.7-1.44-1.77-3.26-2.66-5.5-2.66-2.17 0-3.99.88-5.46 2.63-1.46 1.75-2.19 4.36-2.19 7.84z"/><path id="7" class="fil1" d="M303.49 40.77l9.15 1.55c-1.17 3.38-3.03 5.95-5.56 7.72-2.54 1.76-5.71 2.65-9.51 2.65-6.02 0-10.49-1.99-13.38-5.96-2.28-3.19-3.43-7.2-3.43-12.06 0-5.79 1.51-10.34 4.5-13.61 3-3.29 6.8-4.93 11.39-4.93 5.14 0 9.21 1.72 12.19 5.15 2.98 3.44 4.4 8.7 4.27 15.79h-22.92c.06 2.74.8 4.87 2.21 6.4 1.41 1.52 3.17 2.28 5.26 2.28 1.44 0 2.64-.39 3.61-1.17.98-.79 1.71-2.06 2.22-3.81zm.53-9.36c-.07-2.68-.75-4.72-2.05-6.11-1.3-1.4-2.88-2.1-4.75-2.1-2 0-3.65.74-4.95 2.21-1.3 1.47-1.94 3.48-1.92 6h13.67z"/><path id="8" class="fil0" d="M1.24 77.43l1.57-.16-.01.43c0 .46.1.89.31 1.27.22.39.57.69 1.05.9.49.21 1.07.32 1.75.32.95 0 1.68-.21 2.18-.64.5-.42.76-.9.76-1.45 0-.38-.14-.72-.4-1.04-.28-.3-1.02-.72-2.23-1.25-.94-.41-1.58-.72-1.92-.94-.54-.36-.93-.74-1.19-1.16-.25-.42-.38-.9-.38-1.44 0-.61.17-1.18.51-1.67.33-.5.83-.88 1.48-1.14.64-.27 1.38-.4 2.19-.4.98 0 1.8.16 2.47.49.67.33 1.15.77 1.45 1.31.3.55.45 1.08.45 1.57v.25l-1.55.12c0-.34-.03-.6-.09-.8-.11-.33-.27-.61-.5-.84-.23-.23-.54-.42-.94-.56-.4-.14-.84-.21-1.34-.21-.87 0-1.54.2-2.02.59-.37.3-.56.71-.56 1.21 0 .29.08.56.23.79.15.23.43.47.82.69.29.16.96.47 2.01.94.86.39 1.45.69 1.78.91.43.29.76.64 1 1.05.23.42.35.89.35 1.41 0 .65-.2 1.25-.59 1.8-.4.56-.95.98-1.64 1.28-.69.3-1.49.46-2.39.46-1.35 0-2.46-.3-3.31-.89-.86-.6-1.29-1.66-1.3-3.2z"/><path id="9" class="fil0" d="M17.69 79.73c-1.04 1.18-2.1 1.77-3.19 1.77-.67 0-1.21-.19-1.62-.58a1.85 1.85 0 0 1-.62-1.41c0-.36.1-.99.3-1.89l1.14-5.04h1.49l-1.27 5.65c-.1.47-.15.84-.15 1.1 0 .3.1.54.3.7.2.17.5.26.89.26.42 0 .83-.1 1.23-.31.4-.2.75-.47 1.04-.81.29-.34.52-.75.71-1.22.12-.3.26-.82.42-1.57l.82-3.8h1.47l-1.92 8.73h-1.36l.32-1.58z"/><path id="10" class="fil0" d="M20.38 84.66l2.5-12.08h1.37L24 73.8c.5-.53.95-.9 1.36-1.1.39-.21.82-.31 1.27-.31.82 0 1.51.31 2.05.91.55.61.82 1.47.82 2.6 0 .9-.15 1.73-.45 2.48-.3.74-.67 1.34-1.1 1.8-.44.45-.88.79-1.33 1-.45.21-.91.32-1.37.32-1.04 0-1.85-.53-2.43-1.6l-.98 4.76h-1.46zm2.91-6.91c0 .65.04 1.1.14 1.35.13.36.36.64.67.86.31.22.67.33 1.08.33.85 0 1.54-.48 2.06-1.44.53-.96.79-1.95.79-2.95 0-.74-.18-1.3-.53-1.71-.35-.4-.79-.6-1.31-.6-.38 0-.73.1-1.05.3-.32.2-.62.5-.9.9-.27.39-.5.88-.68 1.46-.18.57-.27 1.07-.27 1.5z"/><path id="11" class="fil0" d="M29.67 84.66l2.51-12.08h1.36l-.25 1.22c.5-.53.96-.9 1.36-1.1.4-.21.82-.31 1.27-.31.82 0 1.51.31 2.06.91.54.61.81 1.47.81 2.6 0 .9-.15 1.73-.45 2.48-.3.74-.67 1.34-1.1 1.8-.44.45-.88.79-1.33 1-.44.21-.9.32-1.37.32-1.04 0-1.85-.53-2.42-1.6l-.98 4.76h-1.47zm2.91-6.91c0 .65.05 1.1.14 1.35.13.36.36.64.67.86.31.22.67.33 1.08.33.85 0 1.54-.48 2.07-1.44.52-.96.78-1.95.78-2.95 0-.74-.17-1.3-.53-1.71-.35-.4-.79-.6-1.31-.6-.38 0-.73.1-1.05.3-.32.2-.62.5-.9.9-.27.39-.5.88-.68 1.46-.18.57-.27 1.07-.27 1.5z"/><path id="12" class="fil0" d="M39.91 77.99c0-1.69.5-3.1 1.5-4.22.82-.92 1.89-1.38 3.23-1.38 1.04 0 1.88.33 2.52.99.64.65.96 1.54.96 2.65 0 1.01-.2 1.94-.61 2.8-.4.86-.97 1.52-1.71 1.98-.75.46-1.53.69-2.35.69-.67 0-1.28-.15-1.83-.44-.56-.28-.98-.7-1.27-1.23-.29-.53-.44-1.14-.44-1.84zm1.47-.14c0 .82.2 1.44.59 1.87.4.42.9.63 1.51.63.31 0 .63-.06.94-.19.31-.13.6-.32.87-.59.27-.26.49-.56.68-.9.19-.33.34-.69.46-1.08.17-.55.25-1.06.25-1.56 0-.79-.2-1.4-.59-1.84-.4-.43-.9-.65-1.5-.65-.47 0-.89.11-1.27.33-.38.22-.73.55-1.04.97-.31.43-.53.93-.68 1.49-.14.57-.22 1.08-.22 1.52z"/><path id="13" class="fil0" d="M48.96 81.31l1.8-8.73h1.32l-.38 1.79c.45-.68.89-1.17 1.32-1.49.43-.33.86-.49 1.31-.49.29 0 .65.11 1.08.32l-.6 1.38a1.37 1.37 0 0 0-.84-.28c-.52 0-1.05.29-1.59.87-.55.58-.98 1.62-1.3 3.13l-.72 3.5h-1.4z"/><path id="14" class="fil0" d="M57.96 80.11l-.25 1.21c-.35.1-.7.15-1.03.15-.58 0-1.05-.15-1.4-.44-.26-.22-.39-.52-.39-.9 0-.19.07-.63.21-1.32l1.06-5.09h-1.17l.23-1.14h1.17l.45-2.14 1.69-1.03-.67 3.17h1.45l-.25 1.14h-1.43l-1.01 4.84c-.12.61-.18.98-.18 1.1 0 .18.05.31.15.4.1.1.26.14.49.14.33 0 .62-.03.88-.09z"/><path id="15" class="fil0" d="M63.95 81.31l2.51-12.05h3.81c.7 0 1.21.03 1.55.09.55.09 1.01.25 1.39.48.38.24.67.56.87.96.21.4.32.85.32 1.33 0 .67-.18 1.25-.55 1.75-.36.51-.92.89-1.67 1.15.65.22 1.14.54 1.46.97.33.43.49.93.49 1.51 0 .66-.19 1.3-.58 1.91-.39.6-.9 1.08-1.54 1.41-.64.33-1.35.49-2.13.49h-5.93zm3.02-6.9h2.55c1.22 0 2.09-.19 2.61-.56.52-.37.78-.92.78-1.63 0-.34-.08-.64-.25-.88-.17-.25-.39-.43-.66-.55-.28-.11-.8-.16-1.57-.16h-2.67l-.79 3.78zm-1.15 5.54h2.83c.75 0 1.25-.02 1.51-.07.53-.09.96-.24 1.28-.45.33-.21.59-.49.77-.84.19-.35.28-.71.28-1.09 0-.56-.18-.99-.54-1.28-.36-.3-1.05-.44-2.08-.44h-3.18l-.87 4.17z"/><path id="16" class="fil0" d="M74.38 84.67l.08-1.4c.31.09.6.13.89.13.3 0 .55-.07.73-.2.24-.18.5-.52.79-1.02l.47-.85-1.44-8.75h1.45l.66 4.39c.13.87.24 1.73.33 2.6l3.88-6.99h1.52l-5.52 9.88c-.53.96-1 1.61-1.41 1.92-.41.31-.89.47-1.43.47-.34 0-.67-.06-1-.18z"/><path id="17" class="fil0" d="M88.09 81.31l2.51-12.05h3.81c.7 0 1.21.03 1.55.09.55.09 1.01.25 1.39.48.38.24.67.56.87.96.21.4.32.85.32 1.33 0 .67-.18 1.25-.55 1.75-.36.51-.92.89-1.67 1.15.65.22 1.14.54 1.46.97.33.43.49.93.49 1.51 0 .66-.19 1.3-.58 1.91-.39.6-.9 1.08-1.54 1.41-.64.33-1.35.49-2.13.49h-5.93zm3.03-6.9h2.54c1.22 0 2.09-.19 2.61-.56.52-.37.78-.92.78-1.63 0-.34-.08-.64-.25-.88-.17-.25-.39-.43-.66-.55-.28-.11-.8-.16-1.57-.16H91.9l-.78 3.78zm-1.15 5.54h2.82c.75 0 1.25-.02 1.51-.07.53-.09.96-.24 1.28-.45.33-.21.59-.49.77-.84.19-.35.28-.71.28-1.09 0-.56-.18-.99-.54-1.28-.36-.3-1.05-.44-2.08-.44h-3.18l-.86 4.17z"/><path id="18" class="fil0" d="M101.21 70.95l.35-1.69h1.47l-.35 1.69h-1.47zm-2.16 10.36l1.82-8.73h1.47l-1.82 8.73h-1.47z"/><path id="19" class="fil0" d="M102.78 81.31l1.82-8.73h1.35l-.32 1.52c.59-.59 1.14-1.03 1.65-1.3s1.04-.41 1.57-.41c.71 0 1.27.2 1.67.58.4.39.61.9.61 1.54 0 .33-.08.83-.23 1.53l-1.17 5.27h-1.47l1.22-5.52c.12-.54.18-.93.18-1.19 0-.29-.1-.53-.3-.71-.21-.18-.5-.27-.88-.27-.77 0-1.46.27-2.06.82-.6.55-1.05 1.48-1.33 2.81l-.84 4.06h-1.47z"/><path id="20" class="fil0" d="M117.92 80.23c-.51.44-1 .76-1.47.97-.48.2-.98.3-1.52.3-.8 0-1.45-.24-1.94-.71s-.73-1.08-.73-1.82c0-.48.11-.91.33-1.29.22-.37.51-.67.87-.9.37-.23.81-.39 1.34-.49.34-.07.97-.12 1.9-.15.93-.04 1.6-.14 2-.3.12-.41.18-.74.18-1.01 0-.35-.13-.62-.38-.82-.35-.27-.85-.41-1.51-.41-.62 0-1.13.14-1.53.42-.39.28-.68.67-.86 1.18l-1.49-.13c.3-.86.79-1.53 1.45-1.99.66-.46 1.49-.69 2.49-.69 1.07 0 1.92.26 2.55.77.47.39.71.89.71 1.5 0 .47-.06 1-.2 1.62l-.47 2.17c-.16.69-.23 1.25-.23 1.68 0 .27.06.67.18 1.18h-1.49c-.09-.28-.14-.64-.18-1.08zm.56-3.34c-.21.08-.43.14-.67.19-.24.04-.64.09-1.19.14-.86.07-1.47.17-1.82.29a1.455 1.455 0 0 0-1.07 1.41c0 .42.14.76.43 1.03.28.27.69.4 1.22.4.49 0 .96-.12 1.41-.39.45-.26.81-.62 1.07-1.08.26-.47.47-1.13.62-1.99z"/><path id="21" class="fil0" d="M121.38 81.31l1.81-8.73h1.32l-.38 1.79c.45-.68.89-1.17 1.32-1.49.43-.33.86-.49 1.31-.49.29 0 .65.11 1.08.32l-.6 1.38a1.39 1.39 0 0 0-.84-.28c-.52 0-1.05.29-1.6.87-.54.58-.97 1.62-1.29 3.13l-.72 3.5h-1.41z"/><path id="22" class="fil0" d="M126.38 84.67l.08-1.4c.31.09.6.13.89.13.31 0 .55-.07.73-.2.24-.18.51-.52.79-1.02l.47-.85-1.44-8.75h1.45l.66 4.39c.13.87.24 1.73.33 2.6l3.88-6.99h1.52l-5.51 9.88c-.54.96-1.01 1.61-1.42 1.92-.41.31-.89.47-1.43.47-.34 0-.67-.06-1-.18z"/><path id="23" class="fil0" d="M134.46 81.31l.35-1.68h1.68l-.36 1.68z"/><path id="24" class="fil0" d="M144.67 78.13l1.49.15c-.37 1.09-.9 1.9-1.59 2.43-.68.53-1.45.79-2.33.79-.94 0-1.7-.31-2.29-.92-.59-.61-.88-1.47-.88-2.57 0-.95.19-1.88.56-2.8.38-.92.92-1.62 1.62-2.1.7-.48 1.5-.72 2.39-.72.93 0 1.67.27 2.22.8.54.53.81 1.23.81 2.1l-1.45.1c-.01-.55-.16-.99-.48-1.3-.31-.31-.73-.47-1.24-.47-.59 0-1.11.19-1.54.57-.44.37-.78.95-1.03 1.72-.25.76-.37 1.5-.37 2.21 0 .75.16 1.31.49 1.68.32.37.73.55 1.21.55s.94-.18 1.38-.55c.43-.36.78-.92 1.03-1.67z"/><path id="25" class="fil0" d="M147.31 77.99c0-1.69.5-3.1 1.49-4.22.82-.92 1.9-1.38 3.23-1.38 1.04 0 1.88.33 2.52.99.64.65.96 1.54.96 2.65 0 1.01-.2 1.94-.6 2.8-.4.86-.98 1.52-1.72 1.98-.74.46-1.52.69-2.34.69-.68 0-1.29-.15-1.84-.44-.55-.28-.97-.7-1.26-1.23-.3-.53-.44-1.14-.44-1.84zm1.47-.14c0 .82.2 1.44.59 1.87.39.42.89.63 1.5.63.32 0 .63-.06.94-.19.31-.13.6-.32.87-.59.27-.26.5-.56.69-.9.18-.33.34-.69.45-1.08.17-.55.26-1.06.26-1.56 0-.79-.2-1.4-.6-1.84-.4-.43-.89-.65-1.5-.65-.46 0-.88.11-1.27.33-.38.22-.72.55-1.03.97-.31.43-.54.93-.68 1.49-.15.57-.22 1.08-.22 1.52z"/><path id="26" class="fil0" d="M156.33 81.31l1.82-8.73h1.47l-.3 1.44c.55-.61 1.04-1.04 1.47-1.27.43-.24.9-.36 1.41-.36.54 0 .99.15 1.35.44.36.28.6.68.71 1.2.45-.55.91-.96 1.4-1.23.49-.27 1-.41 1.54-.41.72 0 1.27.17 1.63.52.36.34.54.83.54 1.45 0 .27-.06.71-.19 1.33l-1.19 5.62h-1.46l1.2-5.76c.1-.47.15-.81.15-1.01 0-.28-.09-.51-.27-.67-.18-.17-.43-.25-.76-.25-.44 0-.89.14-1.35.4-.46.27-.82.62-1.07 1.05-.25.44-.48 1.11-.67 2.01l-.88 4.23h-1.47l1.23-5.88c.08-.4.13-.69.13-.86 0-.28-.09-.51-.26-.68-.18-.18-.41-.27-.7-.27-.42 0-.86.14-1.32.4-.46.27-.83.65-1.12 1.12-.29.48-.53 1.16-.71 2.05l-.86 4.12h-1.47z"/><path fill="none" d="M0 0h314.75v86.68H0z"/></g></g></svg>