<svg xmlns="http://www.w3.org/2000/svg" width="554" height="554" viewBox="0 0 389.14 389.14" shape-rendering="geometricPrecision" text-rendering="geometricPrecision" image-rendering="optimizeQuality" fill-rule="evenodd" clip-rule="evenodd"><path d="M194.57 0c107.44 0 194.57 87.13 194.57 194.57s-87.13 194.57-194.57 194.57S0 302.01 0 194.57 87.13 0 194.57 0z" fill="#102c63"/><path d="M194.57 24.67c74.85 0 138.41 48.43 161.04 115.66h-61.8c-19.2-35.06-56.45-58.84-99.24-58.84-52.62 0-96.85 35.95-109.47 84.63h276.98c1.56 9.25 2.39 18.75 2.39 28.45 0 93.81-76.08 169.89-169.9 169.89-74.85 0-138.4-48.43-161.04-115.66h61.81c14.79 27.01 40.28 47.32 70.77 55.22v-81H27.07c-1.57-9.25-2.4-18.75-2.4-28.45 0-93.81 76.09-169.9 169.9-169.9zm28.45 279.36c39.58-10.26 70.75-41.43 81.01-81.01h-81.01v81.01z" fill="#fff"/></svg>