<svg xmlns="http://www.w3.org/2000/svg" width="46" height="46" viewBox="0 0 32.31 32.31" shape-rendering="geometricPrecision" text-rendering="geometricPrecision" image-rendering="optimizeQuality" fill-rule="evenodd" clip-rule="evenodd"><path d="M16.16 0c8.92 0 16.15 7.23 16.15 16.16 0 8.92-7.23 16.15-16.15 16.15C7.23 32.31 0 25.08 0 16.16 0 7.23 7.23 0 16.16 0z" fill="#102c63"/><path d="M16.16 2.05c6.21 0 11.49 4.02 13.37 9.6H24.4a9.395 9.395 0 0 0-8.24-4.88c-4.37 0-8.05 2.98-9.09 7.02h22.99c.13.77.2 1.56.2 2.37 0 7.79-6.31 14.1-14.1 14.1-6.22 0-11.5-4.02-13.38-9.6h5.14a9.358 9.358 0 0 0 5.87 4.58v-6.72H2.25c-.13-.77-.2-1.56-.2-2.36 0-7.79 6.32-14.11 14.11-14.11zm2.36 23.19a9.405 9.405 0 0 0 6.72-6.72h-6.72v6.72z" fill="#fff"/></svg>