<svg xmlns="http://www.w3.org/2000/svg" width="180" height="46" viewBox="0 0 35.88 9.17" shape-rendering="geometricPrecision" text-rendering="geometricPrecision" image-rendering="optimizeQuality" fill-rule="evenodd" clip-rule="evenodd"><defs><style>.fil0,.fil1{fill:#f08519;fill-rule:nonzero}.fil0{fill:#fefefe}</style></defs><g id="Layer_x0020_4"><g id="_1679465818512"><path class="fil0" d="M.23 3.83l1.07-.1c.07.33.2.57.39.72.2.16.46.24.8.24.35 0 .62-.07.8-.21.18-.14.27-.3.27-.48 0-.12-.04-.22-.12-.31-.07-.08-.2-.15-.39-.21-.13-.04-.42-.12-.88-.22-.59-.13-1-.3-1.24-.5-.33-.27-.5-.61-.5-1.01 0-.25.08-.49.24-.71.15-.23.38-.39.68-.51C1.64.41 2 .35 2.42.35c.68 0 1.19.14 1.54.42.34.28.52.65.54 1.11l-1.1.04c-.05-.26-.15-.44-.3-.56-.16-.11-.39-.17-.7-.17-.31 0-.56.06-.74.18-.12.08-.18.19-.18.32 0 .11.06.22.17.3.14.11.47.22 1.01.34.53.11.93.23 1.18.36.26.12.46.29.6.5.15.22.22.49.22.8 0 .29-.09.56-.26.81s-.42.43-.74.55c-.31.13-.71.19-1.18.19-.69 0-1.22-.15-1.59-.44C.52 4.81.3 4.38.23 3.83z"/><path id="1" class="fil0" d="M10.51 5.45H9.32l-.47-1.14H6.66l-.45 1.14H5.04L7.16.44h1.17l2.18 5.01zM8.49 3.46l-.76-1.85L7 3.46h1.49z"/><path id="2" class="fil0" d="M10.81 3.83l1.07-.1c.07.33.2.57.39.72.2.16.47.24.8.24.35 0 .62-.07.8-.21.18-.14.27-.3.27-.48 0-.12-.04-.22-.11-.31-.08-.08-.21-.15-.4-.21-.13-.04-.42-.12-.88-.22-.58-.13-1-.3-1.23-.5-.34-.27-.5-.61-.5-1.01 0-.25.07-.49.23-.71.16-.23.38-.39.68-.51.3-.12.65-.18 1.07-.18.68 0 1.2.14 1.54.42.35.28.53.65.54 1.11l-1.1.04c-.05-.26-.15-.44-.3-.56-.16-.11-.39-.17-.69-.17-.32 0-.57.06-.75.18-.12.08-.17.19-.17.32 0 .11.05.22.16.3.14.11.47.22 1.01.34.53.11.93.23 1.18.36.26.12.46.29.61.5.14.22.21.49.21.8 0 .29-.08.56-.26.81-.17.25-.42.43-.73.55-.32.13-.72.19-1.19.19-.69 0-1.22-.15-1.59-.44-.37-.29-.59-.72-.66-1.27z"/><path id="3" class="fil1" d="M17.41 5.45V1.29h-1.62V.44h4.33v.85h-1.61v4.16z"/><path id="4" class="fil1" d="M21.4 5.45h-1.04V1.82h.97v.52c.16-.25.31-.41.45-.48.13-.08.28-.12.45-.12.24 0 .47.06.69.18l-.32.84c-.18-.1-.34-.16-.5-.16-.14 0-.27.04-.37.11-.1.08-.18.21-.24.4-.06.2-.09.6-.09 1.22v1.12z"/><path id="5" class="fil1" d="M24.15 2.94l-.95-.15c.11-.36.29-.62.55-.79.26-.17.65-.26 1.16-.26.47 0 .82.05 1.05.16.22.1.38.22.48.38.09.16.14.44.14.86l-.02 1.12c0 .31.02.55.05.7.03.15.1.31.19.49h-1.04c-.02-.07-.06-.16-.1-.28-.01-.06-.03-.1-.03-.11-.18.16-.37.28-.58.36-.2.08-.42.12-.65.12-.4 0-.72-.1-.95-.31a.933.933 0 0 1-.35-.76c0-.21.05-.39.16-.55.1-.16.25-.28.44-.37.2-.08.47-.16.83-.22.49-.09.83-.17 1.02-.24V3c0-.19-.05-.32-.15-.4-.1-.08-.29-.12-.56-.12-.19 0-.33.03-.44.1-.1.07-.19.19-.25.36zm1.4.77c-.13.04-.35.09-.64.15-.29.06-.48.11-.57.17-.13.09-.2.2-.2.34 0 .13.05.25.16.34.11.1.25.15.42.15.19 0 .37-.06.54-.17.12-.09.21-.19.25-.32.02-.08.04-.24.04-.46v-.2z"/><path id="6" class="fil1" d="M31.23 5.45h-.96v-.54c-.17.21-.36.37-.58.47a1.546 1.546 0 0 1-1.83-.35c-.33-.33-.49-.8-.49-1.4 0-.62.16-1.09.47-1.41.32-.32.72-.48 1.2-.48.44 0 .83.17 1.15.51V.44h1.04v5.01zm-2.79-1.89c0 .39.06.67.18.85.17.25.4.37.7.37.24 0 .45-.09.62-.28.17-.19.25-.47.25-.84 0-.42-.08-.72-.25-.91a.796.796 0 0 0-.62-.27c-.25 0-.46.09-.63.27-.16.18-.25.45-.25.81z"/><path id="7" class="fil1" d="M34.55 4.3l1.04.16c-.13.35-.35.62-.63.8-.29.19-.66.28-1.09.28-.69 0-1.19-.21-1.52-.62-.26-.33-.39-.75-.39-1.25 0-.6.17-1.07.51-1.41.34-.35.77-.52 1.3-.52.58 0 1.05.18 1.39.54.34.36.5.9.48 1.64h-2.61c.01.28.09.5.25.66.16.16.36.24.6.24.17 0 .3-.04.41-.12.11-.09.2-.22.26-.4zm.06-.97c-.01-.28-.09-.49-.24-.63a.732.732 0 0 0-.54-.22c-.23 0-.41.07-.56.23-.15.15-.22.36-.22.62h1.56z"/><path id="8" class="fil0" d="M.09 8.1l.18-.01v.04c0 .05.01.09.04.13.02.04.06.08.12.1.05.02.12.03.2.03.1 0 .19-.02.24-.07.06-.04.09-.09.09-.15 0-.04-.02-.07-.05-.1-.03-.04-.11-.08-.25-.13-.11-.05-.18-.08-.22-.1a.512.512 0 0 1-.13-.12.27.27 0 0 1-.05-.15c0-.06.02-.12.06-.17.04-.06.1-.1.17-.12.07-.03.16-.04.25-.04.11 0 .2.01.28.05.08.03.13.08.17.13.03.06.05.11.05.17v.02l-.18.01c0-.03 0-.06-.01-.08a.236.236 0 0 0-.06-.09.234.234 0 0 0-.1-.05.415.415 0 0 0-.16-.03.35.35 0 0 0-.23.07c-.04.03-.06.07-.06.12 0 .03.01.06.03.08.01.03.04.05.09.07.03.02.11.05.23.1.1.04.16.07.2.1.05.03.09.06.11.11.03.04.04.09.04.14 0 .07-.02.13-.06.19-.05.06-.11.1-.19.13s-.17.05-.27.05c-.16 0-.28-.03-.38-.09-.1-.07-.15-.18-.15-.34z"/><path id="9" class="fil0" d="M1.97 8.34c-.12.13-.24.19-.37.19a.28.28 0 0 1-.18-.06.18.18 0 0 1-.07-.15c0-.04.01-.1.03-.2l.13-.52h.17l-.14.59c-.01.05-.02.09-.02.11 0 .03.01.06.04.07.02.02.05.03.1.03s.09-.01.14-.03a.47.47 0 0 0 .12-.09.36.36 0 0 0 .08-.12c.01-.03.03-.09.04-.16l.1-.4h.17l-.22.91h-.16l.04-.17z"/><path id="10" class="fil0" d="M2.27 8.86l.29-1.26h.16l-.03.13c.05-.06.11-.1.15-.12.05-.02.1-.03.15-.03.09 0 .17.03.23.1.06.06.09.15.09.27 0 .09-.01.18-.05.25-.03.08-.07.14-.12.19-.05.05-.1.08-.15.1-.05.03-.11.04-.16.04-.12 0-.21-.06-.28-.17l-.11.5h-.17zm.34-.72c0 .07 0 .11.01.14.02.04.04.06.08.09.03.02.08.03.12.03.1 0 .18-.05.24-.15.06-.1.09-.2.09-.3 0-.08-.02-.14-.06-.18a.204.204 0 0 0-.15-.06c-.05 0-.09.01-.12.03-.04.02-.07.05-.1.09a.36.36 0 0 0-.08.15c-.02.06-.03.11-.03.16z"/><path id="11" class="fil0" d="M3.33 8.86l.29-1.26h.15l-.02.13c.05-.06.11-.1.15-.12.05-.02.1-.03.15-.03.09 0 .17.03.23.1.06.06.09.15.09.27 0 .09-.01.18-.05.25-.03.08-.07.14-.12.19-.05.05-.1.08-.15.1-.06.03-.11.04-.16.04-.12 0-.21-.06-.28-.17l-.11.5h-.17zm.34-.72c0 .07 0 .11.01.14.02.04.04.06.08.09.03.02.07.03.12.03.1 0 .18-.05.24-.15.06-.1.09-.2.09-.3 0-.08-.02-.14-.06-.18A.204.204 0 0 0 4 7.71c-.05 0-.09.01-.12.03-.04.02-.07.05-.11.09-.03.04-.05.09-.07.15-.02.06-.03.11-.03.16z"/><path id="12" class="fil0" d="M4.5 8.16c0-.17.06-.32.17-.44.1-.09.22-.14.37-.14.12 0 .21.04.29.1.07.07.11.16.11.28 0 .1-.03.2-.07.29-.05.09-.11.16-.2.21-.08.04-.17.07-.26.07-.08 0-.15-.02-.21-.05a.278.278 0 0 1-.15-.13.356.356 0 0 1-.05-.19zm.17-.01c0 .08.02.15.07.19.04.05.1.07.17.07.03 0 .07-.01.11-.02l.09-.06c.03-.03.06-.06.08-.1a.37.37 0 0 0 .05-.11c.02-.06.03-.11.03-.16 0-.08-.02-.15-.06-.19a.241.241 0 0 0-.18-.07c-.05 0-.1.01-.14.04-.04.02-.08.05-.12.1a.53.53 0 0 0-.08.15c-.01.06-.02.11-.02.16z"/><path id="13" class="fil0" d="M5.53 8.51l.21-.91h.15l-.04.19c.05-.07.1-.12.15-.16.04-.03.09-.05.14-.05.04 0 .08.01.13.04l-.07.14a.169.169 0 0 0-.1-.03.28.28 0 0 0-.18.09c-.06.06-.11.17-.15.32l-.08.37h-.16z"/><path id="14" class="fil0" d="M6.56 8.38l-.03.13c-.04.01-.08.01-.12.01-.06 0-.12-.01-.16-.04-.03-.02-.04-.06-.04-.1 0-.02.01-.06.02-.13l.12-.53h-.13l.03-.12h.13l.05-.22.19-.11-.07.33h.16l-.03.12h-.16l-.11.5c-.02.07-.02.1-.02.12 0 .01 0 .03.01.04.01.01.03.01.06.01.04 0 .07 0 .1-.01z"/><path id="15" class="fil0" d="M7.24 8.51l.29-1.25h.43c.08 0 .14 0 .18.01.06.01.11.02.16.05.04.02.07.05.1.1.02.04.03.08.03.13 0 .07-.02.13-.06.19a.39.39 0 0 1-.19.12c.07.02.13.05.17.1.03.04.05.09.05.15 0 .07-.02.14-.06.2-.05.06-.11.11-.18.15-.07.03-.15.05-.24.05h-.68zm.35-.72h.29c.14 0 .23-.02.29-.06a.185.185 0 0 0 .06-.26c-.01-.02-.04-.04-.07-.05-.03-.02-.09-.02-.18-.02h-.3l-.09.39zm-.13.58h.32c.08 0 .14-.01.17-.01.06-.01.11-.03.15-.05.03-.02.06-.05.08-.08.02-.04.04-.08.04-.12 0-.06-.03-.1-.07-.13-.04-.03-.12-.05-.23-.05h-.37l-.09.44z"/><path id="16" class="fil0" d="M8.43 8.86l.01-.15c.03.01.07.01.1.01.04 0 .06 0 .08-.02a.3.3 0 0 0 .09-.1l.06-.09-.17-.91h.17l.07.46c.02.09.03.18.04.27l.44-.73h.18l-.63 1.03c-.06.1-.12.16-.16.2-.05.03-.1.04-.17.04-.03 0-.07 0-.11-.01z"/><path id="17" class="fil0" d="M9.99 8.51l.29-1.25h.43c.08 0 .14 0 .18.01.06.01.12.02.16.05.04.02.07.05.1.1.02.04.03.08.03.13 0 .07-.02.13-.06.19a.39.39 0 0 1-.19.12c.08.02.13.05.17.1.03.04.05.09.05.15 0 .07-.02.14-.06.2-.05.06-.11.11-.18.15-.07.03-.15.05-.24.05h-.68zm.35-.72h.29c.14 0 .24-.02.3-.06a.2.2 0 0 0 .08-.17c0-.03-.01-.06-.02-.09a.218.218 0 0 0-.08-.05c-.03-.02-.09-.02-.18-.02h-.3l-.09.39zm-.13.58h.32c.08 0 .14-.01.17-.01.06-.01.11-.03.15-.05.03-.02.06-.05.08-.08.03-.04.04-.08.04-.12 0-.06-.02-.1-.06-.13a.477.477 0 0 0-.24-.05h-.36l-.1.44z"/><path id="18" class="fil0" d="M11.49 7.43l.04-.17h.17l-.04.17h-.17zm-.25 1.08l.21-.91h.17l-.21.91h-.17z"/><path id="19" class="fil0" d="M11.67 8.51l.2-.91h.16l-.04.16c.07-.06.13-.11.19-.14.06-.02.12-.04.18-.04.08 0 .14.02.19.06.05.04.07.1.07.16 0 .04-.01.09-.03.16l-.13.55h-.17l.14-.58c.01-.05.02-.09.02-.12a.09.09 0 0 0-.03-.07.169.169 0 0 0-.1-.03c-.09 0-.17.03-.24.08-.07.06-.12.16-.15.3l-.09.42h-.17z"/><path id="20" class="fil0" d="M13.39 8.4c-.05.04-.11.07-.16.1-.06.02-.12.03-.18.03a.33.33 0 0 1-.22-.08.256.256 0 0 1-.08-.19c0-.05.01-.09.04-.13.02-.04.05-.07.1-.09.04-.03.09-.04.15-.05a.91.91 0 0 1 .21-.02c.11 0 .19-.01.23-.03.02-.04.02-.08.02-.11a.09.09 0 0 0-.04-.08c-.04-.03-.1-.04-.17-.04s-.13.01-.18.04a.4.4 0 0 0-.1.12l-.16-.01c.03-.09.08-.16.16-.21.07-.04.17-.07.28-.07.13 0 .22.03.29.08.06.04.09.09.09.16 0 .05-.01.1-.03.17l-.05.22c-.02.07-.03.13-.03.17 0 .03.01.07.02.13h-.17c-.01-.03-.01-.07-.02-.11zm.07-.35c-.03.01-.05.01-.08.02-.03 0-.07.01-.14.01-.09.01-.16.02-.2.03-.04.01-.07.03-.09.06-.02.03-.03.06-.03.09 0 .04.01.08.04.11.04.02.08.04.14.04.06 0 .11-.02.16-.04.06-.03.1-.07.13-.12.03-.04.05-.11.07-.2z"/><path id="21" class="fil0" d="M13.79 8.51l.2-.91h.15l-.04.19c.05-.07.1-.12.15-.16.05-.03.1-.05.15-.05.03 0 .08.01.12.04l-.06.14a.193.193 0 0 0-.1-.03c-.06 0-.12.03-.18.09s-.11.17-.15.32l-.08.37h-.16z"/><path id="22" class="fil0" d="M14.36 8.86l.01-.15c.03.01.07.01.1.01s.06 0 .08-.02a.3.3 0 0 0 .09-.1l.06-.09-.17-.91h.17l.07.46c.02.09.03.18.04.27l.44-.73h.17l-.62 1.03c-.06.1-.12.16-.17.2-.04.03-.1.04-.16.04-.04 0-.08 0-.11-.01z"/><path id="23" class="fil0" d="M15.28 8.51l.04-.18h.19l-.04.18z"/><path id="24" class="fil0" d="M16.44 8.18l.17.01c-.04.12-.1.2-.18.25a.41.41 0 0 1-.26.09c-.11 0-.2-.03-.27-.1a.362.362 0 0 1-.1-.26c0-.1.03-.2.07-.3.04-.09.1-.16.18-.21.08-.05.17-.08.28-.08.1 0 .19.03.25.08.06.06.09.13.09.22l-.16.01c-.01-.05-.02-.1-.06-.13a.217.217 0 0 0-.14-.05.28.28 0 0 0-.18.06c-.05.04-.09.1-.11.18-.03.08-.05.15-.05.23 0 .07.02.13.06.17.04.04.08.06.14.06.05 0 .1-.02.15-.06.05-.04.09-.09.12-.17z"/><path id="25" class="fil0" d="M16.74 8.16c0-.17.06-.32.17-.44.1-.09.22-.14.37-.14.12 0 .22.04.29.1.07.07.11.16.11.28 0 .1-.02.2-.07.29-.05.09-.11.16-.2.21-.08.04-.17.07-.26.07-.08 0-.15-.02-.21-.05a.318.318 0 0 1-.15-.13.356.356 0 0 1-.05-.19zm.17-.01c0 .08.02.15.07.19.04.05.1.07.17.07.04 0 .07-.01.11-.02.03-.02.07-.04.1-.06a.36.36 0 0 0 .07-.1c.03-.03.04-.07.06-.11.01-.06.02-.11.02-.16 0-.08-.02-.15-.06-.19a.234.234 0 0 0-.17-.07c-.06 0-.11.01-.15.04-.04.02-.08.05-.12.1-.03.04-.06.09-.07.15-.02.06-.03.11-.03.16z"/><path id="26" class="fil0" d="M17.77 8.51l.21-.91h.17l-.04.15c.06-.06.12-.11.17-.13a.293.293 0 0 1 .31.01c.05.03.07.07.09.12.05-.06.1-.1.15-.13.06-.02.12-.04.18-.04.08 0 .14.02.19.06.04.03.06.08.06.15 0 .02-.01.07-.02.13l-.14.59h-.17l.14-.6c.01-.05.02-.08.02-.11 0-.02-.01-.05-.03-.06-.02-.02-.05-.03-.09-.03-.05 0-.1.01-.15.04-.06.03-.1.07-.13.11-.02.05-.05.11-.07.21l-.1.44h-.17l.14-.61c.01-.04.02-.07.02-.09 0-.03-.01-.06-.03-.07-.03-.02-.05-.03-.08-.03-.05 0-.1.01-.15.04-.06.03-.1.07-.13.12-.04.05-.06.12-.08.21l-.1.43h-.17z"/><path fill="none" d="M0 0h35.88v9.17H0z"/></g></g></svg>