<svg xmlns="http://www.w3.org/2000/svg" width="46" height="46" viewBox="0 0 1.65 1.65" shape-rendering="geometricPrecision" text-rendering="geometricPrecision" image-rendering="optimizeQuality" fill-rule="evenodd" clip-rule="evenodd"><path d="M.82 0a.826.826 0 1 1 0 1.65.826.826 0 0 1 0-1.65z" fill="#102c63"/><path d="M.82.1c.32 0 .59.21.69.49h-.27A.496.496 0 0 0 .82.34C.6.34.41.5.36.7h1.17a.717.717 0 0 1-.71.84c-.31 0-.58-.2-.68-.49H.4c.07.12.17.2.3.24V.94H.11C.11.9.1.86.1.82.1.43.43.1.82.1zm.12 1.19c.17-.05.3-.18.35-.35H.94v.35z" fill="#fff"/></svg>