<?xml version="1.0" encoding="UTF-8"?>
<!DOCTYPE svg PUBLIC "-//W3C//DTD SVG 1.1//EN" "http://www.w3.org/Graphics/SVG/1.1/DTD/svg11.dtd">
<!-- Creator: CorelDRAW 2019 (64-Bit) -->
<svg xmlns="http://www.w3.org/2000/svg" xml:space="preserve" width="46px" height="46px" version="1.1" style="shape-rendering:geometricPrecision; text-rendering:geometricPrecision; image-rendering:optimizeQuality; fill-rule:evenodd; clip-rule:evenodd"
viewBox="0 0 1.65 1.65"
 xmlns:xlink="http://www.w3.org/1999/xlink">
 <defs>
  <style type="text/css">
   <![CDATA[
    .fil0 {fill:#102C63}
    .fil1 {fill:white}
   ]]>
  </style>
 </defs>
 <g id="Layer_x0020_4">
  <metadata id="CorelCorpID_0Corel-Layer"/>
  <path class="fil0" d="M0.82 0c0.46,0 0.83,0.37 0.83,0.82 0,0.46 -0.37,0.83 -0.83,0.83 -0.45,0 -0.82,-0.37 -0.82,-0.83 0,-0.45 0.37,-0.82 0.82,-0.82z"/>
  <path class="fil1" d="M0.82 0.1c0.32,0 0.59,0.21 0.69,0.49l-0.27 0c-0.08,-0.14 -0.24,-0.25 -0.42,-0.25 -0.22,0 -0.41,0.16 -0.46,0.36 0.39,0 0.78,0 1.17,0 0.01,0.04 0.01,0.08 0.01,0.12 0,0.4 -0.32,0.72 -0.72,0.72 -0.31,0 -0.58,-0.2 -0.68,-0.49l0.26 0c0.07,0.12 0.17,0.2 0.3,0.24l0 -0.35c-0.19,0 -0.39,0 -0.59,0 0,-0.04 -0.01,-0.08 -0.01,-0.12 0,-0.39 0.33,-0.72 0.72,-0.72zm0.12 1.19c0.17,-0.05 0.3,-0.18 0.35,-0.35l-0.35 0 0 0.35z"/>
 </g>
</svg>
