<svg xmlns="http://www.w3.org/2000/svg" width="606" height="144" viewBox="0 0 602.85 143.33" shape-rendering="geometricPrecision" text-rendering="geometricPrecision" image-rendering="optimizeQuality" fill-rule="evenodd" clip-rule="evenodd"><defs><style>.fil2,.fil3{fill:#102c63;fill-rule:nonzero}.fil3{fill:#f08519}</style></defs><g id="Layer_x0020_4"><g id="_1715825869200"><path d="M72.68 4.06c37.6 0 68.09 30.5 68.09 68.09 0 37.6-30.49 68.09-68.09 68.09-37.6 0-68.09-30.49-68.09-68.09 0-37.59 30.49-68.09 68.09-68.09z" fill="#102c63"/><path d="M72.68 12.7c26.2 0 48.44 16.95 56.36 40.47h-21.63c-6.72-12.27-19.75-20.59-34.73-20.59-18.41 0-33.89 12.58-38.3 29.62h96.92c.55 3.23.84 6.56.84 9.95 0 32.83-26.63 59.46-59.46 59.46-26.19 0-48.43-16.95-56.35-40.48h21.63c5.17 9.45 14.09 16.56 24.76 19.33V82.11H14.07a59.41 59.41 0 0 1-.84-9.96c0-32.83 26.62-59.45 59.45-59.45zm9.96 97.76c13.85-3.59 24.76-14.5 28.35-28.35H82.64v28.35z" fill="#fff"/><path class="fil2" d="M156.56 62.64l13.38-1.33c.81 4.47 2.42 7.75 4.88 9.85 2.45 2.11 5.76 3.15 9.91 3.15 4.4 0 7.72-.93 9.96-2.8 2.23-1.87 3.35-4.05 3.35-6.55 0-1.61-.48-2.97-1.41-4.11-.93-1.12-2.58-2.11-4.92-2.93-1.6-.57-5.23-1.55-10.93-2.97-7.32-1.84-12.47-4.08-15.42-6.76-4.16-3.75-6.24-8.32-6.24-13.71 0-3.47.99-6.72 2.93-9.75 1.96-3.02 4.78-5.31 8.46-6.89 3.69-1.58 8.12-2.38 13.34-2.38 8.49 0 14.9 1.89 19.19 5.67 4.3 3.78 6.55 8.81 6.77 15.12l-13.76.48c-.59-3.52-1.84-6.03-3.75-7.57-1.92-1.53-4.8-2.31-8.63-2.31-3.95 0-7.05.83-9.28 2.47-1.44 1.06-2.17 2.47-2.17 4.24 0 1.61.68 2.99 2.04 4.13 1.73 1.47 5.92 2.99 12.58 4.57 6.66 1.57 11.58 3.21 14.76 4.89 3.19 1.69 5.69 3.99 7.5 6.91 1.8 2.93 2.7 6.54 2.7 10.82 0 3.89-1.07 7.55-3.24 10.95-2.17 3.4-5.22 5.93-9.18 7.58-3.95 1.66-8.89 2.48-14.79 2.48-8.59 0-15.18-1.98-19.79-5.95-4.6-3.95-7.34-9.73-8.24-17.3z"/><path id="1" class="fil2" d="M284.69 84.66h-14.82L264 69.19h-27.25l-5.65 15.47h-14.55l26.38-67.96h14.54l27.22 67.96zM259.54 57.7l-9.44-25.15-9.18 25.15h18.62z"/><path id="2" class="fil2" d="M288.41 62.64l13.39-1.33c.8 4.47 2.42 7.75 4.87 9.85 2.45 2.11 5.76 3.15 9.92 3.15 4.39 0 7.72-.93 9.95-2.8 2.23-1.87 3.35-4.05 3.35-6.55 0-1.61-.47-2.97-1.41-4.11-.93-1.12-2.58-2.11-4.92-2.93-1.6-.57-5.23-1.55-10.93-2.97-7.32-1.84-12.46-4.08-15.42-6.76-4.16-3.75-6.23-8.32-6.23-13.71 0-3.47.98-6.72 2.92-9.75 1.96-3.02 4.78-5.31 8.47-6.89 3.68-1.58 8.11-2.38 13.33-2.38 8.49 0 14.9 1.89 19.19 5.67 4.3 3.78 6.55 8.81 6.77 15.12l-13.76.48c-.59-3.52-1.84-6.03-3.75-7.57-1.92-1.53-4.8-2.31-8.62-2.31-3.96 0-7.06.83-9.29 2.47-1.44 1.06-2.17 2.47-2.17 4.24 0 1.61.68 2.99 2.04 4.13 1.73 1.47 5.92 2.99 12.58 4.57 6.66 1.57 11.58 3.21 14.76 4.89 3.19 1.69 5.69 3.99 7.5 6.91 1.8 2.93 2.7 6.54 2.7 10.82 0 3.89-1.07 7.55-3.24 10.95-2.17 3.4-5.22 5.93-9.18 7.58-3.95 1.66-8.89 2.48-14.79 2.48-8.59 0-15.18-1.98-19.79-5.95-4.6-3.95-7.34-9.73-8.24-17.3z"/><path id="3" class="fil3" d="M370.61 84.66V28.18h-20.12V16.7h53.91v11.48h-20.03v56.48z"/><path id="4" class="fil3" d="M420.41 84.66H407.4V35.4h12.06v6.99c2.07-3.31 3.94-5.48 5.6-6.5 1.66-1.03 3.54-1.54 5.64-1.54 2.98 0 5.84.82 8.59 2.45l-4.03 11.36c-2.2-1.42-4.24-2.13-6.12-2.13-1.84 0-3.39.5-4.65 1.5-1.27 1.01-2.26 2.82-2.99 5.44-.73 2.63-1.09 8.13-1.09 16.5v15.19z"/><path id="5" class="fil3" d="M454.59 50.58l-11.77-2.09c1.33-4.8 3.62-8.36 6.87-10.67 3.24-2.31 8.06-3.47 14.46-3.47 5.8 0 10.14.68 12.98 2.06 2.83 1.38 4.84 3.11 6 5.23 1.15 2.12 1.74 6 1.74 11.66l-.19 15.19c0 4.32.2 7.51.62 9.57.41 2.06 1.18 4.26 2.32 6.6h-12.91c-.33-.86-.76-2.12-1.25-3.8-.2-.78-.36-1.28-.46-1.52-2.21 2.18-4.58 3.81-7.12 4.9-2.53 1.1-5.22 1.65-8.08 1.65-5.04 0-9.03-1.38-11.94-4.13-2.91-2.74-4.37-6.22-4.37-10.42 0-2.77.67-5.26 2-7.44 1.32-2.17 3.18-3.84 5.58-5 2.39-1.15 5.84-2.16 10.34-3.03 6.08-1.14 10.3-2.22 12.64-3.2v-1.31c0-2.53-.61-4.34-1.85-5.43-1.25-1.07-3.59-1.61-7.02-1.61-2.32 0-4.13.46-5.43 1.39-1.31.92-2.35 2.55-3.16 4.87zm17.46 10.54c-1.66.55-4.3 1.22-7.92 1.99-3.61.78-5.98 1.53-7.09 2.26-1.69 1.22-2.54 2.74-2.54 4.59 0 1.84.68 3.4 2.04 4.73 1.36 1.33 3.08 1.99 5.18 1.99 2.35 0 4.59-.77 6.73-2.31 1.56-1.18 2.61-2.61 3.1-4.32.33-1.1.5-3.22.5-6.34v-2.59z"/><path id="6" class="fil3" d="M542.88 84.66h-12.06v-7.23c-2.01 2.81-4.4 4.92-7.13 6.34-2.74 1.41-5.51 2.12-8.29 2.12-5.68 0-10.54-2.28-14.59-6.85-4.03-4.57-6.06-10.93-6.06-19.11 0-8.35 1.97-14.71 5.9-19.06 3.94-4.35 8.91-6.52 14.92-6.52 5.51 0 10.28 2.3 14.3 6.87V16.7h13.01v67.96zm-34.74-25.58c0 5.27.72 9.08 2.16 11.43 2.11 3.42 5.03 5.13 8.8 5.13 2.99 0 5.54-1.28 7.62-3.84 2.11-2.57 3.15-6.38 3.15-11.47 0-5.68-1.01-9.76-3.05-12.26s-4.64-3.75-7.82-3.75c-3.08 0-5.66 1.23-7.75 3.7-2.07 2.47-3.11 6.15-3.11 11.06z"/><path id="7" class="fil3" d="M584.15 69.09l13 2.18c-1.66 4.76-4.3 8.39-7.89 10.89-3.61 2.48-8.12 3.73-13.51 3.73-8.56 0-14.9-2.8-19-8.4-3.24-4.49-4.87-10.16-4.87-17 0-8.17 2.13-14.57 6.39-19.19 4.25-4.64 9.65-6.95 16.16-6.95 7.31 0 13.09 2.42 17.33 7.26 4.22 4.84 6.24 12.26 6.05 22.26h-32.55c.09 3.86 1.14 6.87 3.15 9.02 1.99 2.15 4.49 3.22 7.46 3.22 2.04 0 3.75-.55 5.13-1.66 1.39-1.1 2.44-2.89 3.15-5.36zm.76-13.19c-.1-3.78-1.06-6.66-2.91-8.62-1.85-1.98-4.1-2.96-6.76-2.96-2.83 0-5.17 1.04-7.02 3.11-1.85 2.08-2.75 4.91-2.72 8.47h19.41z"/><path id="8" class="fil2" d="M154.9 120.76l2.23-.21-.02.59c0 .66.15 1.26.45 1.8.3.55.8.97 1.49 1.27.69.29 1.52.44 2.48.44 1.35 0 2.38-.29 3.1-.89.71-.6 1.07-1.28 1.07-2.04 0-.54-.19-1.03-.57-1.47-.39-.43-1.44-1.02-3.16-1.76-1.33-.58-2.24-1.02-2.73-1.33-.76-.5-1.32-1.05-1.69-1.64-.36-.59-.54-1.26-.54-2.02 0-.87.24-1.66.72-2.36.48-.71 1.18-1.25 2.1-1.61.92-.38 1.96-.56 3.12-.56 1.39 0 2.55.23 3.5.69.95.46 1.64 1.08 2.07 1.85.43.77.64 1.51.64 2.21v.35l-2.21.17c0-.48-.04-.85-.12-1.12-.16-.47-.39-.87-.72-1.2-.32-.32-.76-.58-1.33-.78-.57-.2-1.2-.3-1.9-.3-1.23 0-2.19.28-2.87.84-.53.42-.79.99-.79 1.69 0 .42.11.8.32 1.13.22.33.61.65 1.17.97.4.22 1.35.66 2.85 1.33 1.22.54 2.06.96 2.52 1.27.62.41 1.09.91 1.42 1.49.33.58.5 1.24.5 1.99 0 .92-.28 1.76-.84 2.54-.56.78-1.34 1.38-2.32 1.8-.99.42-2.12.64-3.39.64-1.93 0-3.5-.42-4.71-1.26-1.22-.83-1.83-2.34-1.84-4.51z"/><path id="9" class="fil2" d="M178.26 124.02c-1.47 1.65-2.99 2.48-4.53 2.48-.95 0-1.72-.27-2.31-.81-.58-.54-.87-1.2-.87-1.99 0-.51.14-1.4.43-2.66l1.61-7.11h2.11l-1.79 7.97c-.15.66-.23 1.18-.23 1.55 0 .42.15.76.44.99.28.24.7.35 1.26.35.6 0 1.18-.14 1.75-.42.57-.29 1.06-.67 1.47-1.15.41-.48.75-1.06 1.01-1.72.17-.42.37-1.16.6-2.22l1.17-5.35h2.08l-2.72 12.31h-1.94l.46-2.22z"/><path id="10" class="fil2" d="M182.07 130.96l3.56-17.03h1.94l-.35 1.72c.71-.75 1.35-1.26 1.92-1.55.57-.29 1.17-.43 1.81-.43 1.17 0 2.15.42 2.92 1.27.77.86 1.16 2.08 1.16 3.67 0 1.27-.21 2.44-.64 3.49-.42 1.05-.95 1.9-1.57 2.54-.62.64-1.24 1.11-1.88 1.41-.63.3-1.29.45-1.95.45-1.48 0-2.63-.75-3.44-2.25l-1.39 6.71h-2.09zm4.14-9.74c0 .92.06 1.55.19 1.9.2.5.52.91.96 1.21.44.31.95.46 1.54.46 1.2 0 2.18-.67 2.93-2.03.74-1.35 1.11-2.73 1.11-4.15 0-1.04-.25-1.84-.75-2.41-.5-.56-1.12-.85-1.87-.85-.53 0-1.02.14-1.48.43-.46.27-.89.7-1.28 1.26s-.71 1.25-.97 2.06c-.25.81-.38 1.52-.38 2.12z"/><path id="11" class="fil2" d="M195.27 130.96l3.56-17.03h1.94l-.36 1.72c.72-.75 1.36-1.26 1.93-1.55.57-.29 1.17-.43 1.81-.43 1.17 0 2.14.42 2.92 1.27.77.86 1.16 2.08 1.16 3.67 0 1.27-.22 2.44-.64 3.49-.43 1.05-.95 1.9-1.57 2.54-.62.64-1.25 1.11-1.88 1.41-.64.3-1.29.45-1.95.45-1.48 0-2.63-.75-3.44-2.25l-1.4 6.71h-2.08zm4.13-9.74c0 .92.07 1.55.2 1.9.2.5.52.91.95 1.21.45.31.96.46 1.54.46 1.21 0 2.19-.67 2.93-2.03.75-1.35 1.12-2.73 1.12-4.15 0-1.04-.25-1.84-.75-2.41-.5-.56-1.12-.85-1.87-.85-.53 0-1.03.14-1.49.43-.46.27-.88.7-1.27 1.26s-.72 1.25-.97 2.06c-.26.81-.39 1.52-.39 2.12z"/><path id="12" class="fil2" d="M209.82 121.56c0-2.39.71-4.38 2.12-5.95 1.17-1.29 2.69-1.94 4.59-1.94 1.48 0 2.67.46 3.58 1.38.91.93 1.36 2.18 1.36 3.75 0 1.41-.28 2.72-.86 3.94-.57 1.21-1.38 2.15-2.43 2.79-1.06.65-2.17.97-3.33.97-.96 0-1.83-.2-2.61-.61-.79-.41-1.39-.99-1.8-1.74-.41-.74-.62-1.61-.62-2.59zm2.09-.2c0 1.16.28 2.04.84 2.63.55.6 1.27.9 2.13.9.45 0 .9-.09 1.33-.27.45-.18.86-.46 1.24-.83.38-.37.71-.79.97-1.27.27-.47.49-.98.65-1.53.24-.77.36-1.5.36-2.2 0-1.11-.28-1.97-.84-2.59-.57-.61-1.28-.92-2.13-.92-.66 0-1.26.16-1.8.47-.55.31-1.04.77-1.48 1.37-.44.6-.76 1.3-.96 2.1-.21.8-.31 1.51-.31 2.14z"/><path id="13" class="fil2" d="M222.66 126.24l2.56-12.31h1.87l-.53 2.52c.65-.95 1.27-1.65 1.88-2.1.6-.46 1.22-.68 1.85-.68.42 0 .93.15 1.54.45l-.85 1.94c-.36-.27-.76-.4-1.2-.4-.73 0-1.49.41-2.26 1.23-.78.82-1.39 2.29-1.84 4.42l-1.02 4.93h-2z"/><path id="14" class="fil2" d="M235.44 124.54l-.35 1.72c-.5.13-.98.2-1.45.2-.84 0-1.5-.21-1.99-.62-.37-.31-.56-.73-.56-1.27 0-.27.1-.89.3-1.86l1.5-7.17h-1.66l.33-1.61h1.66l.64-3.02 2.4-1.44-.95 4.46h2.06l-.35 1.61h-2.04l-1.43 6.82c-.18.86-.26 1.38-.26 1.55 0 .25.07.44.21.57.14.13.38.2.7.2.46 0 .88-.05 1.24-.14z"/><path id="15" class="fil2" d="M243.96 126.24l3.56-16.99h5.41c.99 0 1.72.04 2.2.12.78.13 1.44.36 1.97.69.54.33.96.78 1.25 1.35.29.56.44 1.19.44 1.88 0 .93-.26 1.75-.77 2.47-.52.71-1.31 1.24-2.37 1.62.92.3 1.61.75 2.07 1.36.46.61.69 1.31.69 2.12 0 .94-.27 1.84-.82 2.69-.55.86-1.28 1.53-2.18 1.99-.91.47-1.92.7-3.03.7h-8.42zm4.29-9.73h3.62c1.72 0 2.96-.26 3.7-.79.74-.52 1.11-1.29 1.11-2.3 0-.48-.12-.9-.35-1.24-.24-.35-.55-.61-.94-.77-.4-.16-1.14-.24-2.23-.24h-3.79l-1.12 5.34zm-1.63 7.81h4.01c1.07 0 1.78-.03 2.15-.1.75-.13 1.35-.34 1.81-.64.47-.29.84-.69 1.1-1.17.27-.49.4-1 .4-1.54 0-.79-.26-1.4-.77-1.81-.51-.42-1.5-.62-2.96-.62h-4.51l-1.23 5.88z"/><path id="16" class="fil2" d="M258.77 130.98l.12-1.98c.43.12.85.19 1.26.19.43 0 .77-.1 1.04-.29.34-.26.71-.73 1.11-1.44l.68-1.19-2.05-12.34h2.06l.93 6.19c.18 1.22.34 2.44.47 3.67l5.51-9.86h2.17l-7.84 13.93c-.76 1.36-1.43 2.26-2.01 2.7-.59.44-1.27.67-2.03.67-.49 0-.96-.09-1.42-.25z"/><path id="17" class="fil2" d="M278.24 126.24l3.56-16.99h5.42c.98 0 1.72.04 2.19.12.78.13 1.44.36 1.97.69.54.33.96.78 1.25 1.35.3.56.44 1.19.44 1.88 0 .93-.25 1.75-.77 2.47-.52.71-1.31 1.24-2.37 1.62.92.3 1.62.75 2.07 1.36.46.61.69 1.31.69 2.12 0 .94-.27 1.84-.82 2.69-.55.86-1.28 1.53-2.18 1.99-.91.47-1.92.7-3.03.7h-8.42zm4.29-9.73h3.62c1.73 0 2.96-.26 3.7-.79.74-.52 1.11-1.29 1.11-2.3 0-.48-.12-.9-.35-1.24-.24-.35-.55-.61-.94-.77-.4-.16-1.14-.24-2.22-.24h-3.8l-1.12 5.34zm-1.63 7.81h4.01c1.07 0 1.78-.03 2.15-.1.75-.13 1.35-.34 1.82-.64.46-.29.83-.69 1.09-1.17.27-.49.4-1 .4-1.54 0-.79-.25-1.4-.77-1.81-.51-.42-1.49-.62-2.96-.62h-4.51l-1.23 5.88z"/><path id="18" class="fil2" d="M296.87 111.63l.5-2.38h2.08l-.5 2.38h-2.08zm-3.06 14.61l2.58-12.31h2.08l-2.58 12.31h-2.08z"/><path id="19" class="fil2" d="M299.1 126.24l2.58-12.31h1.92l-.45 2.15c.84-.84 1.62-1.45 2.34-1.84.73-.38 1.47-.57 2.23-.57 1.01 0 1.8.27 2.37.81.58.54.87 1.27.87 2.18 0 .45-.11 1.17-.32 2.15l-1.67 7.43h-2.08l1.72-7.78c.17-.76.26-1.32.26-1.68 0-.41-.14-.74-.43-1s-.7-.38-1.25-.38c-1.09 0-2.07.38-2.93 1.15-.85.78-1.48 2.1-1.88 3.97l-1.19 5.72h-2.09z"/><path id="20" class="fil2" d="M320.61 124.71c-.73.63-1.43 1.08-2.1 1.37-.67.28-1.39.42-2.16.42-1.13 0-2.05-.33-2.74-1-.7-.66-1.05-1.52-1.05-2.56 0-.68.16-1.29.47-1.82.32-.52.73-.95 1.24-1.27.52-.32 1.16-.55 1.91-.69.47-.09 1.37-.16 2.69-.22 1.32-.05 2.27-.19 2.84-.41.17-.58.25-1.05.25-1.43 0-.49-.18-.87-.54-1.15-.49-.38-1.2-.57-2.14-.57-.88 0-1.6.19-2.17.58-.56.39-.97.95-1.23 1.67l-2.11-.19c.43-1.22 1.12-2.15 2.05-2.8.94-.65 2.12-.97 3.55-.97 1.52 0 2.72.36 3.61 1.08.68.55 1.02 1.25 1.02 2.11 0 .66-.1 1.42-.29 2.28l-.67 3.06c-.22.97-.32 1.76-.32 2.37 0 .39.08.95.25 1.67h-2.12c-.11-.4-.2-.91-.24-1.53zm.78-4.71c-.29.12-.61.21-.95.27-.34.06-.9.13-1.69.19-1.22.11-2.08.25-2.58.42-.5.16-.88.43-1.14.79-.25.36-.38.76-.38 1.2 0 .59.2 1.08.61 1.45.4.38.98.57 1.73.57.7 0 1.37-.18 2.01-.55.64-.37 1.14-.88 1.52-1.53.37-.66.66-1.59.87-2.81z"/><path id="21" class="fil2" d="M325.52 126.24l2.56-12.31h1.87l-.53 2.52c.65-.95 1.27-1.65 1.88-2.1.6-.46 1.22-.68 1.85-.68.42 0 .93.15 1.54.45l-.85 1.94c-.36-.27-.76-.4-1.2-.4-.73 0-1.49.41-2.26 1.23-.78.82-1.39 2.29-1.84 4.42l-1.02 4.93h-2z"/><path id="22" class="fil2" d="M332.62 130.98l.11-1.98c.44.12.86.19 1.27.19.43 0 .77-.1 1.04-.29.34-.26.71-.73 1.11-1.44l.67-1.19-2.04-12.34h2.06l.93 6.19c.18 1.22.34 2.44.47 3.67l5.51-9.86h2.17l-7.84 13.93c-.76 1.36-1.43 2.26-2.01 2.7-.59.44-1.27.67-2.03.67-.49 0-.96-.09-1.42-.25z"/><path id="23" class="fil2" d="M344.1 126.24l.49-2.37h2.38l-.51 2.37z"/><path id="24" class="fil2" d="M358.59 121.76l2.11.21c-.52 1.54-1.27 2.67-2.24 3.42-.97.74-2.08 1.11-3.31 1.11-1.35 0-2.43-.43-3.26-1.29-.83-.87-1.25-2.07-1.25-3.62 0-1.34.27-2.66.8-3.96.53-1.29 1.3-2.28 2.29-2.95 1-.68 2.13-1.01 3.41-1.01 1.32 0 2.36.37 3.14 1.12.77.74 1.16 1.73 1.16 2.96l-2.07.14c0-.78-.23-1.39-.68-1.83-.44-.44-1.03-.66-1.76-.66-.84 0-1.57.26-2.19.8-.62.53-1.11 1.33-1.46 2.42-.35 1.08-.53 2.13-.53 3.13 0 1.04.24 1.83.7 2.35.46.53 1.04.79 1.72.79.68 0 1.33-.26 1.95-.78.62-.51 1.11-1.3 1.47-2.35z"/><path id="25" class="fil2" d="M362.34 121.56c0-2.39.71-4.38 2.12-5.95 1.16-1.29 2.69-1.94 4.59-1.94 1.47 0 2.67.46 3.58 1.38.9.93 1.36 2.18 1.36 3.75 0 1.41-.29 2.72-.86 3.94-.57 1.21-1.38 2.15-2.43 2.79-1.06.65-2.17.97-3.33.97-.96 0-1.83-.2-2.61-.61-.79-.41-1.39-.99-1.8-1.74-.42-.74-.62-1.61-.62-2.59zm2.09-.2c0 1.16.28 2.04.84 2.63.55.6 1.26.9 2.13.9.45 0 .89-.09 1.33-.27.45-.18.86-.46 1.24-.83.38-.37.71-.79.97-1.27.27-.47.49-.98.65-1.53.24-.77.36-1.5.36-2.2 0-1.11-.28-1.97-.84-2.59-.57-.61-1.28-.92-2.13-.92-.66 0-1.26.16-1.81.47-.54.31-1.03.77-1.47 1.37-.44.6-.76 1.3-.96 2.1-.21.8-.31 1.51-.31 2.14z"/><path id="26" class="fil2" d="M375.16 126.24l2.58-12.31h2.08l-.43 2.03c.78-.87 1.48-1.47 2.09-1.79.62-.34 1.29-.5 2-.5.77 0 1.41.2 1.93.61.51.4.85.97 1.01 1.69.63-.77 1.29-1.35 1.98-1.73.69-.38 1.42-.57 2.19-.57 1.03 0 1.8.24 2.31.72.52.49.77 1.17.77 2.05 0 .38-.09 1-.27 1.88l-1.69 7.92h-2.08l1.71-8.12c.14-.66.22-1.14.22-1.42 0-.41-.13-.72-.39-.95-.25-.24-.61-.35-1.08-.35-.63 0-1.27.19-1.92.56-.65.38-1.16.87-1.52 1.49-.36.61-.67 1.55-.95 2.82l-1.25 5.97h-2.08l1.74-8.29c.12-.57.19-.97.19-1.21 0-.4-.13-.72-.38-.97s-.58-.37-.98-.37c-.6 0-1.22.19-1.88.56-.65.38-1.18.91-1.59 1.58-.41.67-.75 1.64-1.01 2.88l-1.22 5.82h-2.08z"/><path fill="none" d="M0 0h602.85v143.33H0z"/></g></g></svg>