<?xml version="1.0" encoding="UTF-8"?>
<!DOCTYPE svg PUBLIC "-//W3C//DTD SVG 1.1//EN" "http://www.w3.org/Graphics/SVG/1.1/DTD/svg11.dtd">
<!-- Creator: CorelDRAW 2019 (64-Bit) -->
<svg xmlns="http://www.w3.org/2000/svg" xml:space="preserve" width="606px" height="144px" version="1.1" style="shape-rendering:geometricPrecision; text-rendering:geometricPrecision; image-rendering:optimizeQuality; fill-rule:evenodd; clip-rule:evenodd"
viewBox="0 0 576.68 137.1"
 xmlns:xlink="http://www.w3.org/1999/xlink">
 <defs>
  <style type="text/css">
   <![CDATA[
    .fil4 {fill:none}
    .fil0 {fill:#102C63}
    .fil1 {fill:white}
    .fil3 {fill:#F08519;fill-rule:nonzero}
    .fil2 {fill:#FAFCFF;fill-rule:nonzero}
   ]]>
  </style>
 </defs>
 <g id="Layer_x0020_4">
  <metadata id="CorelCorpID_0Corel-Layer"/>
  <g id="_1679403533920">
   <g>
    <g>
     <path class="fil0" d="M69.53 3.89c35.96,0 65.13,29.16 65.13,65.13 0,35.97 -29.17,65.13 -65.13,65.13 -35.97,0 -65.14,-29.16 -65.14,-65.13 0,-35.97 29.17,-65.13 65.14,-65.13z"/>
     <path class="fil1" d="M69.53 12.15c25.05,0 46.33,16.21 53.91,38.72l-20.69 0c-6.43,-11.74 -18.9,-19.7 -33.22,-19.7 -17.62,0 -32.42,12.03 -36.65,28.33 30.91,0 61.82,0 92.72,0 0.52,3.09 0.8,6.27 0.8,9.52 0,31.41 -25.47,56.87 -56.87,56.87 -25.06,0 -46.33,-16.21 -53.91,-38.71l20.69 0c4.95,9.04 13.48,15.83 23.69,18.48l0 -27.11c-15.51,0 -31.03,0 -46.55,0 -0.52,-3.1 -0.8,-6.28 -0.8,-9.53 0,-31.4 25.47,-56.87 56.88,-56.87zm9.52 93.51c13.25,-3.43 23.68,-13.86 27.12,-27.11l-27.12 0 0 27.11z"/>
    </g>
    <path class="fil2" d="M149.76 59.92l12.81 -1.27c0.77,4.28 2.31,7.41 4.66,9.42 2.34,2.02 5.51,3.01 9.48,3.01 4.21,0 7.39,-0.89 9.52,-2.67 2.14,-1.79 3.21,-3.88 3.21,-6.27 0,-1.54 -0.45,-2.84 -1.35,-3.93 -0.89,-1.08 -2.46,-2.02 -4.7,-2.8 -1.53,-0.55 -5.01,-1.49 -10.46,-2.85 -7,-1.75 -11.92,-3.9 -14.75,-6.46 -3.98,-3.59 -5.96,-7.96 -5.96,-13.12 0,-3.31 0.93,-6.43 2.79,-9.32 1.88,-2.89 4.58,-5.08 8.1,-6.6 3.53,-1.51 7.76,-2.27 12.76,-2.27 8.12,0 14.25,1.8 18.35,5.42 4.12,3.62 6.27,8.43 6.48,14.47l-13.17 0.45c-0.56,-3.36 -1.75,-5.76 -3.58,-7.23 -1.83,-1.47 -4.59,-2.21 -8.25,-2.21 -3.78,0 -6.75,0.78 -8.88,2.36 -1.38,1.01 -2.07,2.36 -2.07,4.05 0,1.55 0.65,2.86 1.95,3.95 1.65,1.41 5.66,2.86 12.03,4.38 6.37,1.49 11.07,3.07 14.12,4.67 3.05,1.62 5.44,3.82 7.17,6.62 1.72,2.8 2.59,6.24 2.59,10.35 0,3.72 -1.03,7.21 -3.11,10.47 -2.07,3.25 -4.99,5.67 -8.77,7.24 -3.79,1.59 -8.51,2.38 -14.15,2.38 -8.22,0 -14.53,-1.89 -18.93,-5.69 -4.41,-3.78 -7.02,-9.3 -7.89,-16.55z"/>
    <path id="1" class="fil2" d="M272.33 80.98l-14.17 0 -5.62 -14.8 -26.07 0 -5.4 14.8 -13.92 0 25.24 -65.01 13.9 0 26.04 65.01zm-24.06 -25.78l-9.03 -24.06 -8.78 24.06 17.81 0z"/>
    <path id="2" class="fil2" d="M275.89 59.92l12.8 -1.27c0.78,4.28 2.32,7.41 4.66,9.42 2.35,2.02 5.51,3.01 9.49,3.01 4.21,0 7.39,-0.89 9.52,-2.67 2.13,-1.79 3.21,-3.88 3.21,-6.27 0,-1.54 -0.46,-2.84 -1.35,-3.93 -0.89,-1.08 -2.47,-2.02 -4.71,-2.8 -1.52,-0.55 -5,-1.49 -10.45,-2.85 -7.01,-1.75 -11.93,-3.9 -14.76,-6.46 -3.98,-3.59 -5.96,-7.96 -5.96,-13.12 0,-3.31 0.94,-6.43 2.8,-9.32 1.88,-2.89 4.57,-5.08 8.1,-6.6 3.52,-1.51 7.76,-2.27 12.75,-2.27 8.13,0 14.26,1.8 18.36,5.42 4.12,3.62 6.26,8.43 6.48,14.47l-13.17 0.45c-0.56,-3.36 -1.75,-5.76 -3.59,-7.23 -1.83,-1.47 -4.58,-2.21 -8.24,-2.21 -3.78,0 -6.75,0.78 -8.88,2.36 -1.38,1.01 -2.08,2.36 -2.08,4.05 0,1.55 0.65,2.86 1.95,3.95 1.65,1.41 5.66,2.86 12.03,4.38 6.37,1.49 11.08,3.07 14.12,4.67 3.06,1.62 5.45,3.82 7.18,6.62 1.72,2.8 2.58,6.24 2.58,10.35 0,3.72 -1.03,7.21 -3.1,10.47 -2.07,3.25 -4.99,5.67 -8.78,7.24 -3.78,1.59 -8.5,2.38 -14.14,2.38 -8.22,0 -14.53,-1.89 -18.93,-5.69 -4.41,-3.78 -7.03,-9.3 -7.89,-16.55z"/>
    <polygon id="3" class="fil3" points="354.52,80.98 354.52,26.96 335.27,26.96 335.27,15.97 386.84,15.97 386.84,26.96 367.68,26.96 367.68,80.98 "/>
    <path id="4" class="fil3" d="M402.15 80.98l-12.43 0 0 -47.12 11.53 0 0 6.69c1.98,-3.17 3.76,-5.24 5.35,-6.22 1.59,-0.99 3.39,-1.47 5.41,-1.47 2.84,0 5.58,0.79 8.21,2.35l-3.86 10.86c-2.1,-1.36 -4.05,-2.04 -5.85,-2.04 -1.76,0 -3.24,0.48 -4.45,1.44 -1.21,0.96 -2.17,2.69 -2.86,5.2 -0.7,2.51 -1.05,7.78 -1.05,15.78l0 14.53z"/>
    <path id="5" class="fil3" d="M434.86 48.39l-11.26 -2c1.27,-4.6 3.46,-8.01 6.56,-10.21 3.11,-2.21 7.72,-3.32 13.83,-3.32 5.56,0 9.7,0.65 12.43,1.97 2.71,1.31 4.63,2.98 5.73,5.01 1.11,2.02 1.67,5.73 1.67,11.15l-0.18 14.53c0,4.13 0.19,7.18 0.59,9.15 0.39,1.97 1.13,4.07 2.22,6.31l-12.35 0c-0.31,-0.82 -0.72,-2.03 -1.19,-3.63 -0.2,-0.74 -0.35,-1.23 -0.44,-1.45 -2.12,2.08 -4.39,3.64 -6.81,4.69 -2.42,1.04 -4.99,1.57 -7.73,1.57 -4.83,0 -8.64,-1.32 -11.43,-3.95 -2.78,-2.62 -4.17,-5.95 -4.17,-9.97 0,-2.65 0.63,-5.02 1.9,-7.11 1.27,-2.08 3.04,-3.68 5.34,-4.78 2.29,-1.11 5.59,-2.08 9.9,-2.91 5.81,-1.09 9.85,-2.12 12.09,-3.06l0 -1.25c0,-2.42 -0.59,-4.15 -1.77,-5.19 -1.2,-1.03 -3.43,-1.55 -6.72,-1.55 -2.22,0 -3.95,0.44 -5.19,1.34 -1.25,0.87 -2.25,2.43 -3.02,4.66zm16.7 10.07c-1.59,0.53 -4.12,1.17 -7.58,1.91 -3.45,0.74 -5.72,1.47 -6.78,2.17 -1.62,1.16 -2.44,2.61 -2.44,4.38 0,1.76 0.65,3.26 1.96,4.53 1.3,1.27 2.95,1.9 4.96,1.9 2.24,0 4.39,-0.74 6.43,-2.2 1.5,-1.14 2.5,-2.5 2.97,-4.14 0.31,-1.06 0.48,-3.08 0.48,-6.06l0 -2.49z"/>
    <path id="6" class="fil3" d="M519.31 80.98l-11.53 0 0 -6.91c-1.93,2.69 -4.21,4.7 -6.83,6.06 -2.62,1.35 -5.26,2.03 -7.93,2.03 -5.43,0 -10.08,-2.18 -13.95,-6.55 -3.86,-4.37 -5.8,-10.46 -5.8,-18.28 0,-7.99 1.88,-14.07 5.65,-18.23 3.77,-4.17 8.52,-6.24 14.27,-6.24 5.26,0 9.83,2.19 13.68,6.57l0 -23.46 12.44 0 0 65.01zm-33.23 -24.47c0,5.04 0.69,8.69 2.07,10.94 2.01,3.27 4.81,4.91 8.41,4.91 2.86,0 5.3,-1.23 7.3,-3.68 2.01,-2.45 3.01,-6.1 3.01,-10.97 0,-5.44 -0.97,-9.34 -2.92,-11.73 -1.95,-2.39 -4.44,-3.59 -7.48,-3.59 -2.95,0 -5.41,1.18 -7.41,3.55 -1.99,2.36 -2.98,5.88 -2.98,10.57z"/>
    <path id="7" class="fil3" d="M558.79 66.09l12.43 2.09c-1.58,4.55 -4.11,8.02 -7.55,10.41 -3.45,2.38 -7.76,3.57 -12.92,3.57 -8.19,0 -14.25,-2.68 -18.17,-8.03 -3.11,-4.3 -4.66,-9.72 -4.66,-16.27 0,-7.81 2.04,-13.94 6.11,-18.36 4.07,-4.43 9.23,-6.64 15.47,-6.64 6.99,0 12.51,2.32 16.56,6.95 4.04,4.63 5.98,11.72 5.8,21.29l-31.14 0c0.09,3.69 1.09,6.56 3.01,8.62 1.91,2.06 4.3,3.09 7.14,3.09 1.95,0 3.59,-0.53 4.91,-1.59 1.33,-1.06 2.33,-2.77 3.01,-5.13zm0.72 -12.62c-0.09,-3.62 -1.01,-6.37 -2.78,-8.25 -1.77,-1.89 -3.92,-2.83 -6.46,-2.83 -2.71,0 -4.95,1 -6.72,2.99 -1.77,1.98 -2.63,4.69 -2.6,8.09l18.56 0z"/>
    <path id="8" class="fil2" d="M148.18 115.52l2.13 -0.21 -0.02 0.57c0,0.63 0.14,1.21 0.43,1.73 0.29,0.51 0.76,0.92 1.42,1.2 0.67,0.29 1.46,0.43 2.37,0.43 1.3,0 2.29,-0.28 2.97,-0.85 0.68,-0.58 1.02,-1.23 1.02,-1.96 0,-0.51 -0.18,-0.98 -0.54,-1.4 -0.37,-0.42 -1.37,-0.98 -3.02,-1.69 -1.28,-0.55 -2.15,-0.97 -2.61,-1.27 -0.73,-0.48 -1.27,-1 -1.62,-1.57 -0.34,-0.56 -0.51,-1.2 -0.51,-1.93 0,-0.83 0.23,-1.59 0.68,-2.26 0.46,-0.67 1.13,-1.19 2.01,-1.54 0.88,-0.35 1.88,-0.53 2.99,-0.53 1.32,0 2.44,0.22 3.35,0.66 0.9,0.44 1.56,1.03 1.97,1.77 0.41,0.74 0.62,1.45 0.62,2.12 0,0.06 0,0.17 0,0.33l-2.11 0.16c0,-0.46 -0.04,-0.81 -0.12,-1.07 -0.15,-0.45 -0.38,-0.84 -0.69,-1.15 -0.31,-0.31 -0.73,-0.56 -1.27,-0.75 -0.55,-0.18 -1.15,-0.28 -1.82,-0.28 -1.18,0 -2.1,0.27 -2.75,0.8 -0.5,0.41 -0.75,0.95 -0.75,1.62 0,0.4 0.1,0.76 0.31,1.08 0.2,0.31 0.58,0.62 1.11,0.92 0.38,0.22 1.3,0.64 2.73,1.28 1.17,0.51 1.97,0.92 2.41,1.22 0.59,0.39 1.04,0.86 1.36,1.42 0.32,0.56 0.47,1.19 0.47,1.9 0,0.88 -0.26,1.69 -0.8,2.43 -0.53,0.75 -1.28,1.32 -2.22,1.72 -0.94,0.41 -2.03,0.61 -3.24,0.61 -1.85,0 -3.34,-0.4 -4.51,-1.2 -1.16,-0.79 -1.75,-2.23 -1.75,-4.31z"/>
    <path id="9" class="fil2" d="M170.52 118.63c-1.41,1.59 -2.86,2.38 -4.34,2.38 -0.9,0 -1.64,-0.26 -2.2,-0.77 -0.56,-0.52 -0.84,-1.16 -0.84,-1.91 0,-0.49 0.14,-1.34 0.41,-2.55l1.55 -6.8 2.02 0 -1.72 7.63c-0.14,0.63 -0.21,1.13 -0.21,1.48 0,0.41 0.13,0.72 0.41,0.95 0.27,0.22 0.68,0.34 1.21,0.34 0.57,0 1.13,-0.14 1.67,-0.41 0.55,-0.27 1.02,-0.64 1.41,-1.1 0.39,-0.46 0.72,-1.01 0.96,-1.64 0.17,-0.4 0.36,-1.11 0.58,-2.13l1.12 -5.12 1.99 0 -2.61 11.78 -1.85 0 0.44 -2.13z"/>
    <path id="10" class="fil2" d="M174.17 125.28l3.4 -16.3 1.86 0 -0.34 1.65c0.68,-0.71 1.3,-1.21 1.84,-1.49 0.54,-0.27 1.12,-0.41 1.73,-0.41 1.12,0 2.05,0.41 2.79,1.22 0.74,0.82 1.11,1.99 1.11,3.51 0,1.22 -0.2,2.33 -0.61,3.34 -0.4,1.01 -0.91,1.82 -1.5,2.43 -0.59,0.61 -1.19,1.06 -1.8,1.35 -0.61,0.29 -1.23,0.43 -1.86,0.43 -1.42,0 -2.52,-0.72 -3.3,-2.15l-1.33 6.42 -1.99 0zm3.95 -9.32c0,0.88 0.07,1.48 0.19,1.82 0.19,0.48 0.49,0.86 0.91,1.15 0.43,0.3 0.92,0.45 1.47,0.45 1.16,0 2.09,-0.65 2.81,-1.95 0.71,-1.29 1.06,-2.62 1.06,-3.97 0,-0.99 -0.23,-1.76 -0.71,-2.3 -0.48,-0.54 -1.07,-0.82 -1.79,-0.82 -0.51,0 -0.98,0.14 -1.42,0.41 -0.44,0.27 -0.85,0.67 -1.22,1.21 -0.37,0.54 -0.68,1.19 -0.93,1.97 -0.24,0.78 -0.37,1.45 -0.37,2.03z"/>
    <path id="11" class="fil2" d="M186.79 125.28l3.41 -16.3 1.85 0 -0.34 1.65c0.69,-0.71 1.3,-1.21 1.85,-1.49 0.54,-0.27 1.11,-0.41 1.72,-0.41 1.13,0 2.06,0.41 2.8,1.22 0.74,0.82 1.11,1.99 1.11,3.51 0,1.22 -0.21,2.33 -0.62,3.34 -0.4,1.01 -0.9,1.82 -1.49,2.43 -0.6,0.61 -1.2,1.06 -1.81,1.35 -0.6,0.29 -1.22,0.43 -1.86,0.43 -1.42,0 -2.51,-0.72 -3.29,-2.15l-1.33 6.42 -2 0zm3.96 -9.32c0,0.88 0.06,1.48 0.19,1.82 0.18,0.48 0.49,0.86 0.91,1.15 0.42,0.3 0.91,0.45 1.47,0.45 1.15,0 2.09,-0.65 2.8,-1.95 0.71,-1.29 1.07,-2.62 1.07,-3.97 0,-0.99 -0.24,-1.76 -0.72,-2.3 -0.48,-0.54 -1.07,-0.82 -1.79,-0.82 -0.51,0 -0.98,0.14 -1.42,0.41 -0.44,0.27 -0.84,0.67 -1.22,1.21 -0.37,0.54 -0.68,1.19 -0.93,1.97 -0.24,0.78 -0.36,1.45 -0.36,2.03z"/>
    <path id="12" class="fil2" d="M200.71 116.29c0,-2.3 0.68,-4.19 2.03,-5.7 1.11,-1.24 2.57,-1.86 4.39,-1.86 1.41,0 2.55,0.44 3.42,1.33 0.87,0.89 1.31,2.08 1.31,3.58 0,1.35 -0.28,2.61 -0.82,3.77 -0.55,1.16 -1.33,2.05 -2.34,2.67 -1.01,0.62 -2.06,0.93 -3.18,0.93 -0.92,0 -1.75,-0.2 -2.5,-0.59 -0.75,-0.38 -1.32,-0.94 -1.71,-1.66 -0.4,-0.71 -0.6,-1.54 -0.6,-2.47zm2 -0.2c0,1.11 0.27,1.95 0.8,2.52 0.53,0.57 1.21,0.86 2.04,0.86 0.43,0 0.86,-0.09 1.28,-0.26 0.42,-0.18 0.81,-0.44 1.18,-0.79 0.37,-0.36 0.68,-0.76 0.93,-1.22 0.26,-0.45 0.46,-0.94 0.62,-1.47 0.23,-0.73 0.34,-1.43 0.34,-2.1 0,-1.06 -0.26,-1.89 -0.8,-2.47 -0.54,-0.59 -1.22,-0.88 -2.04,-0.88 -0.63,0 -1.2,0.15 -1.72,0.45 -0.52,0.29 -0.99,0.73 -1.41,1.31 -0.42,0.57 -0.73,1.24 -0.93,2.01 -0.19,0.76 -0.29,1.44 -0.29,2.04z"/>
    <path id="13" class="fil2" d="M213 120.76l2.45 -11.78 1.79 0 -0.51 2.41c0.61,-0.9 1.21,-1.57 1.79,-2.01 0.58,-0.43 1.17,-0.65 1.78,-0.65 0.39,0 0.89,0.15 1.47,0.43l-0.82 1.86c-0.35,-0.25 -0.73,-0.38 -1.14,-0.38 -0.71,0 -1.43,0.39 -2.17,1.18 -0.74,0.78 -1.33,2.19 -1.75,4.22l-0.99 4.72 -1.9 0z"/>
    <path id="14" class="fil2" d="M225.22 119.14l-0.33 1.64c-0.48,0.12 -0.95,0.19 -1.4,0.19 -0.8,0 -1.43,-0.2 -1.9,-0.59 -0.35,-0.3 -0.53,-0.7 -0.53,-1.21 0,-0.26 0.09,-0.86 0.29,-1.79l1.43 -6.85 -1.59 0 0.32 -1.55 1.58 0 0.61 -2.88 2.3 -1.39 -0.91 4.27 1.98 0 -0.34 1.55 -1.96 0 -1.36 6.51c-0.17,0.83 -0.25,1.33 -0.25,1.49 0,0.24 0.07,0.42 0.2,0.54 0.14,0.13 0.36,0.19 0.67,0.19 0.45,0 0.84,-0.04 1.19,-0.12z"/>
    <path id="15" class="fil2" d="M233.37 120.76l3.4 -16.25 5.18 0c0.95,0 1.65,0.04 2.1,0.11 0.75,0.13 1.38,0.35 1.89,0.66 0.51,0.32 0.91,0.75 1.19,1.29 0.28,0.54 0.43,1.14 0.43,1.8 0,0.89 -0.25,1.68 -0.75,2.36 -0.49,0.68 -1.24,1.19 -2.26,1.55 0.88,0.29 1.55,0.72 1.98,1.31 0.44,0.57 0.66,1.25 0.66,2.03 0,0.89 -0.26,1.75 -0.78,2.57 -0.53,0.82 -1.23,1.46 -2.09,1.9 -0.87,0.45 -1.83,0.67 -2.9,0.67l-8.05 0zm4.1 -9.3l3.46 0c1.65,0 2.84,-0.26 3.55,-0.76 0.7,-0.5 1.06,-1.24 1.06,-2.2 0,-0.46 -0.12,-0.86 -0.34,-1.19 -0.23,-0.34 -0.53,-0.58 -0.9,-0.73 -0.38,-0.16 -1.09,-0.23 -2.13,-0.23l-3.63 0 -1.07 5.11zm-1.56 7.46l3.84 0c1.02,0 1.7,-0.03 2.05,-0.09 0.72,-0.13 1.3,-0.33 1.74,-0.61 0.45,-0.29 0.8,-0.66 1.05,-1.13 0.25,-0.47 0.38,-0.95 0.38,-1.47 0,-0.76 -0.24,-1.33 -0.73,-1.73 -0.49,-0.4 -1.44,-0.6 -2.84,-0.6l-4.31 0 -1.18 5.63z"/>
    <path id="16" class="fil2" d="M247.53 125.29l0.12 -1.89c0.41,0.12 0.81,0.18 1.21,0.18 0.4,0 0.73,-0.09 0.99,-0.28 0.32,-0.24 0.68,-0.7 1.07,-1.37l0.64 -1.15 -1.96 -11.8 1.97 0 0.89 5.93c0.18,1.16 0.33,2.33 0.45,3.5l5.27 -9.43 2.07 0 -7.49 13.33c-0.73,1.3 -1.37,2.16 -1.93,2.58 -0.56,0.43 -1.21,0.64 -1.93,0.64 -0.47,0 -0.92,-0.08 -1.37,-0.24z"/>
    <path id="17" class="fil2" d="M266.16 120.76l3.41 -16.25 5.18 0c0.94,0 1.64,0.04 2.1,0.11 0.74,0.13 1.37,0.35 1.88,0.66 0.52,0.32 0.92,0.75 1.2,1.29 0.28,0.54 0.42,1.14 0.42,1.8 0,0.89 -0.25,1.68 -0.74,2.36 -0.49,0.68 -1.25,1.19 -2.27,1.55 0.89,0.29 1.55,0.72 1.99,1.31 0.44,0.57 0.66,1.25 0.66,2.03 0,0.89 -0.26,1.75 -0.79,2.57 -0.53,0.82 -1.22,1.46 -2.09,1.9 -0.87,0.45 -1.83,0.67 -2.9,0.67l-8.05 0zm4.11 -9.3l3.46 0c1.65,0 2.83,-0.26 3.54,-0.76 0.71,-0.5 1.06,-1.24 1.06,-2.2 0,-0.46 -0.11,-0.86 -0.34,-1.19 -0.22,-0.34 -0.52,-0.58 -0.9,-0.73 -0.38,-0.16 -1.08,-0.23 -2.12,-0.23l-3.63 0 -1.07 5.11zm-1.56 7.46l3.84 0c1.01,0 1.7,-0.03 2.05,-0.09 0.71,-0.13 1.29,-0.33 1.74,-0.61 0.44,-0.29 0.79,-0.66 1.04,-1.13 0.26,-0.47 0.38,-0.95 0.38,-1.47 0,-0.76 -0.24,-1.33 -0.73,-1.73 -0.49,-0.4 -1.43,-0.6 -2.83,-0.6l-4.31 0 -1.18 5.63z"/>
    <path id="18" class="fil2" d="M283.98 106.78l0.48 -2.27 1.99 0 -0.47 2.27 -2 0zm-2.93 13.98l2.47 -11.78 1.99 0 -2.46 11.78 -2 0z"/>
    <path id="19" class="fil2" d="M286.12 120.76l2.47 -11.78 1.83 0 -0.43 2.06c0.8,-0.8 1.55,-1.39 2.24,-1.76 0.7,-0.36 1.41,-0.55 2.13,-0.55 0.97,0 1.72,0.26 2.27,0.78 0.55,0.52 0.83,1.21 0.83,2.08 0,0.44 -0.11,1.12 -0.31,2.06l-1.59 7.11 -2 0 1.66 -7.45c0.16,-0.72 0.24,-1.26 0.24,-1.6 0,-0.39 -0.13,-0.71 -0.41,-0.95 -0.28,-0.25 -0.67,-0.37 -1.2,-0.37 -1.04,0 -1.97,0.37 -2.8,1.1 -0.81,0.74 -1.41,2 -1.8,3.79l-1.14 5.48 -1.99 0z"/>
    <path id="20" class="fil2" d="M306.69 119.3c-0.7,0.6 -1.37,1.03 -2.01,1.3 -0.64,0.28 -1.33,0.41 -2.06,0.41 -1.09,0 -1.96,-0.32 -2.63,-0.96 -0.66,-0.63 -1,-1.45 -1,-2.44 0,-0.66 0.15,-1.24 0.45,-1.75 0.3,-0.5 0.7,-0.9 1.19,-1.21 0.5,-0.31 1.1,-0.53 1.82,-0.66 0.45,-0.09 1.31,-0.16 2.58,-0.21 1.26,-0.05 2.17,-0.19 2.72,-0.4 0.15,-0.55 0.23,-1 0.23,-1.36 0,-0.47 -0.17,-0.83 -0.51,-1.1 -0.47,-0.37 -1.15,-0.55 -2.05,-0.55 -0.84,0 -1.54,0.18 -2.08,0.56 -0.53,0.37 -0.92,0.9 -1.17,1.59l-2.02 -0.18c0.41,-1.16 1.07,-2.06 1.96,-2.68 0.9,-0.62 2.03,-0.93 3.4,-0.93 1.45,0 2.6,0.35 3.45,1.04 0.65,0.52 0.97,1.19 0.97,2.02 0,0.63 -0.09,1.35 -0.27,2.18l-0.65 2.93c-0.2,0.93 -0.3,1.68 -0.3,2.27 0,0.37 0.08,0.9 0.24,1.59l-2.03 0c-0.11,-0.38 -0.19,-0.87 -0.23,-1.46zm0.75 -4.51c-0.28,0.11 -0.59,0.2 -0.91,0.26 -0.32,0.06 -0.86,0.12 -1.62,0.18 -1.17,0.11 -1.99,0.24 -2.47,0.4 -0.48,0.16 -0.84,0.41 -1.08,0.76 -0.25,0.35 -0.37,0.73 -0.37,1.15 0,0.56 0.19,1.02 0.58,1.38 0.39,0.37 0.94,0.55 1.66,0.55 0.66,0 1.3,-0.18 1.92,-0.53 0.61,-0.35 1.09,-0.84 1.45,-1.47 0.36,-0.62 0.64,-1.52 0.84,-2.68z"/>
    <path id="21" class="fil2" d="M311.39 120.76l2.45 -11.78 1.79 0 -0.51 2.41c0.62,-0.9 1.21,-1.57 1.79,-2.01 0.58,-0.43 1.17,-0.65 1.78,-0.65 0.4,0 0.89,0.15 1.47,0.43l-0.82 1.86c-0.34,-0.25 -0.72,-0.38 -1.14,-0.38 -0.7,0 -1.42,0.39 -2.17,1.18 -0.74,0.78 -1.32,2.19 -1.75,4.22l-0.98 4.72 -1.91 0z"/>
    <path id="22" class="fil2" d="M318.18 125.29l0.11 -1.89c0.42,0.12 0.82,0.18 1.21,0.18 0.41,0 0.74,-0.09 0.99,-0.28 0.33,-0.24 0.68,-0.7 1.07,-1.37l0.64 -1.15 -1.96 -11.8 1.98 0 0.88 5.93c0.18,1.16 0.33,2.33 0.46,3.5l5.26 -9.43 2.08 0 -7.5 13.33c-0.72,1.3 -1.37,2.16 -1.93,2.58 -0.55,0.43 -1.2,0.64 -1.93,0.64 -0.47,0 -0.92,-0.08 -1.36,-0.24z"/>
    <polygon id="23" class="fil2" points="329.16,120.76 329.63,118.49 331.9,118.49 331.42,120.76 "/>
    <path id="24" class="fil2" d="M343.02 116.47l2.02 0.21c-0.5,1.46 -1.22,2.55 -2.15,3.26 -0.92,0.72 -1.98,1.07 -3.16,1.07 -1.29,0 -2.32,-0.41 -3.12,-1.24 -0.79,-0.82 -1.19,-1.98 -1.19,-3.46 0,-1.28 0.25,-2.54 0.76,-3.78 0.51,-1.24 1.24,-2.19 2.19,-2.83 0.96,-0.65 2.04,-0.97 3.26,-0.97 1.26,0 2.27,0.36 3.01,1.07 0.74,0.72 1.11,1.66 1.11,2.84l-1.98 0.13c-0.01,-0.74 -0.22,-1.33 -0.65,-1.75 -0.42,-0.42 -0.99,-0.63 -1.68,-0.63 -0.81,0 -1.51,0.25 -2.1,0.76 -0.59,0.51 -1.06,1.28 -1.39,2.32 -0.34,1.03 -0.51,2.03 -0.51,2.99 0,1 0.22,1.76 0.66,2.25 0.45,0.51 1,0.76 1.65,0.76 0.65,0 1.27,-0.25 1.87,-0.74 0.59,-0.5 1.06,-1.25 1.4,-2.26z"/>
    <path id="25" class="fil2" d="M346.61 116.29c0,-2.3 0.68,-4.19 2.03,-5.7 1.11,-1.24 2.57,-1.86 4.38,-1.86 1.42,0 2.56,0.44 3.43,1.33 0.87,0.89 1.3,2.08 1.3,3.58 0,1.35 -0.27,2.61 -0.82,3.77 -0.54,1.16 -1.32,2.05 -2.33,2.67 -1.01,0.62 -2.07,0.93 -3.18,0.93 -0.92,0 -1.75,-0.2 -2.5,-0.59 -0.75,-0.38 -1.32,-0.94 -1.72,-1.66 -0.4,-0.71 -0.59,-1.54 -0.59,-2.47zm1.99 -0.2c0,1.11 0.27,1.95 0.81,2.52 0.53,0.57 1.21,0.86 2.04,0.86 0.43,0 0.86,-0.09 1.27,-0.26 0.43,-0.18 0.82,-0.44 1.19,-0.79 0.36,-0.36 0.67,-0.76 0.93,-1.22 0.25,-0.45 0.46,-0.94 0.62,-1.47 0.23,-0.73 0.34,-1.43 0.34,-2.1 0,-1.06 -0.27,-1.89 -0.81,-2.47 -0.54,-0.59 -1.21,-0.88 -2.03,-0.88 -0.63,0 -1.21,0.15 -1.73,0.45 -0.52,0.29 -0.99,0.73 -1.41,1.31 -0.42,0.57 -0.72,1.24 -0.92,2.01 -0.2,0.76 -0.3,1.44 -0.3,2.04z"/>
    <path id="26" class="fil2" d="M358.87 120.76l2.47 -11.78 1.99 0 -0.41 1.95c0.75,-0.83 1.42,-1.41 2,-1.72 0.59,-0.32 1.23,-0.48 1.92,-0.48 0.73,0 1.34,0.19 1.83,0.58 0.5,0.39 0.82,0.93 0.97,1.63 0.6,-0.74 1.24,-1.29 1.9,-1.66 0.66,-0.37 1.36,-0.55 2.09,-0.55 0.98,0 1.72,0.23 2.21,0.7 0.49,0.46 0.74,1.11 0.74,1.95 0,0.37 -0.09,0.96 -0.26,1.8l-1.61 7.58 -2 0 1.64 -7.77c0.13,-0.63 0.21,-1.09 0.21,-1.36 0,-0.39 -0.13,-0.69 -0.37,-0.91 -0.25,-0.22 -0.59,-0.33 -1.04,-0.33 -0.6,0 -1.21,0.18 -1.83,0.54 -0.63,0.36 -1.11,0.83 -1.45,1.42 -0.35,0.59 -0.65,1.49 -0.91,2.7l-1.2 5.71 -1.99 0 1.66 -7.94c0.12,-0.54 0.18,-0.92 0.18,-1.15 0,-0.38 -0.12,-0.69 -0.36,-0.93 -0.24,-0.23 -0.55,-0.35 -0.94,-0.35 -0.57,0 -1.16,0.18 -1.79,0.54 -0.63,0.36 -1.13,0.87 -1.53,1.51 -0.39,0.64 -0.71,1.56 -0.96,2.76l-1.17 5.56 -1.99 0z"/>
   </g>
   <rect class="fil4" width="576.68" height="137.1"/>
  </g>
 </g>
</svg>
