<?xml version="1.0" encoding="UTF-8"?>
<!DOCTYPE svg PUBLIC "-//W3C//DTD SVG 1.1//EN" "http://www.w3.org/Graphics/SVG/1.1/DTD/svg11.dtd">
<!-- Creator: CorelDRAW 2019 (64-Bit) -->
<svg xmlns="http://www.w3.org/2000/svg" xml:space="preserve" width="606px" height="144px" version="1.1" style="shape-rendering:geometricPrecision; text-rendering:geometricPrecision; image-rendering:optimizeQuality; fill-rule:evenodd; clip-rule:evenodd"
viewBox="0 0 602.85 143.33"
 xmlns:xlink="http://www.w3.org/1999/xlink">
 <defs>
  <style type="text/css">
   <![CDATA[
    .fil4 {fill:none}
    .fil0 {fill:#102C63}
    .fil1 {fill:white}
    .fil2 {fill:#102C63;fill-rule:nonzero}
    .fil3 {fill:#F08519;fill-rule:nonzero}
   ]]>
  </style>
 </defs>
 <g id="Layer_x0020_4">
  <metadata id="CorelCorpID_0Corel-Layer"/>
  <g id="_1715825869200">
   <g>
    <g>
     <path class="fil0" d="M72.68 4.06c37.6,0 68.09,30.5 68.09,68.09 0,37.6 -30.49,68.09 -68.09,68.09 -37.6,0 -68.09,-30.49 -68.09,-68.09 0,-37.59 30.49,-68.09 68.09,-68.09z"/>
     <path class="fil1" d="M72.68 12.7c26.2,0 48.44,16.95 56.36,40.47l-21.63 0c-6.72,-12.27 -19.75,-20.59 -34.73,-20.59 -18.41,0 -33.89,12.58 -38.3,29.62 32.3,0 64.61,0 96.92,0 0.55,3.23 0.84,6.56 0.84,9.95 0,32.83 -26.63,59.46 -59.46,59.46 -26.19,0 -48.43,-16.95 -56.35,-40.48l21.63 0c5.17,9.45 14.09,16.56 24.76,19.33l0 -28.35c-16.22,0 -32.44,0 -48.65,0 -0.55,-3.24 -0.84,-6.56 -0.84,-9.96 0,-32.83 26.62,-59.45 59.45,-59.45zm9.96 97.76c13.85,-3.59 24.76,-14.5 28.35,-28.35l-28.35 0 0 28.35z"/>
    </g>
    <path class="fil2" d="M156.56 62.64l13.38 -1.33c0.81,4.47 2.42,7.75 4.88,9.85 2.45,2.11 5.76,3.15 9.91,3.15 4.4,0 7.72,-0.93 9.96,-2.8 2.23,-1.87 3.35,-4.05 3.35,-6.55 0,-1.61 -0.48,-2.97 -1.41,-4.11 -0.93,-1.12 -2.58,-2.11 -4.92,-2.93 -1.6,-0.57 -5.23,-1.55 -10.93,-2.97 -7.32,-1.84 -12.47,-4.08 -15.42,-6.76 -4.16,-3.75 -6.24,-8.32 -6.24,-13.71 0,-3.47 0.99,-6.72 2.93,-9.75 1.96,-3.02 4.78,-5.31 8.46,-6.89 3.69,-1.58 8.12,-2.38 13.34,-2.38 8.49,0 14.9,1.89 19.19,5.67 4.3,3.78 6.55,8.81 6.77,15.12l-13.76 0.48c-0.59,-3.52 -1.84,-6.03 -3.75,-7.57 -1.92,-1.53 -4.8,-2.31 -8.63,-2.31 -3.95,0 -7.05,0.83 -9.28,2.47 -1.44,1.06 -2.17,2.47 -2.17,4.24 0,1.61 0.68,2.99 2.04,4.13 1.73,1.47 5.92,2.99 12.58,4.57 6.66,1.57 11.58,3.21 14.76,4.89 3.19,1.69 5.69,3.99 7.5,6.91 1.8,2.93 2.7,6.54 2.7,10.82 0,3.89 -1.07,7.55 -3.24,10.95 -2.17,3.4 -5.22,5.93 -9.18,7.58 -3.95,1.66 -8.89,2.48 -14.79,2.48 -8.59,0 -15.18,-1.98 -19.79,-5.95 -4.6,-3.95 -7.34,-9.73 -8.24,-17.3z"/>
    <path id="1" class="fil2" d="M284.69 84.66l-14.82 0 -5.87 -15.47 -27.25 0 -5.65 15.47 -14.55 0 26.38 -67.96 14.54 0 27.22 67.96zm-25.15 -26.96l-9.44 -25.15 -9.18 25.15 18.62 0z"/>
    <path id="2" class="fil2" d="M288.41 62.64l13.39 -1.33c0.8,4.47 2.42,7.75 4.87,9.85 2.45,2.11 5.76,3.15 9.92,3.15 4.39,0 7.72,-0.93 9.95,-2.8 2.23,-1.87 3.35,-4.05 3.35,-6.55 0,-1.61 -0.47,-2.97 -1.41,-4.11 -0.93,-1.12 -2.58,-2.11 -4.92,-2.93 -1.6,-0.57 -5.23,-1.55 -10.93,-2.97 -7.32,-1.84 -12.46,-4.08 -15.42,-6.76 -4.16,-3.75 -6.23,-8.32 -6.23,-13.71 0,-3.47 0.98,-6.72 2.92,-9.75 1.96,-3.02 4.78,-5.31 8.47,-6.89 3.68,-1.58 8.11,-2.38 13.33,-2.38 8.49,0 14.9,1.89 19.19,5.67 4.3,3.78 6.55,8.81 6.77,15.12l-13.76 0.48c-0.59,-3.52 -1.84,-6.03 -3.75,-7.57 -1.92,-1.53 -4.8,-2.31 -8.62,-2.31 -3.96,0 -7.06,0.83 -9.29,2.47 -1.44,1.06 -2.17,2.47 -2.17,4.24 0,1.61 0.68,2.99 2.04,4.13 1.73,1.47 5.92,2.99 12.58,4.57 6.66,1.57 11.58,3.21 14.76,4.89 3.19,1.69 5.69,3.99 7.5,6.91 1.8,2.93 2.7,6.54 2.7,10.82 0,3.89 -1.07,7.55 -3.24,10.95 -2.17,3.4 -5.22,5.93 -9.18,7.58 -3.95,1.66 -8.89,2.48 -14.79,2.48 -8.59,0 -15.18,-1.98 -19.79,-5.95 -4.6,-3.95 -7.34,-9.73 -8.24,-17.3z"/>
    <polygon id="3" class="fil3" points="370.61,84.66 370.61,28.18 350.49,28.18 350.49,16.7 404.4,16.7 404.4,28.18 384.37,28.18 384.37,84.66 "/>
    <path id="4" class="fil3" d="M420.41 84.66l-13.01 0 0 -49.26 12.06 0 0 6.99c2.07,-3.31 3.94,-5.48 5.6,-6.5 1.66,-1.03 3.54,-1.54 5.64,-1.54 2.98,0 5.84,0.82 8.59,2.45l-4.03 11.36c-2.2,-1.42 -4.24,-2.13 -6.12,-2.13 -1.84,0 -3.39,0.5 -4.65,1.5 -1.27,1.01 -2.26,2.82 -2.99,5.44 -0.73,2.63 -1.09,8.13 -1.09,16.5l0 15.19z"/>
    <path id="5" class="fil3" d="M454.59 50.58l-11.77 -2.09c1.33,-4.8 3.62,-8.36 6.87,-10.67 3.24,-2.31 8.06,-3.47 14.46,-3.47 5.8,0 10.14,0.68 12.98,2.06 2.83,1.38 4.84,3.11 6,5.23 1.15,2.12 1.74,6 1.74,11.66l-0.19 15.19c0,4.32 0.2,7.51 0.62,9.57 0.41,2.06 1.18,4.26 2.32,6.6l-12.91 0c-0.33,-0.86 -0.76,-2.12 -1.25,-3.8 -0.2,-0.78 -0.36,-1.28 -0.46,-1.52 -2.21,2.18 -4.58,3.81 -7.12,4.9 -2.53,1.1 -5.22,1.65 -8.08,1.65 -5.04,0 -9.03,-1.38 -11.94,-4.13 -2.91,-2.74 -4.37,-6.22 -4.37,-10.42 0,-2.77 0.67,-5.26 2,-7.44 1.32,-2.17 3.18,-3.84 5.58,-5 2.39,-1.15 5.84,-2.16 10.34,-3.03 6.08,-1.14 10.3,-2.22 12.64,-3.2l0 -1.31c0,-2.53 -0.61,-4.34 -1.85,-5.43 -1.25,-1.07 -3.59,-1.61 -7.02,-1.61 -2.32,0 -4.13,0.46 -5.43,1.39 -1.31,0.92 -2.35,2.55 -3.16,4.87zm17.46 10.54c-1.66,0.55 -4.3,1.22 -7.92,1.99 -3.61,0.78 -5.98,1.53 -7.09,2.26 -1.69,1.22 -2.54,2.74 -2.54,4.59 0,1.84 0.68,3.4 2.04,4.73 1.36,1.33 3.08,1.99 5.18,1.99 2.35,0 4.59,-0.77 6.73,-2.31 1.56,-1.18 2.61,-2.61 3.1,-4.32 0.33,-1.1 0.5,-3.22 0.5,-6.34l0 -2.59z"/>
    <path id="6" class="fil3" d="M542.88 84.66l-12.06 0 0 -7.23c-2.01,2.81 -4.4,4.92 -7.13,6.34 -2.74,1.41 -5.51,2.12 -8.29,2.12 -5.68,0 -10.54,-2.28 -14.59,-6.85 -4.03,-4.57 -6.06,-10.93 -6.06,-19.11 0,-8.35 1.97,-14.71 5.9,-19.06 3.94,-4.35 8.91,-6.52 14.92,-6.52 5.51,0 10.28,2.3 14.3,6.87l0 -24.52 13.01 0 0 67.96zm-34.74 -25.58c0,5.27 0.72,9.08 2.16,11.43 2.11,3.42 5.03,5.13 8.8,5.13 2.99,0 5.54,-1.28 7.62,-3.84 2.11,-2.57 3.15,-6.38 3.15,-11.47 0,-5.68 -1.01,-9.76 -3.05,-12.26 -2.04,-2.5 -4.64,-3.75 -7.82,-3.75 -3.08,0 -5.66,1.23 -7.75,3.7 -2.07,2.47 -3.11,6.15 -3.11,11.06z"/>
    <path id="7" class="fil3" d="M584.15 69.09l13 2.18c-1.66,4.76 -4.3,8.39 -7.89,10.89 -3.61,2.48 -8.12,3.73 -13.51,3.73 -8.56,0 -14.9,-2.8 -19,-8.4 -3.24,-4.49 -4.87,-10.16 -4.87,-17 0,-8.17 2.13,-14.57 6.39,-19.19 4.25,-4.64 9.65,-6.95 16.16,-6.95 7.31,0 13.09,2.42 17.33,7.26 4.22,4.84 6.24,12.26 6.05,22.26l-32.55 0c0.09,3.86 1.14,6.87 3.15,9.02 1.99,2.15 4.49,3.22 7.46,3.22 2.04,0 3.75,-0.55 5.13,-1.66 1.39,-1.1 2.44,-2.89 3.15,-5.36zm0.76 -13.19c-0.1,-3.78 -1.06,-6.66 -2.91,-8.62 -1.85,-1.98 -4.1,-2.96 -6.76,-2.96 -2.83,0 -5.17,1.04 -7.02,3.11 -1.85,2.08 -2.75,4.91 -2.72,8.47l19.41 0z"/>
    <path id="8" class="fil2" d="M154.9 120.76l2.23 -0.21 -0.02 0.59c0,0.66 0.15,1.26 0.45,1.8 0.3,0.55 0.8,0.97 1.49,1.27 0.69,0.29 1.52,0.44 2.48,0.44 1.35,0 2.38,-0.29 3.1,-0.89 0.71,-0.6 1.07,-1.28 1.07,-2.04 0,-0.54 -0.19,-1.03 -0.57,-1.47 -0.39,-0.43 -1.44,-1.02 -3.16,-1.76 -1.33,-0.58 -2.24,-1.02 -2.73,-1.33 -0.76,-0.5 -1.32,-1.05 -1.69,-1.64 -0.36,-0.59 -0.54,-1.26 -0.54,-2.02 0,-0.87 0.24,-1.66 0.72,-2.36 0.48,-0.71 1.18,-1.25 2.1,-1.61 0.92,-0.38 1.96,-0.56 3.12,-0.56 1.39,0 2.55,0.23 3.5,0.69 0.95,0.46 1.64,1.08 2.07,1.85 0.43,0.77 0.64,1.51 0.64,2.21 0,0.07 0,0.19 0,0.35l-2.21 0.17c0,-0.48 -0.04,-0.85 -0.12,-1.12 -0.16,-0.47 -0.39,-0.87 -0.72,-1.2 -0.32,-0.32 -0.76,-0.58 -1.33,-0.78 -0.57,-0.2 -1.2,-0.3 -1.9,-0.3 -1.23,0 -2.19,0.28 -2.87,0.84 -0.53,0.42 -0.79,0.99 -0.79,1.69 0,0.42 0.11,0.8 0.32,1.13 0.22,0.33 0.61,0.65 1.17,0.97 0.4,0.22 1.35,0.66 2.85,1.33 1.22,0.54 2.06,0.96 2.52,1.27 0.62,0.41 1.09,0.91 1.42,1.49 0.33,0.58 0.5,1.24 0.5,1.99 0,0.92 -0.28,1.76 -0.84,2.54 -0.56,0.78 -1.34,1.38 -2.32,1.8 -0.99,0.42 -2.12,0.64 -3.39,0.64 -1.93,0 -3.5,-0.42 -4.71,-1.26 -1.22,-0.83 -1.83,-2.34 -1.84,-4.51z"/>
    <path id="9" class="fil2" d="M178.26 124.02c-1.47,1.65 -2.99,2.48 -4.53,2.48 -0.95,0 -1.72,-0.27 -2.31,-0.81 -0.58,-0.54 -0.87,-1.2 -0.87,-1.99 0,-0.51 0.14,-1.4 0.43,-2.66l1.61 -7.11 2.11 0 -1.79 7.97c-0.15,0.66 -0.23,1.18 -0.23,1.55 0,0.42 0.15,0.76 0.44,0.99 0.28,0.24 0.7,0.35 1.26,0.35 0.6,0 1.18,-0.14 1.75,-0.42 0.57,-0.29 1.06,-0.67 1.47,-1.15 0.41,-0.48 0.75,-1.06 1.01,-1.72 0.17,-0.42 0.37,-1.16 0.6,-2.22l1.17 -5.35 2.08 0 -2.72 12.31 -1.94 0 0.46 -2.22z"/>
    <path id="10" class="fil2" d="M182.07 130.96l3.56 -17.03 1.94 0 -0.35 1.72c0.71,-0.75 1.35,-1.26 1.92,-1.55 0.57,-0.29 1.17,-0.43 1.81,-0.43 1.17,0 2.15,0.42 2.92,1.27 0.77,0.86 1.16,2.08 1.16,3.67 0,1.27 -0.21,2.44 -0.64,3.49 -0.42,1.05 -0.95,1.9 -1.57,2.54 -0.62,0.64 -1.24,1.11 -1.88,1.41 -0.63,0.3 -1.29,0.45 -1.95,0.45 -1.48,0 -2.63,-0.75 -3.44,-2.25l-1.39 6.71 -2.09 0zm4.14 -9.74c0,0.92 0.06,1.55 0.19,1.9 0.2,0.5 0.52,0.91 0.96,1.21 0.44,0.31 0.95,0.46 1.54,0.46 1.2,0 2.18,-0.67 2.93,-2.03 0.74,-1.35 1.11,-2.73 1.11,-4.15 0,-1.04 -0.25,-1.84 -0.75,-2.41 -0.5,-0.56 -1.12,-0.85 -1.87,-0.85 -0.53,0 -1.02,0.14 -1.48,0.43 -0.46,0.27 -0.89,0.7 -1.28,1.26 -0.39,0.56 -0.71,1.25 -0.97,2.06 -0.25,0.81 -0.38,1.52 -0.38,2.12z"/>
    <path id="11" class="fil2" d="M195.27 130.96l3.56 -17.03 1.94 0 -0.36 1.72c0.72,-0.75 1.36,-1.26 1.93,-1.55 0.57,-0.29 1.17,-0.43 1.81,-0.43 1.17,0 2.14,0.42 2.92,1.27 0.77,0.86 1.16,2.08 1.16,3.67 0,1.27 -0.22,2.44 -0.64,3.49 -0.43,1.05 -0.95,1.9 -1.57,2.54 -0.62,0.64 -1.25,1.11 -1.88,1.41 -0.64,0.3 -1.29,0.45 -1.95,0.45 -1.48,0 -2.63,-0.75 -3.44,-2.25l-1.4 6.71 -2.08 0zm4.13 -9.74c0,0.92 0.07,1.55 0.2,1.9 0.2,0.5 0.52,0.91 0.95,1.21 0.45,0.31 0.96,0.46 1.54,0.46 1.21,0 2.19,-0.67 2.93,-2.03 0.75,-1.35 1.12,-2.73 1.12,-4.15 0,-1.04 -0.25,-1.84 -0.75,-2.41 -0.5,-0.56 -1.12,-0.85 -1.87,-0.85 -0.53,0 -1.03,0.14 -1.49,0.43 -0.46,0.27 -0.88,0.7 -1.27,1.26 -0.39,0.56 -0.72,1.25 -0.97,2.06 -0.26,0.81 -0.39,1.52 -0.39,2.12z"/>
    <path id="12" class="fil2" d="M209.82 121.56c0,-2.39 0.71,-4.38 2.12,-5.95 1.17,-1.29 2.69,-1.94 4.59,-1.94 1.48,0 2.67,0.46 3.58,1.38 0.91,0.93 1.36,2.18 1.36,3.75 0,1.41 -0.28,2.72 -0.86,3.94 -0.57,1.21 -1.38,2.15 -2.43,2.79 -1.06,0.65 -2.17,0.97 -3.33,0.97 -0.96,0 -1.83,-0.2 -2.61,-0.61 -0.79,-0.41 -1.39,-0.99 -1.8,-1.74 -0.41,-0.74 -0.62,-1.61 -0.62,-2.59zm2.09 -0.2c0,1.16 0.28,2.04 0.84,2.63 0.55,0.6 1.27,0.9 2.13,0.9 0.45,0 0.9,-0.09 1.33,-0.27 0.45,-0.18 0.86,-0.46 1.24,-0.83 0.38,-0.37 0.71,-0.79 0.97,-1.27 0.27,-0.47 0.49,-0.98 0.65,-1.53 0.24,-0.77 0.36,-1.5 0.36,-2.2 0,-1.11 -0.28,-1.97 -0.84,-2.59 -0.57,-0.61 -1.28,-0.92 -2.13,-0.92 -0.66,0 -1.26,0.16 -1.8,0.47 -0.55,0.31 -1.04,0.77 -1.48,1.37 -0.44,0.6 -0.76,1.3 -0.96,2.1 -0.21,0.8 -0.31,1.51 -0.31,2.14z"/>
    <path id="13" class="fil2" d="M222.66 126.24l2.56 -12.31 1.87 0 -0.53 2.52c0.65,-0.95 1.27,-1.65 1.88,-2.1 0.6,-0.46 1.22,-0.68 1.85,-0.68 0.42,0 0.93,0.15 1.54,0.45l-0.85 1.94c-0.36,-0.27 -0.76,-0.4 -1.2,-0.4 -0.73,0 -1.49,0.41 -2.26,1.23 -0.78,0.82 -1.39,2.29 -1.84,4.42l-1.02 4.93 -2 0z"/>
    <path id="14" class="fil2" d="M235.44 124.54l-0.35 1.72c-0.5,0.13 -0.98,0.2 -1.45,0.2 -0.84,0 -1.5,-0.21 -1.99,-0.62 -0.37,-0.31 -0.56,-0.73 -0.56,-1.27 0,-0.27 0.1,-0.89 0.3,-1.86l1.5 -7.17 -1.66 0 0.33 -1.61 1.66 0 0.64 -3.02 2.4 -1.44 -0.95 4.46 2.06 0 -0.35 1.61 -2.04 0 -1.43 6.82c-0.18,0.86 -0.26,1.38 -0.26,1.55 0,0.25 0.07,0.44 0.21,0.57 0.14,0.13 0.38,0.2 0.7,0.2 0.46,0 0.88,-0.05 1.24,-0.14z"/>
    <path id="15" class="fil2" d="M243.96 126.24l3.56 -16.99 5.41 0c0.99,0 1.72,0.04 2.2,0.12 0.78,0.13 1.44,0.36 1.97,0.69 0.54,0.33 0.96,0.78 1.25,1.35 0.29,0.56 0.44,1.19 0.44,1.88 0,0.93 -0.26,1.75 -0.77,2.47 -0.52,0.71 -1.31,1.24 -2.37,1.62 0.92,0.3 1.61,0.75 2.07,1.36 0.46,0.61 0.69,1.31 0.69,2.12 0,0.94 -0.27,1.84 -0.82,2.69 -0.55,0.86 -1.28,1.53 -2.18,1.99 -0.91,0.47 -1.92,0.7 -3.03,0.7l-8.42 0zm4.29 -9.73l3.62 0c1.72,0 2.96,-0.26 3.7,-0.79 0.74,-0.52 1.11,-1.29 1.11,-2.3 0,-0.48 -0.12,-0.9 -0.35,-1.24 -0.24,-0.35 -0.55,-0.61 -0.94,-0.77 -0.4,-0.16 -1.14,-0.24 -2.23,-0.24l-3.79 0 -1.12 5.34zm-1.63 7.81l4.01 0c1.07,0 1.78,-0.03 2.15,-0.1 0.75,-0.13 1.35,-0.34 1.81,-0.64 0.47,-0.29 0.84,-0.69 1.1,-1.17 0.27,-0.49 0.4,-1 0.4,-1.54 0,-0.79 -0.26,-1.4 -0.77,-1.81 -0.51,-0.42 -1.5,-0.62 -2.96,-0.62l-4.51 0 -1.23 5.88z"/>
    <path id="16" class="fil2" d="M258.77 130.98l0.12 -1.98c0.43,0.12 0.85,0.19 1.26,0.19 0.43,0 0.77,-0.1 1.04,-0.29 0.34,-0.26 0.71,-0.73 1.11,-1.44l0.68 -1.19 -2.05 -12.34 2.06 0 0.93 6.19c0.18,1.22 0.34,2.44 0.47,3.67l5.51 -9.86 2.17 0 -7.84 13.93c-0.76,1.36 -1.43,2.26 -2.01,2.7 -0.59,0.44 -1.27,0.67 -2.03,0.67 -0.49,0 -0.96,-0.09 -1.42,-0.25z"/>
    <path id="17" class="fil2" d="M278.24 126.24l3.56 -16.99 5.42 0c0.98,0 1.72,0.04 2.19,0.12 0.78,0.13 1.44,0.36 1.97,0.69 0.54,0.33 0.96,0.78 1.25,1.35 0.3,0.56 0.44,1.19 0.44,1.88 0,0.93 -0.25,1.75 -0.77,2.47 -0.52,0.71 -1.31,1.24 -2.37,1.62 0.92,0.3 1.62,0.75 2.07,1.36 0.46,0.61 0.69,1.31 0.69,2.12 0,0.94 -0.27,1.84 -0.82,2.69 -0.55,0.86 -1.28,1.53 -2.18,1.99 -0.91,0.47 -1.92,0.7 -3.03,0.7l-8.42 0zm4.29 -9.73l3.62 0c1.73,0 2.96,-0.26 3.7,-0.79 0.74,-0.52 1.11,-1.29 1.11,-2.3 0,-0.48 -0.12,-0.9 -0.35,-1.24 -0.24,-0.35 -0.55,-0.61 -0.94,-0.77 -0.4,-0.16 -1.14,-0.24 -2.22,-0.24l-3.8 0 -1.12 5.34zm-1.63 7.81l4.01 0c1.07,0 1.78,-0.03 2.15,-0.1 0.75,-0.13 1.35,-0.34 1.82,-0.64 0.46,-0.29 0.83,-0.69 1.09,-1.17 0.27,-0.49 0.4,-1 0.4,-1.54 0,-0.79 -0.25,-1.4 -0.77,-1.81 -0.51,-0.42 -1.49,-0.62 -2.96,-0.62l-4.51 0 -1.23 5.88z"/>
    <path id="18" class="fil2" d="M296.87 111.63l0.5 -2.38 2.08 0 -0.5 2.38 -2.08 0zm-3.06 14.61l2.58 -12.31 2.08 0 -2.58 12.31 -2.08 0z"/>
    <path id="19" class="fil2" d="M299.1 126.24l2.58 -12.31 1.92 0 -0.45 2.15c0.84,-0.84 1.62,-1.45 2.34,-1.84 0.73,-0.38 1.47,-0.57 2.23,-0.57 1.01,0 1.8,0.27 2.37,0.81 0.58,0.54 0.87,1.27 0.87,2.18 0,0.45 -0.11,1.17 -0.32,2.15l-1.67 7.43 -2.08 0 1.72 -7.78c0.17,-0.76 0.26,-1.32 0.26,-1.68 0,-0.41 -0.14,-0.74 -0.43,-1 -0.29,-0.26 -0.7,-0.38 -1.25,-0.38 -1.09,0 -2.07,0.38 -2.93,1.15 -0.85,0.78 -1.48,2.1 -1.88,3.97l-1.19 5.72 -2.09 0z"/>
    <path id="20" class="fil2" d="M320.61 124.71c-0.73,0.63 -1.43,1.08 -2.1,1.37 -0.67,0.28 -1.39,0.42 -2.16,0.42 -1.13,0 -2.05,-0.33 -2.74,-1 -0.7,-0.66 -1.05,-1.52 -1.05,-2.56 0,-0.68 0.16,-1.29 0.47,-1.82 0.32,-0.52 0.73,-0.95 1.24,-1.27 0.52,-0.32 1.16,-0.55 1.91,-0.69 0.47,-0.09 1.37,-0.16 2.69,-0.22 1.32,-0.05 2.27,-0.19 2.84,-0.41 0.17,-0.58 0.25,-1.05 0.25,-1.43 0,-0.49 -0.18,-0.87 -0.54,-1.15 -0.49,-0.38 -1.2,-0.57 -2.14,-0.57 -0.88,0 -1.6,0.19 -2.17,0.58 -0.56,0.39 -0.97,0.95 -1.23,1.67l-2.11 -0.19c0.43,-1.22 1.12,-2.15 2.05,-2.8 0.94,-0.65 2.12,-0.97 3.55,-0.97 1.52,0 2.72,0.36 3.61,1.08 0.68,0.55 1.02,1.25 1.02,2.11 0,0.66 -0.1,1.42 -0.29,2.28l-0.67 3.06c-0.22,0.97 -0.32,1.76 -0.32,2.37 0,0.39 0.08,0.95 0.25,1.67l-2.12 0c-0.11,-0.4 -0.2,-0.91 -0.24,-1.53zm0.78 -4.71c-0.29,0.12 -0.61,0.21 -0.95,0.27 -0.34,0.06 -0.9,0.13 -1.69,0.19 -1.22,0.11 -2.08,0.25 -2.58,0.42 -0.5,0.16 -0.88,0.43 -1.14,0.79 -0.25,0.36 -0.38,0.76 -0.38,1.2 0,0.59 0.2,1.08 0.61,1.45 0.4,0.38 0.98,0.57 1.73,0.57 0.7,0 1.37,-0.18 2.01,-0.55 0.64,-0.37 1.14,-0.88 1.52,-1.53 0.37,-0.66 0.66,-1.59 0.87,-2.81z"/>
    <path id="21" class="fil2" d="M325.52 126.24l2.56 -12.31 1.87 0 -0.53 2.52c0.65,-0.95 1.27,-1.65 1.88,-2.1 0.6,-0.46 1.22,-0.68 1.85,-0.68 0.42,0 0.93,0.15 1.54,0.45l-0.85 1.94c-0.36,-0.27 -0.76,-0.4 -1.2,-0.4 -0.73,0 -1.49,0.41 -2.26,1.23 -0.78,0.82 -1.39,2.29 -1.84,4.42l-1.02 4.93 -2 0z"/>
    <path id="22" class="fil2" d="M332.62 130.98l0.11 -1.98c0.44,0.12 0.86,0.19 1.27,0.19 0.43,0 0.77,-0.1 1.04,-0.29 0.34,-0.26 0.71,-0.73 1.11,-1.44l0.67 -1.19 -2.04 -12.34 2.06 0 0.93 6.19c0.18,1.22 0.34,2.44 0.47,3.67l5.51 -9.86 2.17 0 -7.84 13.93c-0.76,1.36 -1.43,2.26 -2.01,2.7 -0.59,0.44 -1.27,0.67 -2.03,0.67 -0.49,0 -0.96,-0.09 -1.42,-0.25z"/>
    <polygon id="23" class="fil2" points="344.1,126.24 344.59,123.87 346.97,123.87 346.46,126.24 "/>
    <path id="24" class="fil2" d="M358.59 121.76l2.11 0.21c-0.52,1.54 -1.27,2.67 -2.24,3.42 -0.97,0.74 -2.08,1.11 -3.31,1.11 -1.35,0 -2.43,-0.43 -3.26,-1.29 -0.83,-0.87 -1.25,-2.07 -1.25,-3.62 0,-1.34 0.27,-2.66 0.8,-3.96 0.53,-1.29 1.3,-2.28 2.29,-2.95 1,-0.68 2.13,-1.01 3.41,-1.01 1.32,0 2.36,0.37 3.14,1.12 0.77,0.74 1.16,1.73 1.16,2.96l-2.07 0.14c0,-0.78 -0.23,-1.39 -0.68,-1.83 -0.44,-0.44 -1.03,-0.66 -1.76,-0.66 -0.84,0 -1.57,0.26 -2.19,0.8 -0.62,0.53 -1.11,1.33 -1.46,2.42 -0.35,1.08 -0.53,2.13 -0.53,3.13 0,1.04 0.24,1.83 0.7,2.35 0.46,0.53 1.04,0.79 1.72,0.79 0.68,0 1.33,-0.26 1.95,-0.78 0.62,-0.51 1.11,-1.3 1.47,-2.35z"/>
    <path id="25" class="fil2" d="M362.34 121.56c0,-2.39 0.71,-4.38 2.12,-5.95 1.16,-1.29 2.69,-1.94 4.59,-1.94 1.47,0 2.67,0.46 3.58,1.38 0.9,0.93 1.36,2.18 1.36,3.75 0,1.41 -0.29,2.72 -0.86,3.94 -0.57,1.21 -1.38,2.15 -2.43,2.79 -1.06,0.65 -2.17,0.97 -3.33,0.97 -0.96,0 -1.83,-0.2 -2.61,-0.61 -0.79,-0.41 -1.39,-0.99 -1.8,-1.74 -0.42,-0.74 -0.62,-1.61 -0.62,-2.59zm2.09 -0.2c0,1.16 0.28,2.04 0.84,2.63 0.55,0.6 1.26,0.9 2.13,0.9 0.45,0 0.89,-0.09 1.33,-0.27 0.45,-0.18 0.86,-0.46 1.24,-0.83 0.38,-0.37 0.71,-0.79 0.97,-1.27 0.27,-0.47 0.49,-0.98 0.65,-1.53 0.24,-0.77 0.36,-1.5 0.36,-2.2 0,-1.11 -0.28,-1.97 -0.84,-2.59 -0.57,-0.61 -1.28,-0.92 -2.13,-0.92 -0.66,0 -1.26,0.16 -1.81,0.47 -0.54,0.31 -1.03,0.77 -1.47,1.37 -0.44,0.6 -0.76,1.3 -0.96,2.1 -0.21,0.8 -0.31,1.51 -0.31,2.14z"/>
    <path id="26" class="fil2" d="M375.16 126.24l2.58 -12.31 2.08 0 -0.43 2.03c0.78,-0.87 1.48,-1.47 2.09,-1.79 0.62,-0.34 1.29,-0.5 2,-0.5 0.77,0 1.41,0.2 1.93,0.61 0.51,0.4 0.85,0.97 1.01,1.69 0.63,-0.77 1.29,-1.35 1.98,-1.73 0.69,-0.38 1.42,-0.57 2.19,-0.57 1.03,0 1.8,0.24 2.31,0.72 0.52,0.49 0.77,1.17 0.77,2.05 0,0.38 -0.09,1 -0.27,1.88l-1.69 7.92 -2.08 0 1.71 -8.12c0.14,-0.66 0.22,-1.14 0.22,-1.42 0,-0.41 -0.13,-0.72 -0.39,-0.95 -0.25,-0.24 -0.61,-0.35 -1.08,-0.35 -0.63,0 -1.27,0.19 -1.92,0.56 -0.65,0.38 -1.16,0.87 -1.52,1.49 -0.36,0.61 -0.67,1.55 -0.95,2.82l-1.25 5.97 -2.08 0 1.74 -8.29c0.12,-0.57 0.19,-0.97 0.19,-1.21 0,-0.4 -0.13,-0.72 -0.38,-0.97 -0.25,-0.25 -0.58,-0.37 -0.98,-0.37 -0.6,0 -1.22,0.19 -1.88,0.56 -0.65,0.38 -1.18,0.91 -1.59,1.58 -0.41,0.67 -0.75,1.64 -1.01,2.88l-1.22 5.82 -2.08 0z"/>
   </g>
   <rect class="fil4" width="602.85" height="143.33"/>
  </g>
 </g>
</svg>
