<svg xmlns="http://www.w3.org/2000/svg" width="606" height="144" viewBox="0 0 576.68 137.1" shape-rendering="geometricPrecision" text-rendering="geometricPrecision" image-rendering="optimizeQuality" fill-rule="evenodd" clip-rule="evenodd"><defs><style>.fil2,.fil3{fill:#f08519;fill-rule:nonzero}.fil2{fill:#fafcff}</style></defs><g id="Layer_x0020_4"><g id="_1679403533920"><path d="M69.53 3.89c35.96 0 65.13 29.16 65.13 65.13s-29.17 65.13-65.13 65.13c-35.97 0-65.14-29.16-65.14-65.13S33.56 3.89 69.53 3.89z" fill="#102c63"/><path d="M69.53 12.15c25.05 0 46.33 16.21 53.91 38.72h-20.69c-6.43-11.74-18.9-19.7-33.22-19.7-17.62 0-32.42 12.03-36.65 28.33h92.72c.52 3.09.8 6.27.8 9.52 0 31.41-25.47 56.87-56.87 56.87-25.06 0-46.33-16.21-53.91-38.71h20.69c4.95 9.04 13.48 15.83 23.69 18.48V78.55H13.45c-.52-3.1-.8-6.28-.8-9.53 0-31.4 25.47-56.87 56.88-56.87zm9.52 93.51c13.25-3.43 23.68-13.86 27.12-27.11H79.05v27.11z" fill="#fff"/><path class="fil2" d="M149.76 59.92l12.81-1.27c.77 4.28 2.31 7.41 4.66 9.42 2.34 2.02 5.51 3.01 9.48 3.01 4.21 0 7.39-.89 9.52-2.67 2.14-1.79 3.21-3.88 3.21-6.27 0-1.54-.45-2.84-1.35-3.93-.89-1.08-2.46-2.02-4.7-2.8-1.53-.55-5.01-1.49-10.46-2.85-7-1.75-11.92-3.9-14.75-6.46-3.98-3.59-5.96-7.96-5.96-13.12 0-3.31.93-6.43 2.79-9.32 1.88-2.89 4.58-5.08 8.1-6.6 3.53-1.51 7.76-2.27 12.76-2.27 8.12 0 14.25 1.8 18.35 5.42 4.12 3.62 6.27 8.43 6.48 14.47l-13.17.45c-.56-3.36-1.75-5.76-3.58-7.23-1.83-1.47-4.59-2.21-8.25-2.21-3.78 0-6.75.78-8.88 2.36-1.38 1.01-2.07 2.36-2.07 4.05 0 1.55.65 2.86 1.95 3.95 1.65 1.41 5.66 2.86 12.03 4.38 6.37 1.49 11.07 3.07 14.12 4.67 3.05 1.62 5.44 3.82 7.17 6.62 1.72 2.8 2.59 6.24 2.59 10.35 0 3.72-1.03 7.21-3.11 10.47-2.07 3.25-4.99 5.67-8.77 7.24-3.79 1.59-8.51 2.38-14.15 2.38-8.22 0-14.53-1.89-18.93-5.69-4.41-3.78-7.02-9.3-7.89-16.55z"/><path id="1" class="fil2" d="M272.33 80.98h-14.17l-5.62-14.8h-26.07l-5.4 14.8h-13.92l25.24-65.01h13.9l26.04 65.01zM248.27 55.2l-9.03-24.06-8.78 24.06h17.81z"/><path id="2" class="fil2" d="M275.89 59.92l12.8-1.27c.78 4.28 2.32 7.41 4.66 9.42 2.35 2.02 5.51 3.01 9.49 3.01 4.21 0 7.39-.89 9.52-2.67 2.13-1.79 3.21-3.88 3.21-6.27 0-1.54-.46-2.84-1.35-3.93-.89-1.08-2.47-2.02-4.71-2.8-1.52-.55-5-1.49-10.45-2.85-7.01-1.75-11.93-3.9-14.76-6.46-3.98-3.59-5.96-7.96-5.96-13.12 0-3.31.94-6.43 2.8-9.32 1.88-2.89 4.57-5.08 8.1-6.6 3.52-1.51 7.76-2.27 12.75-2.27 8.13 0 14.26 1.8 18.36 5.42 4.12 3.62 6.26 8.43 6.48 14.47l-13.17.45c-.56-3.36-1.75-5.76-3.59-7.23-1.83-1.47-4.58-2.21-8.24-2.21-3.78 0-6.75.78-8.88 2.36-1.38 1.01-2.08 2.36-2.08 4.05 0 1.55.65 2.86 1.95 3.95 1.65 1.41 5.66 2.86 12.03 4.38 6.37 1.49 11.08 3.07 14.12 4.67 3.06 1.62 5.45 3.82 7.18 6.62 1.72 2.8 2.58 6.24 2.58 10.35 0 3.72-1.03 7.21-3.1 10.47-2.07 3.25-4.99 5.67-8.78 7.24-3.78 1.59-8.5 2.38-14.14 2.38-8.22 0-14.53-1.89-18.93-5.69-4.41-3.78-7.03-9.3-7.89-16.55z"/><path id="3" class="fil3" d="M354.52 80.98V26.96h-19.25V15.97h51.57v10.99h-19.16v54.02z"/><path id="4" class="fil3" d="M402.15 80.98h-12.43V33.86h11.53v6.69c1.98-3.17 3.76-5.24 5.35-6.22 1.59-.99 3.39-1.47 5.41-1.47 2.84 0 5.58.79 8.21 2.35l-3.86 10.86c-2.1-1.36-4.05-2.04-5.85-2.04-1.76 0-3.24.48-4.45 1.44s-2.17 2.69-2.86 5.2c-.7 2.51-1.05 7.78-1.05 15.78v14.53z"/><path id="5" class="fil3" d="M434.86 48.39l-11.26-2c1.27-4.6 3.46-8.01 6.56-10.21 3.11-2.21 7.72-3.32 13.83-3.32 5.56 0 9.7.65 12.43 1.97 2.71 1.31 4.63 2.98 5.73 5.01 1.11 2.02 1.67 5.73 1.67 11.15l-.18 14.53c0 4.13.19 7.18.59 9.15.39 1.97 1.13 4.07 2.22 6.31H454.1c-.31-.82-.72-2.03-1.19-3.63-.2-.74-.35-1.23-.44-1.45-2.12 2.08-4.39 3.64-6.81 4.69-2.42 1.04-4.99 1.57-7.73 1.57-4.83 0-8.64-1.32-11.43-3.95-2.78-2.62-4.17-5.95-4.17-9.97 0-2.65.63-5.02 1.9-7.11 1.27-2.08 3.04-3.68 5.34-4.78 2.29-1.11 5.59-2.08 9.9-2.91 5.81-1.09 9.85-2.12 12.09-3.06v-1.25c0-2.42-.59-4.15-1.77-5.19-1.2-1.03-3.43-1.55-6.72-1.55-2.22 0-3.95.44-5.19 1.34-1.25.87-2.25 2.43-3.02 4.66zm16.7 10.07c-1.59.53-4.12 1.17-7.58 1.91-3.45.74-5.72 1.47-6.78 2.17-1.62 1.16-2.44 2.61-2.44 4.38 0 1.76.65 3.26 1.96 4.53 1.3 1.27 2.95 1.9 4.96 1.9 2.24 0 4.39-.74 6.43-2.2 1.5-1.14 2.5-2.5 2.97-4.14.31-1.06.48-3.08.48-6.06v-2.49z"/><path id="6" class="fil3" d="M519.31 80.98h-11.53v-6.91c-1.93 2.69-4.21 4.7-6.83 6.06-2.62 1.35-5.26 2.03-7.93 2.03-5.43 0-10.08-2.18-13.95-6.55-3.86-4.37-5.8-10.46-5.8-18.28 0-7.99 1.88-14.07 5.65-18.23 3.77-4.17 8.52-6.24 14.27-6.24 5.26 0 9.83 2.19 13.68 6.57V15.97h12.44v65.01zm-33.23-24.47c0 5.04.69 8.69 2.07 10.94 2.01 3.27 4.81 4.91 8.41 4.91 2.86 0 5.3-1.23 7.3-3.68 2.01-2.45 3.01-6.1 3.01-10.97 0-5.44-.97-9.34-2.92-11.73-1.95-2.39-4.44-3.59-7.48-3.59-2.95 0-5.41 1.18-7.41 3.55-1.99 2.36-2.98 5.88-2.98 10.57z"/><path id="7" class="fil3" d="M558.79 66.09l12.43 2.09c-1.58 4.55-4.11 8.02-7.55 10.41-3.45 2.38-7.76 3.57-12.92 3.57-8.19 0-14.25-2.68-18.17-8.03-3.11-4.3-4.66-9.72-4.66-16.27 0-7.81 2.04-13.94 6.11-18.36 4.07-4.43 9.23-6.64 15.47-6.64 6.99 0 12.51 2.32 16.56 6.95 4.04 4.63 5.98 11.72 5.8 21.29h-31.14c.09 3.69 1.09 6.56 3.01 8.62 1.91 2.06 4.3 3.09 7.14 3.09 1.95 0 3.59-.53 4.91-1.59 1.33-1.06 2.33-2.77 3.01-5.13zm.72-12.62c-.09-3.62-1.01-6.37-2.78-8.25-1.77-1.89-3.92-2.83-6.46-2.83-2.71 0-4.95 1-6.72 2.99-1.77 1.98-2.63 4.69-2.6 8.09h18.56z"/><path id="8" class="fil2" d="M148.18 115.52l2.13-.21-.02.57c0 .63.14 1.21.43 1.73.29.51.76.92 1.42 1.2.67.29 1.46.43 2.37.43 1.3 0 2.29-.28 2.97-.85.68-.58 1.02-1.23 1.02-1.96 0-.51-.18-.98-.54-1.4-.37-.42-1.37-.98-3.02-1.69-1.28-.55-2.15-.97-2.61-1.27-.73-.48-1.27-1-1.62-1.57-.34-.56-.51-1.2-.51-1.93 0-.83.23-1.59.68-2.26.46-.67 1.13-1.19 2.01-1.54.88-.35 1.88-.53 2.99-.53 1.32 0 2.44.22 3.35.66.9.44 1.56 1.03 1.97 1.77.41.74.62 1.45.62 2.12v.33l-2.11.16c0-.46-.04-.81-.12-1.07-.15-.45-.38-.84-.69-1.15-.31-.31-.73-.56-1.27-.75-.55-.18-1.15-.28-1.82-.28-1.18 0-2.1.27-2.75.8-.5.41-.75.95-.75 1.62 0 .4.1.76.31 1.08.2.31.58.62 1.11.92.38.22 1.3.64 2.73 1.28 1.17.51 1.97.92 2.41 1.22.59.39 1.04.86 1.36 1.42.32.56.47 1.19.47 1.9 0 .88-.26 1.69-.8 2.43-.53.75-1.28 1.32-2.22 1.72-.94.41-2.03.61-3.24.61-1.85 0-3.34-.4-4.51-1.2-1.16-.79-1.75-2.23-1.75-4.31z"/><path id="9" class="fil2" d="M170.52 118.63c-1.41 1.59-2.86 2.38-4.34 2.38-.9 0-1.64-.26-2.2-.77-.56-.52-.84-1.16-.84-1.91 0-.49.14-1.34.41-2.55l1.55-6.8h2.02l-1.72 7.63c-.14.63-.21 1.13-.21 1.48 0 .41.13.72.41.95.27.22.68.34 1.21.34.57 0 1.13-.14 1.67-.41.55-.27 1.02-.64 1.41-1.1.39-.46.72-1.01.96-1.64.17-.4.36-1.11.58-2.13l1.12-5.12h1.99l-2.61 11.78h-1.85l.44-2.13z"/><path id="10" class="fil2" d="M174.17 125.28l3.4-16.3h1.86l-.34 1.65c.68-.71 1.3-1.21 1.84-1.49a3.83 3.83 0 0 1 1.73-.41c1.12 0 2.05.41 2.79 1.22.74.82 1.11 1.99 1.11 3.51 0 1.22-.2 2.33-.61 3.34-.4 1.01-.91 1.82-1.5 2.43-.59.61-1.19 1.06-1.8 1.35-.61.29-1.23.43-1.86.43-1.42 0-2.52-.72-3.3-2.15l-1.33 6.42h-1.99zm3.95-9.32c0 .88.07 1.48.19 1.82.19.48.49.86.91 1.15.43.3.92.45 1.47.45 1.16 0 2.09-.65 2.81-1.95.71-1.29 1.06-2.62 1.06-3.97 0-.99-.23-1.76-.71-2.3-.48-.54-1.07-.82-1.79-.82-.51 0-.98.14-1.42.41-.44.27-.85.67-1.22 1.21-.37.54-.68 1.19-.93 1.97-.24.78-.37 1.45-.37 2.03z"/><path id="11" class="fil2" d="M186.79 125.28l3.41-16.3h1.85l-.34 1.65c.69-.71 1.3-1.21 1.85-1.49a3.79 3.79 0 0 1 1.72-.41c1.13 0 2.06.41 2.8 1.22.74.82 1.11 1.99 1.11 3.51 0 1.22-.21 2.33-.62 3.34-.4 1.01-.9 1.82-1.49 2.43-.6.61-1.2 1.06-1.81 1.35-.6.29-1.22.43-1.86.43-1.42 0-2.51-.72-3.29-2.15l-1.33 6.42h-2zm3.96-9.32c0 .88.06 1.48.19 1.82.18.48.49.86.91 1.15.42.3.91.45 1.47.45 1.15 0 2.09-.65 2.8-1.95.71-1.29 1.07-2.62 1.07-3.97 0-.99-.24-1.76-.72-2.3-.48-.54-1.07-.82-1.79-.82-.51 0-.98.14-1.42.41-.44.27-.84.67-1.22 1.21-.37.54-.68 1.19-.93 1.97-.24.78-.36 1.45-.36 2.03z"/><path id="12" class="fil2" d="M200.71 116.29c0-2.3.68-4.19 2.03-5.7 1.11-1.24 2.57-1.86 4.39-1.86 1.41 0 2.55.44 3.42 1.33.87.89 1.31 2.08 1.31 3.58 0 1.35-.28 2.61-.82 3.77-.55 1.16-1.33 2.05-2.34 2.67-1.01.62-2.06.93-3.18.93-.92 0-1.75-.2-2.5-.59a3.92 3.92 0 0 1-1.71-1.66c-.4-.71-.6-1.54-.6-2.47zm2-.2c0 1.11.27 1.95.8 2.52.53.57 1.21.86 2.04.86.43 0 .86-.09 1.28-.26.42-.18.81-.44 1.18-.79.37-.36.68-.76.93-1.22.26-.45.46-.94.62-1.47.23-.73.34-1.43.34-2.1 0-1.06-.26-1.89-.8-2.47-.54-.59-1.22-.88-2.04-.88-.63 0-1.2.15-1.72.45-.52.29-.99.73-1.41 1.31-.42.57-.73 1.24-.93 2.01-.19.76-.29 1.44-.29 2.04z"/><path id="13" class="fil2" d="M213 120.76l2.45-11.78h1.79l-.51 2.41c.61-.9 1.21-1.57 1.79-2.01.58-.43 1.17-.65 1.78-.65.39 0 .89.15 1.47.43l-.82 1.86c-.35-.25-.73-.38-1.14-.38-.71 0-1.43.39-2.17 1.18-.74.78-1.33 2.19-1.75 4.22l-.99 4.72H213z"/><path id="14" class="fil2" d="M225.22 119.14l-.33 1.64c-.48.12-.95.19-1.4.19-.8 0-1.43-.2-1.9-.59-.35-.3-.53-.7-.53-1.21 0-.26.09-.86.29-1.79l1.43-6.85h-1.59l.32-1.55h1.58l.61-2.88 2.3-1.39-.91 4.27h1.98l-.34 1.55h-1.96l-1.36 6.51c-.17.83-.25 1.33-.25 1.49 0 .24.07.42.2.54.14.13.36.19.67.19.45 0 .84-.04 1.19-.12z"/><path id="15" class="fil2" d="M233.37 120.76l3.4-16.25h5.18c.95 0 1.65.04 2.1.11.75.13 1.38.35 1.89.66.51.32.91.75 1.19 1.29.28.54.43 1.14.43 1.8 0 .89-.25 1.68-.75 2.36-.49.68-1.24 1.19-2.26 1.55.88.29 1.55.72 1.98 1.31.44.57.66 1.25.66 2.03 0 .89-.26 1.75-.78 2.57a5.38 5.38 0 0 1-2.09 1.9c-.87.45-1.83.67-2.9.67h-8.05zm4.1-9.3h3.46c1.65 0 2.84-.26 3.55-.76.7-.5 1.06-1.24 1.06-2.2 0-.46-.12-.86-.34-1.19-.23-.34-.53-.58-.9-.73-.38-.16-1.09-.23-2.13-.23h-3.63l-1.07 5.11zm-1.56 7.46h3.84c1.02 0 1.7-.03 2.05-.09.72-.13 1.3-.33 1.74-.61.45-.29.8-.66 1.05-1.13.25-.47.38-.95.38-1.47 0-.76-.24-1.33-.73-1.73-.49-.4-1.44-.6-2.84-.6h-4.31l-1.18 5.63z"/><path id="16" class="fil2" d="M247.53 125.29l.12-1.89c.41.12.81.18 1.21.18.4 0 .73-.09.99-.28.32-.24.68-.7 1.07-1.37l.64-1.15-1.96-11.8h1.97l.89 5.93c.18 1.16.33 2.33.45 3.5l5.27-9.43h2.07l-7.49 13.33c-.73 1.3-1.37 2.16-1.93 2.58-.56.43-1.21.64-1.93.64-.47 0-.92-.08-1.37-.24z"/><path id="17" class="fil2" d="M266.16 120.76l3.41-16.25h5.18c.94 0 1.64.04 2.1.11.74.13 1.37.35 1.88.66.52.32.92.75 1.2 1.29.28.54.42 1.14.42 1.8 0 .89-.25 1.68-.74 2.36-.49.68-1.25 1.19-2.27 1.55.89.29 1.55.72 1.99 1.31.44.57.66 1.25.66 2.03 0 .89-.26 1.75-.79 2.57-.53.82-1.22 1.46-2.09 1.9-.87.45-1.83.67-2.9.67h-8.05zm4.11-9.3h3.46c1.65 0 2.83-.26 3.54-.76s1.06-1.24 1.06-2.2c0-.46-.11-.86-.34-1.19-.22-.34-.52-.58-.9-.73-.38-.16-1.08-.23-2.12-.23h-3.63l-1.07 5.11zm-1.56 7.46h3.84c1.01 0 1.7-.03 2.05-.09.71-.13 1.29-.33 1.74-.61.44-.29.79-.66 1.04-1.13.26-.47.38-.95.38-1.47 0-.76-.24-1.33-.73-1.73-.49-.4-1.43-.6-2.83-.6h-4.31l-1.18 5.63z"/><path id="18" class="fil2" d="M283.98 106.78l.48-2.27h1.99l-.47 2.27h-2zm-2.93 13.98l2.47-11.78h1.99l-2.46 11.78h-2z"/><path id="19" class="fil2" d="M286.12 120.76l2.47-11.78h1.83l-.43 2.06c.8-.8 1.55-1.39 2.24-1.76.7-.36 1.41-.55 2.13-.55.97 0 1.72.26 2.27.78s.83 1.21.83 2.08c0 .44-.11 1.12-.31 2.06l-1.59 7.11h-2l1.66-7.45c.16-.72.24-1.26.24-1.6 0-.39-.13-.71-.41-.95-.28-.25-.67-.37-1.2-.37-1.04 0-1.97.37-2.8 1.1-.81.74-1.41 2-1.8 3.79l-1.14 5.48h-1.99z"/><path id="20" class="fil2" d="M306.69 119.3c-.7.6-1.37 1.03-2.01 1.3-.64.28-1.33.41-2.06.41-1.09 0-1.96-.32-2.63-.96-.66-.63-1-1.45-1-2.44 0-.66.15-1.24.45-1.75.3-.5.7-.9 1.19-1.21.5-.31 1.1-.53 1.82-.66.45-.09 1.31-.16 2.58-.21 1.26-.05 2.17-.19 2.72-.4.15-.55.23-1 .23-1.36 0-.47-.17-.83-.51-1.1-.47-.37-1.15-.55-2.05-.55-.84 0-1.54.18-2.08.56-.53.37-.92.9-1.17 1.59l-2.02-.18c.41-1.16 1.07-2.06 1.96-2.68.9-.62 2.03-.93 3.4-.93 1.45 0 2.6.35 3.45 1.04.65.52.97 1.19.97 2.02 0 .63-.09 1.35-.27 2.18l-.65 2.93c-.2.93-.3 1.68-.3 2.27 0 .37.08.9.24 1.59h-2.03c-.11-.38-.19-.87-.23-1.46zm.75-4.51c-.28.11-.59.2-.91.26-.32.06-.86.12-1.62.18-1.17.11-1.99.24-2.47.4-.48.16-.84.41-1.08.76-.25.35-.37.73-.37 1.15 0 .56.19 1.02.58 1.38.39.37.94.55 1.66.55.66 0 1.3-.18 1.92-.53.61-.35 1.09-.84 1.45-1.47.36-.62.64-1.52.84-2.68z"/><path id="21" class="fil2" d="M311.39 120.76l2.45-11.78h1.79l-.51 2.41c.62-.9 1.21-1.57 1.79-2.01.58-.43 1.17-.65 1.78-.65.4 0 .89.15 1.47.43l-.82 1.86c-.34-.25-.72-.38-1.14-.38-.7 0-1.42.39-2.17 1.18-.74.78-1.32 2.19-1.75 4.22l-.98 4.72h-1.91z"/><path id="22" class="fil2" d="M318.18 125.29l.11-1.89c.42.12.82.18 1.21.18.41 0 .74-.09.99-.28.33-.24.68-.7 1.07-1.37l.64-1.15-1.96-11.8h1.98l.88 5.93c.18 1.16.33 2.33.46 3.5l5.26-9.43h2.08l-7.5 13.33c-.72 1.3-1.37 2.16-1.93 2.58-.55.43-1.2.64-1.93.64-.47 0-.92-.08-1.36-.24z"/><path id="23" class="fil2" d="M329.16 120.76l.47-2.27h2.27l-.48 2.27z"/><path id="24" class="fil2" d="M343.02 116.47l2.02.21c-.5 1.46-1.22 2.55-2.15 3.26-.92.72-1.98 1.07-3.16 1.07-1.29 0-2.32-.41-3.12-1.24-.79-.82-1.19-1.98-1.19-3.46 0-1.28.25-2.54.76-3.78.51-1.24 1.24-2.19 2.19-2.83.96-.65 2.04-.97 3.26-.97 1.26 0 2.27.36 3.01 1.07.74.72 1.11 1.66 1.11 2.84l-1.98.13c-.01-.74-.22-1.33-.65-1.75-.42-.42-.99-.63-1.68-.63-.81 0-1.51.25-2.1.76-.59.51-1.06 1.28-1.39 2.32-.34 1.03-.51 2.03-.51 2.99 0 1 .22 1.76.66 2.25.45.51 1 .76 1.65.76.65 0 1.27-.25 1.87-.74.59-.5 1.06-1.25 1.4-2.26z"/><path id="25" class="fil2" d="M346.61 116.29c0-2.3.68-4.19 2.03-5.7 1.11-1.24 2.57-1.86 4.38-1.86 1.42 0 2.56.44 3.43 1.33.87.89 1.3 2.08 1.3 3.58 0 1.35-.27 2.61-.82 3.77-.54 1.16-1.32 2.05-2.33 2.67-1.01.62-2.07.93-3.18.93-.92 0-1.75-.2-2.5-.59-.75-.38-1.32-.94-1.72-1.66-.4-.71-.59-1.54-.59-2.47zm1.99-.2c0 1.11.27 1.95.81 2.52.53.57 1.21.86 2.04.86.43 0 .86-.09 1.27-.26.43-.18.82-.44 1.19-.79.36-.36.67-.76.93-1.22.25-.45.46-.94.62-1.47.23-.73.34-1.43.34-2.1 0-1.06-.27-1.89-.81-2.47-.54-.59-1.21-.88-2.03-.88-.63 0-1.21.15-1.73.45-.52.29-.99.73-1.41 1.31-.42.57-.72 1.24-.92 2.01-.2.76-.3 1.44-.3 2.04z"/><path id="26" class="fil2" d="M358.87 120.76l2.47-11.78h1.99l-.41 1.95c.75-.83 1.42-1.41 2-1.72.59-.32 1.23-.48 1.92-.48.73 0 1.34.19 1.83.58.5.39.82.93.97 1.63.6-.74 1.24-1.29 1.9-1.66.66-.37 1.36-.55 2.09-.55.98 0 1.72.23 2.21.7.49.46.74 1.11.74 1.95 0 .37-.09.96-.26 1.8l-1.61 7.58h-2l1.64-7.77c.13-.63.21-1.09.21-1.36 0-.39-.13-.69-.37-.91-.25-.22-.59-.33-1.04-.33-.6 0-1.21.18-1.83.54-.63.36-1.11.83-1.45 1.42-.35.59-.65 1.49-.91 2.7l-1.2 5.71h-1.99l1.66-7.94c.12-.54.18-.92.18-1.15 0-.38-.12-.69-.36-.93-.24-.23-.55-.35-.94-.35-.57 0-1.16.18-1.79.54-.63.36-1.13.87-1.53 1.51-.39.64-.71 1.56-.96 2.76l-1.17 5.56h-1.99z"/><path fill="none" d="M0 0h576.68v137.1H0z"/></g></g></svg>